<mxfile host="app.diagrams.net" modified="2024-06-12T20:45:33.390Z" agent="Mozilla/5.0 (Windows NT 10.0; Win64; x64) AppleWebKit/537.36 (KHTML, like Gecko) Chrome/125.0.0.0 Safari/537.36" etag="7z99desWG4x4MrnDVrc2" version="24.5.4" type="github">
  <diagram name="Page-1" id="Js9zXDBlKbuuDXxLLn8j">
    <mxGraphModel dx="1050" dy="522" grid="1" gridSize="10" guides="1" tooltips="1" connect="1" arrows="1" fold="1" page="1" pageScale="1" pageWidth="827" pageHeight="1169" math="0" shadow="0">
      <root>
        <mxCell id="0" />
        <mxCell id="1" parent="0" />
        <mxCell id="MIplbjMhPZChMv7-PSJD-1" value="" style="shape=image;verticalLabelPosition=bottom;labelBackgroundColor=default;verticalAlign=top;aspect=fixed;imageAspect=0;image=data:image/png,iVBORw0KGgoAAAANSUhEUgAAAaQAAAEWCAYAAAApTuNLAAAAOXRFWHRTb2Z0d2FyZQBNYXRwbG90bGliIHZlcnNpb24zLjUuMSwgaHR0cHM6Ly9tYXRwbG90bGliLm9yZy/YYfK9AAAACXBIWXMAAAsTAAALEwEAmpwYAABh4UlEQVR4nO2dd3xUVfbAvyc9kBA60psICgqCoiJiVOyCrmvvXdEtuq4rllVsq6tucy2rrq7Yxc7PhigEUFF67733EhLSc35/vPcmM8kkmXmTeZlM7vfzmU/m3VfueTfJO++ce+45oqoYDAaDwVDfJNS3AAaDwWAwgFFIBoPBYIgRjEIyGAwGQ0xgFJLBYDAYYgKjkAwGg8EQExiFZDAYDIaYwCgkQ1whIleKyLdRunYXEckTkcRoXD/WEZHFIpJd33IY4hejkAyeIyLrRGS7iDT1a7tJRHIivbaqvqOqZ0R6HfDJOdzv2htUNUNVy+ri+pX6UhHJtxXebhH5XkQuDeP8bBHZFEH/3WwZ8uzPdhF5UUSSnWNUta+q5tjHjxGRt132NUZESux+9onITyJygr3vOhEps/flish8ETkviJxfVrrm2yIyxv6eIiIf2b8/NUq04WAUkqG+SAJ+X99CxBj9VTUD6A28ATwvIg97LENzW4YjgROAO6LUzwd2P22AH4BPRETsfdPtfc2BF4H3RaR5pfOPF5ETa7j+D8BVwLY6ldoQVYxCMtQXzwB/DPKgAUBE/iUiG+235NkicpLd3kFECkSkpd+xR4vILhFJtt+wf/Dbd4aILBeR/fYb/xQRucne11NEJtkWyS4ReceRR0TeAroA/2e/rf/J7+08yU+W8SKyR0RWicjNfv2OEZFxIvKmiByw3V3HhDIwqrpLVd8CRgH3iUgr+5rXi8hS+3prRORWu70p8DXQwc/C6SAig0Vkum2FbBWR50UkJUQZdgATgSP87mmdiAwXkbOA+4FL7b7m2/uvs+U6ICJrReTKEPopAcYChwCtKu0rB94CmgK9Kp36NPB4NdcsVtV/quoPQJ1bs4boYRSSob6YBeQAf6xm/0xgANASeBf4UETSVHULMB34td+xVwAf2Q83HyLSGvgIuA/rYbccGOJ/CPAk0AE4HOgMjAFQ1auBDcAI2033dBAZ3wM22edfBPxFRE7z2z8SeB/rTX888Hw191odn2NZkoPt7R3AeUAz4HrgHyIyUFXzgbOBLbasGfY4lQF3Aa2xrJ3TgNtD6VhEOgBnAj9X3qeq3wB/wbZyVLW/rRSfA85W1UyscZ4XQj+pwHXAJlXdVWlfon2fJcD6Sqe+ABzm71I1NHyMQjLUJw8BvxWRNpV3qOrbqrpbVUtV9W9AKpYrCywFdTmA7ea5zG6rzDnAYlX9RFVLsR6YPheOqq5S1YmqWqSqO4G/AyeHIriIdAaGAveqaqGqzgP+C1ztd9gPqvqVPef0FtA/lGv7yVcC7MJSyqjql6q6Wi2mAN8CJ9Vw/mxV/dkew3XAyyHc3y4R2QdsBvKxFHqolAP9RCRdVbeq6uIajr3E7mcjMAi4wG/f8fa+QuBZ4CrbYvOnEHiCaqwkQ8PEKCRDvaGqi4AvgNGV94nI3bZ7ar/9cMrCetMH6yF5gv0WPwxQYFqQLjpgPfCc/hTLonH6aCsi74vIZhHJBd7266M2OgB7VPWAX9t6oKPftv/8xUEgzXH3hYJYAQVtgD329tki8rPtItyHpXCrlVdEDhORL0Rkm31/f6npeJvWqtocaAL8CHwTiqy2lXYpcBuwVUS+FJE+NZwyTlWbq2pbVT1VVWf77fvZlqEFlmVZndJ9FWgnIiNCkdEQ+xiFZKhvHgZuxu9Bbs8X3QtcArSwH077sVxsqOo+LOvgEix33XsaPG39VqCT33XFfxvLXafAUaraDGsSXPz215QKfwvQUkQy/dq6YFkWdcX5QCkww3ZtfYxlMbSzx+QrP3mDyfoSsAzoZd/f/QTeX7WoagFWYMUJtuuzyiFBzpmgqqcD7e1+Xw2lrxpkyMNyMV4tIkcH2V8CPAI8Roj3ZYhtjEIy1Cuqugr4APidX3Mm1oN4J5AkIg9hzZv48y5wDdZcUjB3HcCXwJEicoFtmdyBNXnu308esE9EOgL3VDp/O9CjGrk3Aj8BT4pImogcBdwIvFPD7YaEiLS0AwJeAP6qqruBFCy35U6gVETOBvzD27cDrUQkq9L95QJ5trUyKgwZUrHcj9uA3UEO2Q50E5EE+/h2IjLSnksqwhrXiAMK7Hv/L5Z7NxhvYY3LWZXlF5E0ezPF/h0ZpRXjGIVkiAUexYqkcpiAFTW2AssNVoif681mPFbk1XZVnR/sovYk+cVYEVm7sSLGZmE9MMF6ux6IZX19CXxS6RJPAg/aUWrBgi8uB7phWUufAg+r6sRa7rUm5otIHrAKuAm4S1Ufsu/lAJbSHgfsxbIMx/vd6zKsIIs1trwdsAJGrgAOYFkrH4Qgwz5bhu1YgRAjq7E+P7R/7haROVjPkruxxmIP1lxVSAEUIfBP4Bxb6Qdgz889jD3P5sdyoADL8p5gf+9aR/IYooSYAn2GxoL9Nr8JuFJVJ9e3PAaDIRBjIRniGhE5U0Sa2y4oZw6lSiizwWCof+pVIYnI6yKyQ0QW+bWNsaOe5tmfc/z23WcvQFwuImf6tQ8SkYX2vuccX7HtR/7Abv9FRLp5eoOGWOAEYDVW+PQI4AJ7wt5gMMQY9eqyE5FhWJOfb6pqP7ttDJCnqs9WOvYILB/5YKyQ2++Aw1S1TERmYKWh+Rkr8ug5Vf1aRG7HiqC6TUQuA36lqiHnBzMYDAaDd9SrhaSqU7HXWITA+cD79iLGtVgTv4NFpD3QTFWn25Ovb1KxyO58rLQkYK1dOc1E2hgMBkNsEvIiPY/5jYhcgxURdbeq7sWKlvH3/W+y20rwW+zo1479cyOAqpaKyH6sFDKVU5TcAtwCkJaWNqhLly51fkMNkfLychISzDQjmLHwx4xFBWYsKlixYsUuVa2SdSUcYlEhvYS10E3tn38DbiD4wjetoZ1a9lU0qL4CvALQu3dvXb58efhSxyE5OTlkZ2fXtxgxgRmLCsxYVGDGogIRqZxvMGxiTrWr6nZVLbMz/b5KRWLJTVjJLx06Ya152ETg6nunPeAce2FkFqG7CA0Gg8HgITGnkOw5IYdfAU4E3njgMjtyrjvWosgZqroVOCAix9vzQ9dgZUl2zrnW/n4RMKmaRX4Gg8FgqGfq1WUnIu8B2UBrsapdPgxki8gALNfaOuBWAFVdLCLjgCVYaWXu8KvcOQor71Y61gr/r+3214C3RGQVlmV0WdRvymAwGAyuqFeFpKqXB2l+rYbjn8BKOV+5fRbQL0h7IVbqGIPBYDDEODHnsjMYDAZD48QoJIPBYDDEBEYhGQwGgyEmMArJYDAYDDGBUUgGg8FgiAmMQjIYDAZDTGAUksFgMBhiAqOQDAaDwRATGIVkMBgMhpjAKCSDwWAwxAS1KiQROUxEvnfKjIvIUSLyYPRFMxgMBkNjIhQL6VXgPqxCeKjqAuI4SemWwi3sPrg7oms89cNTfL3y6yrt5VqOSTZuMBgMwQlFITVR1RmV2kqjIUwskFeSx7QN03zb+cX57MjfEdY17vv+Ps5595wq7YmPJgZtNxgMBkNoCmmXiPTErrQqIhcBW6MqVT0iIuSsy/FtH/3y0bR7tl3I5x8oOlDj/m9WfeNWNACW7lzK/d/fX62lNWHVBDr9vRMHSw5G1I/BYDB4TSgK6Q7gZaCPiGwG7sSqPxSXpCWmBSiklXtWhnX+lgNbgrbXlatuxHsjePKHJ6vtZ/T3o9l8YDOLdyyuk/4MBoPBK2qth6Sqa4DhItIUSFDVmk2ABk56QjoLdywkvzifvOI8X3tZeRmJCYkAPJLzCH3b9uWiIy4KOFdVeW/Re0Gve6C4boctvyQ/aHvztOYA7C3cW6f9GQwGQ7SpViGJyB+qaQdAVf8eJZnqlbTENMq1nLnb5pJblOtrzy3KpUV6C1SVMVPGALDsjmX0bt3bd8x3a77jkSmPVLlmaXkpj015zLddruWMWzyOX/X5FalJqWHJ1yS5CQBr9q5h9pbZXNbvMt/vBCArNQuAzbmbw7puQyKvOI8N+zdwRJsj6lsUg8FQh9Tkssu0P8dgueg62p/bgLh9EqQlpgEwc/NM1u9b72tv+XRLVu1ZxZ6CPb621XtXB5zrvw8sqwqseZ1npz/ra39hxgtc/vHl/PPnf4Ytn6OQ/jDhD1zxyRVMWD0hYH9maiYAG3M3hn3thsLI90bS98W+JmLRYIgzqrWQVPURABH5FhjouOpEZAzwoSfS1QNJkkTL9Jas3LPS5/5yeHnWy5RruW97f+F+wHLVTVk/hZ0HdwYcv7tgN22btuWnjT8FtDtKpLQ8/GBFRyE5LrsHJj3A8B7DSUqwfpVFpUUAbMrdFPa165O84jxSElNISUyp9djJ6yYDUFhaSHpyerRFMxgMHlHrHBLQBSj22y4GukVFmhihQ2YHXpr1UpV2fysHYH+RpZCe+uEp7p90P4PaDwLgz8P+zGNTH6Pds+349eG/ZtGORQHnzdhsRdF3zuoctmyOQnKCGuZsncPHSz7mkIxDOK7Tcb65qo25G1HVAHdeLJP5ZCbHdTyOn2/6OeRzDpYcNArJYIgjQomyewuYISJjRORh4BfgzeiKVb90yOwQ0nGOhfTMT88AsGD7Alo3ae1TTAAfL/2Y5buXB5znWFKOcgkH55zS8lK6ZnUFYOr6qWSPzebWL271hZ3vzN/JkNeHcP7754fdR33xy+ZfwjrehLYbDPFFKFF2T4jI18BJdtP1qjo3umLVL+0z2od0XG5RLsVlxb6ItpLyEto2bUuPFj0AGNplKD9s+CHgnIyUDF/0nps5kLSkNN/3zlmd2Zq3lYU7FgLw9cqvaZ9pyb5yz8qAoIx4YNLaSbyz4B3ftlFIBkN8EUouuy7ALuBT+7Pbbotb2jZt6/t+z5B7gh7TIq0F+4v2s2bvmirnHtnuSPbeu5dp10+rct5JXU7yffefjwoV/3NapbeiVXorn0LaeXCnz0KKJ2XkzItd//n1vD7vdV97QWmBp3LsLdjLizNfNMEUBkOUCMVl9yXwhf35HlgDVE3UFkc40XFPnPoEj53yWJX9L5zzAllpWewv2s+qPasC9jnKzAmI+OLyL7h54M1MuW4K9554L78d/Ft6t7JCxZXwH2zFZRXTeS3SW9CqSSv2Fe7ztVWO9ANr8r+h4CjcotIiSstLmbdtHmlPpPHNqm98lqeD1xbS1Z9ezR1f3eF7ATAYDHVLKC67I/23RWQgcGvUJIoBWjVpBUCnZp2CrhO6/djbeWX2K7y94G2W7VoGQLum7diev53DWx8ecOy5h53LuYedC8CwrsMA6NGiB31e6OPqTbukvMT3vWVaS1qltwrYv79oP02TmwYsnN2et52uzbuG3VcojJ03luM6HUef1n3q5Hq7D+6mTdM2pD2RxqndT2VYF2vMJq6eSIIEvj95rZB+3PgjAAUl3lpmBkNjIex6SKo6Bzg2CrLEDHefcDevnPcKVx11FQBvnP8Gj5/yeMAxjnUza8ssmqc1p0uW5cW8aeBNtV7fiXxz47Lzt5CapTbzKc9uzbvRv11/gCrKZ2tedFIPlpWXccP4G/jH9H9EfB2HbXnbfBbdpLWTfIuQkxKS2J63PeA8rxWSY4n6W6SV+WbVN7w0s2qEpsFgqJ1aLaRKGRsSgIHAzmoOjwtSk1K5edDNvu1rB1xbJThh3b51vu+9Wvbiw4s/ZMXuFXRq1qnW6wt2tgsXLruSsgoLaV/hPp+F1DGzI7cOupVrPruGrlldWbJzie+4bXnbwu4nGHd9cxezts7yzY3tLthNuZZXiSIMF3+r76MlH/Ho1EerHLMxd2OVrOteWirF5RUvAjUppJHvjaSkvIQeLXpw5qFneiCZwRA/hGIhZfp9UrHmlOokllhEXheRHU7xP7utpYhMFJGV9s8WfvvuE5FVIrJcRM70ax8kIgvtfc+JbYKISKqIfGC3/yIi3dzKWtk15h800KtVL7o278rpPU8P6VqO68mNy664rJghnYfw0LCH+OOQP/oW1w7rOoxL+13KncfdydVHXQ1Aoli59yLNML774G425W7in7/8M0Ax78y33ksiVkh+SrayMkpLSqNHix6s2buGXQd3Bezz0kLaUlCRzHZf4T4enPQgV31yVcDY5hXn+ZSrs3jXYDCETigKaYmqPmJ/nlDVd4ARddT/G8BZldpGA9+rai+sIIrRACJyBFZhwL72OS+K2E9ceAm4Behlf5xr3gjsVdVDgX8Af3UrqOMac7i2/7W+76GGiTtE4rIrKS+hSXITHjnlETo260iz1GYAXNr3UlISU/jHWf/g6PZHA5Yb79r+1/Ly7JerPMzD4dB/H0rnf1Qs4nUUqbOealveNt+aLDc4D3H/kHaHPw35E0e2PZJfNv+Cor77BW8V0uaCityAewv38sS0J3hn4Tuc/c7ZzNoyC4DpG6f7jqmtDInBYKhKKArpvhDbwkZVpwKVw8LOB8ba38cCF/i1v6+qRaq6FlgFDBaR9kAzVZ2u1pPyzUrnONf6CDjNsZ7CpWV6y4Dt/53/P+4fej8AyQnJYV0rEpddcVlxQH+PnfIY066fRv9D+vvaujfvzqD2g3h1xKsM6TzEd55bKruoHEXgWEgQmZXkWEjdmncLaH/xnBd5cNiDnNz1ZF+bf6Sdl2Hf/gqp8ng468qW7loKWIuXc4vjJ+zeYPCKmrJ9nw2cA3QUkef8djUjuhVj26nqVgBV3SoizqKgjoB/XplNdluJ/b1yu3PORvtapSKyH2iFta4qLJxccWcdahlfIsJNA2/inYXvhBTI4E+kLjv/fG+ZqZkM7TI04JjUpFRm3WK9tTsJYN1YY/P2zWPzgqpZw3cX7CY9OT0gsevyXcsZ3HFw2H1AhYXUMbOjL2oR4NZjbiVBErjz+Du59ZhbmbJuCgt3LGTetnmAxxZS4WZaprckURL564+BhrYTlLF6z2oyUjLo3rw7by94m32F+/j8ss8pLS8NKUefwdDYqSmoYQswCxgJzPZrPwDcFU2hqiGYZaM1tNd0TuCFRW7BcvnRpk0bcnJyggrw+ZDPrQJ+fvvfGPAGGxdsZCOhZ9feXmhFiy1ZtoSc/cH7qo79B/azr3xftTJWZvlWy3L56aefaJvWtpajA7lr/l0wv2r7t9O+ZVXeKl5b/hoACSTw7Zxv6bw3/Nx8UDE/k3Sw4s/xX/3/xdQpUwOOSyedbVsqAjSWrV5Gjua46jNcNudtpnVia1bkraiyb/qc6SRuSGTmqpm0S26HFlp/YhNWTuCi/17E+K3jeXfwu2GPf6ySl5cX8t9fvGPGom6pKdv3fGC+iLyjqtG0iCqzXUTa29ZRe8AJrdoE+D/xOmEpzU3298rt/udsEpEkIIuqLkJU9RXgFYDevXtrdnZ23d1NEDbu3wi/QO/evckeGF5fSQuS6HhIR0KVcc3cNbACjj/heF9oeshMCd7c/YjuLF5RUZG2Z8ueFGYUhixTZZbvWg4z4JjDjmHCdsvq+t0Fvwt67OYFm8Eu4tu6fWvXfYZLwZwCurbtGlQhdenVhez+2exbvI+jOh9FQWkBi3IXUaIlfLrlUwAWpizkseyqi6wbIjk5OZ6Ne6xjxqJuqXYOSUTG2V/nisiCyp8oyjQecCIGrgU+92u/zI6c644VvDDDdu8dEJHj7fmhayqd41zrImCSxkDel0hcdiXlJWG5f5y+3LjsqmNPwR4W77QU0vm9z6dP6z4s2L7AdUodf5ddbVx0xEXcfsztJCUkeRr2nV+WT1ZaVtB9B4oOUK7lrN23lp4tepKZklnlmD0FeygrL2Py2snkFuXy+NTHG1QGDYPBC2py2f3e/nletDoXkfeAbKC1iGwCHgaeAsaJyI3ABuBiAFVdbCvJJVhzWHeoqrOichRWxF46VlojJ7XRa8BbIrIKyzK6LFr3Eg6RLowNJ4jCF0BRh3p4d8FuZm+dzU1H38SrI1/lv3P+y83/dzOPT32cAYcMYETv8IIwnaCGdhntaj02NSmVF859gQmrJ3Cw1Ls5pPzSfJqlNGPRqEWc8fYZvvIfYJUl+WnTTxSWFtIlq0vQ8vH7i/bz8uyXueOrO3xh7BkpGdx5/J2e3YPBEOvU5LJzAgvWV3dMpKjq5dXsOq2a458AngjSPgvoF6S9EFuhxRKRRtmFYyH5Ss676EsQ33kt0lr4HrSjvhwFwKAOVpmN6wZcx6NTHuWhnIesvh4Ory/HQkpNDL2ce2pSqi/pqhfkleaRlZZF37Z9mX/bfF6c+SIP5zwMWIuknYXSHTI7sGJ3VbdeblGuLwjEScj71cqvjEIyGPyoyWV3QERy/T4H/H96KWS8EZHLrsw7l12TRKv20ovnvOgLyXaiDQEGth/oazuxy4lhX9/BsZCSE5P54fofWP271bWcEagso01peSmF5YVkpVouu9ZNWvPQyQ+xf3TVtVcdm3UMyDzhsGTnEiaunkjnZhXToE60oMFgsKhWIalqpqo28/tk+v/0Ush4oyG47FSVwvJC7h96P6OOHcW5vawEsT9cX5Gp4ci2FXl3r+h3RVjX98dZI5WSmMKJXU6sktU7GAmS4FkZCCcrR+U5JP9Fug4dMjv47icjJcPXvnrvasq1nCnXTeH7a77nhgE3sKdgT8A9vL/ofW74/AbfuiaDobERUnJVERkoIr8Tkd+KyNHRFireiSiXXZhBDW5ddkVlRZRpme+hOiZ7DJOvncxxnY7j3hPv5dxe5waUDx/RewQXHXFR2FkroMJlF5aiFanTQI2acLJQOBZSTRyScYjvfgYcMgCAQ1se6tvu3qI7p3Y/lX5t+1GmZewvqrCyLv/4cv4373/M3RrX9S8DmLp+Kk2eaFIlT6GhcRJKctWHsOZhPrGb3hCRD1X18RpOM9SAW5ddWXkZ5VpOcmLoD263LjvnLT0z1YoYS0xIJLtbNgBPDX8q6Dkt01q6S4fk57ILFS9ddo7SqC7Kzp+UxBRapllZPW4ddCsjDhvB6j2rWbVnla+aL1Skotp1cBfN05oH5PPz6r5igfu/v5+C0gLmbp1rktEaaldIwOXA0XaAACLyFDAHMArJJW5dds6bd1gWkkuXnZOLzd/tVBsJkuDa6oPwLCQvXXahWEhn9DyDRTusHMFPnPYEvVr14oojryBBEhj93WgAOmR08B3fuklrwFJId3x1B9+u/ta3LwZWJnjGxlxrQXkkqa0M8UMoCmkdkAY4iyZSgdpnnQ3V4tZl5/zThuvactOXYyGFo5DcutFcWUgeuuyqm0MCGHvBWLYc2MLooaN9bRkpGfxm8G982070oH8+RCd7/A8bfghQRlC3a8ZinU25VtavSJL/GuKHUBRSEbBYRCZipd05HfjByW+nqsGX1Buqxa3Lzn/yP9y+wn3IHSi2LKRgizyrQ5CIquCGbSF57bILYiFd0/+aWs93cu41TWnqa3Ncdm8teKvK8Y3FZbd6z2rf36VRSAYITSF9an8ccqIjSuPBtcuuzDuXnRsLya2ScKNoBe8sJGe9U7By9qHglJP3H0vHZbdg+wLaNm0bMKnfGCykDxZ9wITVE0iQBMq1vN4VUrmW8+7CdxnZe2TQ6EmDN9SqkFR1bG3HGMIjYpddmK4tN301BJedV3Mtztg51ma4nNr9VF6a9RIndDrB15aVmkWiJFKmZQztMpRPln7i2xfvc0gHSw5y2cdW0pRTup3C8t3L2Z6/nZKyEhITEvnLtL9QVFrEY6d6l/tv4faFXP3p1bRKb8WOe3a4/l0bIqPWUReR80RkrojsMQtj6wbXUXZ2pqREX13C0PsKV1G4sQrcBhq4ddl5ZUk4/UjQ5PG1c9ERF7H33r2+zBZgKdRerXoBgeu5/PuLV/zraJ3W/TSaJjdl7PyxZD2VxSUfXsKfJ/+Zx6c9zra8bTVcpW5xXNS7C3bz3C/PVXucqvLewvfIL873SrRGRSivAf/ESlDayiyMrRvcuuych304NQZdL4y1rYJwHsJu3WixHvbtjF0kb83N05pXaevTug9AQPYGiP85JKfSMMCJXU5k5R4rfXthaSEfL/3Yt8/faow2zjxfVmoWd024i2nrpwU97pfNv3DFJ1dw5zd3eiZbYyKU/7CNwKJYyJIdL7h12blSEi5ddq6Un7hTErEe9u2zkNwVG66Wv5/xd4b3GM7I3iOD9hdPLNm5hDPeOoN9hft8FtIDJz3AyV1P5uxDzwbgH2f+A7A8AN2bd+f7td97Jp+jkD677DMAPlzyIamPp/Lm/DfZnFtRpNJZDrF893IenPQge4qrVLMxREAoQQ1/Ar4SkSlYEXcAqOrfoyZVnOPWZefmTd2ty86N8nPtsovxsG83YxEK3Vt0Z+LVE6u0x6NCen7G80xcM5HX5rxGm6ZtALh+wPWICJ9e+inFZcXM3mrVAS3TMk7udjJfrPgCVa3zF4FgOKVM2me0p2NmR/49498AXPuZVb2m+MFikhOTfYpr2oZpTNswjeNbHs+FZ1wYdfkaC6E82Z4ADmKtRcr0+xhc4tZl5+ZN3a3LzukrHOXn1mXnZn2Vl2HfbsYiXMacPMaXuDYenRFO+qSJaybyr1/+BeBTTKlJqWSmZvrm0lqlt2Jo56HsOrjL586LNo6iaZLchMPbHF5l/weLPwCsulb+7CvZF3XZGhOh/Ie1VNULVfVhVX3E+URdsjjGuOwCKSkvIUESSEwIPVjDy7BvN2MRLg9nP8wvN/0CxKeF5ATJTFg9gTlb5wBV17i1atKKZ05/hu+v+Z62Ta1y746LLNr4K6QjWh9RZf81n17Dwu0L2V2wO6C9uLwiw0RuUS6T106OrqAuWbVnlU+23KJcbv/yds/GNhxCUUjficgZUZekEeHajebiwdhQXHbhWEfQsMK+Q8Xnyo3DoAZnLZY/wf6O/zjkj/Q/pH9UKh3XhL9CuvDwqi44RRn15Sh2HwxUSP6lRm794lZOffNUNu7fGF1hXdDr37049c1TAXj2p2d5adZL/GfWf+pZqqqE8h92B/CNiBSYsO+6wWe1eBT55qovlxF9rqLsykvCmj+C+nHZ1fUcUmWc68ejheQ88B2OandUjcfXl0JKS0rj5G4nc8vAW3z7HjjpAVqktWBr3tYqLjt/C2nVnlWAFcARq6iqL2S9tLyUN+a9QVl5WS1neUetCskO805Q1XQT9l03uHXZuZrXceuyc2EVuFUS5VoetvVRHy47zyykOJxDyi/Op13TduTfn0/pn0uZd+u8Go93xsJZexdtDpYcJD0p3ff/8vKIl31zep2bdWbUMaNYs3cNr8x5JeC83NKKd/N2TdsBsHDHQk9kdkNuUS6l5aUAjJ0/lus/v56XZr3k6lpbDmyh74t9GfTKoDr7mw0lys6HiPQELgMuV9UqJcMNoeHlOiS3b5purAK3kW+qGvbDPh7CvisTSeHGWCe/JJ+mKU1pktwkpOPrw0KqLJvz95WZmllt0ciCsgLyivPISMnwybpg+4LoChsGX638ivnb5vu2n/3pWX7YaBXZ3HJgCwCbczezdu9aurfoHta1H5/6uM8aLCgtqBN5Q8nU0F5E7hKRGcBiLCV2eZ303ohxk4i0Ibjs3CiJci0P2x1WH2HfZg7JPcEe+DXhuUIqrV6+ZqnN6NSsk2+7V8teAftnbp5JuZb7Fvwu2bmE3Qd3s2jHonovq3Huu+dy/6T7fduPT3vcF1TizOt9sPgDejzXgwmrJrB+33q+W/NdSNf+vxX/5/u+r3Bfnchb7X+YiNwsIpOAKUAr4CZgqx1lF7s2aQPBTUSa28g38Caiz63LTgl/rYmXmRrMHFLk5Jfk0zS5ae0H2jgRl/VqIdl/X5kpmRzX6Tj6tunLhKsmsGBUoAV06pun8udJf/Yt+J29dTatn2nNkS8dyWNTAvPx5RXn8duvfsviHYujeDeh4Yzt2n1rAVizdw1DXh/C6W+dTrmWM+qLUbwx742g55aWl7L1wFYOa3UYAHsL9taJTDW98r0AJAJXqOqDqroA4vDVrZ5wk4vN7bwOuHcPupqvcmGNxbLLzswhRU5+cX5A+Y3a8NpCKigpqNZl1yy1Gc3TmrPo9kWc0fMM0pLS+PiSj7l/aIXl8cb8NwJSIjks3bU0YPuOr+7g+ZnP1zpvM3ntZD5d+mmNx9Q1K3av8Lnxft70M/+Z/R+u//z6oMduz9tOmZbRr601cxN1CwnoALwP/F1ElovIY0B4oVCGanHj3nI1rxPhwlg381VugjVi2WVn5pAiJ78kP7ZddjVZSKlV8wBcePiF/PqIX/u2txzYwsGSgxzb4diA49pntA/YzlmXA9Qe+HDqm6dy4Tgr/DyvOM+Tl5R//vLPiu8/V3x3slX44xRWdBYz7y2MsoWkqrtU9SVVHQacBuwHdojIUhH5S5303oiJR5edW5eTG5edl2HfZg4pcg6WHAzLZRcLCsmhuiKVLdJaVGk7tfupAds/b/6ZZbuWoarcO/FeNuzfAMCsLbMYO28sT057kr9Prz4L2/p962n/t/bc+sWtod5KnfDhkg9939+c/yaLdyzmnz//k3u+vYf/zf2fTyF5aSH5UNVNqvqsqg4CLsAvp53BHZG47MKd1wGPMot76LLzMuzbzCFFTn5xeHNIsaSQqivY55/B/ZnTn2HN79bwSPYjXHnklUy9birdm3dn1pZZHP7C4azfv56nf3oagKuPupqDJQe57vPruH/S/dz97d2cOtaahyooKWD6xum+6/5l2l/IK87j1TmvBiR5dcuwrsPYd+8+X0LfjpkdeXr400GPPfvQsxl1zCgAssdmc9eEu3h2+rPcMP4Glu9eDlRYSFd/enXEskGICskfVV1uUgdFjqsoOzfzOhGWn3AzX+WVy87MITUcnLDvUPF8Dqm0gLSktIC2767+jsv7XV6l3SErraKk/d0n3E33Ft1JTUrl7Qvf5qSuJ/ny9wEB2Rv+dOKfqlxr8rrJPD7tca769CqGvD7E1+6/7ml/0f7wb8yP0SeO5psrvyErLYs2Taw8gjccfQP3nHhP0OMHdxzMi+e+SL+2/dh1cBfdmnfj0r6XAvCvX/5Fy/SW1YbDu8WURawn3LjsXCVXdemyi2S+yiuXnZlDaji4Dfv2KotAWXmZbyGsw2k9TuPdX79b7e/d/wUl2DH+xS3X7F0DwP/O/x/92vbjmA7HBBw78+aZ3Hj0jUFrQDlptcL9u6g8dj1a9CA9OR2Ae0+8l9dHvs59Q+8DKmpzAbRu0hrANx824JABAAxsP5BHsi1bZEf+Dv405E9hZ1ipDaOQ6ol4dNlFUlbDjcvO6zmkaLvs4nUOqbS8lOKy4ph22bnJFlIb/slLf9lsJc69+IiLAfjxhh85vLWVVfzjSz7mmA7H8NgpwUu2D+s6zCdjOOQV5wVsZ6Rk+L73atWL64++3qegplw3hTN6WilLf3Psb1h2xzLO6XUOAH1aWcqqbZO29GzZ03eNUceOCkueUAjpNyAiHUVkiIgMcz51LknVPteJyEIRmScis+y2liIyUURW2j9b+B1/n4issiMCz/RrH2RfZ5WIPCdeFFcJgUhcdjFbMdZtWQ3Cd9nFZaaGOJ1DclPvKlG8XYcUDYWUW1SRVujHjT/SIq2Fz22Zkpjic/kdknEIAO0z27P7T7t9QRQndDoBgJO7ngyEby06ZdkdanKZtm3alsEdBvu2e7fu7ft779a8GwAdm3UkKSGJEYeN4LeDf+ubW7vx6Bt58KQHw5KtOmpNHSQifwUuBZYAzogoMLVOJKiZU1R1l9/2aOB7VX1KREbb2/eKyBFYKY36YoWrfycih6lqGfAScAvwM/AVcBbwtQey14irKLt6KD/har7KRV9hL4z1MlODatStI4jfOSQ3ORgbioX0zuB3OGnISUH3ndTlJOZumwvAwu0LqySUfX3k6zw+7fEA913L9JYc2vJQ5m6by2OnPEa35t1YvHOxT8ZwqFxeojYL1XFZOrnuHC7rdxkFpQVcfZQVuDD+8vEB+/878r8APM7jYckXjFB+AxcAvVX1HFUdYX9G1nZSlDgfGGt/H2vL5rS/r6pFqroWWAUMFpH2QDNVnW6XYH/T75x6xY3Lzst/7IjWIbmwxlwtjPUwU4MXCile55C8XNDtFrcKqUN6BzpndQ6675kznmHWzbMAawwqH3d4m8N558J3SElMCWh3LJkESaBny56ux8LfQoPAqMBgOBZs5YS2iQmJ3DTwpoA5sWgRSnLVNVgLYr0O9VbgWxFR4GVVfQVop6pbAVR1q4i0tY/tiGUBOWyy20rs75XbAxCRW7CsKNq0aUNOTk4d30pVykrL2LRpU1h9LdhnpSxZsGAByRtDc38sP7Dcd07Gloxajq5g1UYrlf4P036gSVJok9GrN64GYMq0KWQkhd7X1q1bKSosCmssdu7YSX5+vie/q3Xr1yFI1PvaU2yVNli+Yjk5edHtKxLy8vLCGov8Uitn2prVa8gpDu289fnrAVi4eCFtdrYJV8SwKSwqZNvWbWH/jkMZi8ykTA6UHiAhLyGk61/b5lpy9+dSuKaQnPU5LN5tWUgzZ88kf2XVulLVMXvv7IDtrUu2krOi+v6PKj2K7DbZHFd+nCf/V8EIRSEdBOaJyPf4KSVV/V3UpLI4UVW32Epnoogsq+HYYK+vWkN7YIOl7F4B6N27t2ZnZ7sQNzxSZqTQoWMHwukrYX0CzIcB/QeQ3SO085ptbQZzoG+/vmT3Cb2vmT/OhDUwbNiwgMnQmpj38zxYA0OHDq31bcyf/+75L+kl6WGNxcu7X2ZT2aawznHLhNIJJGxKiHpf2/O2w3Q4tNehZB8b3b4iIScnJ6yx2Fe4D36Ew3odRvbxoZ23fNdymAWHH3442UeG3pdbkmYl0bFDx7B/x6GMRY9lPZi/fT7H9zme7JNqv3422dzETb7tolVFsAgGHD2AIZ2H1HBmIPkr8sEv7d55w8+r9ZxQjokmoSik8fbHU1R1i/1zh4h8CgwGtotIe9s6ag/ssA/fBPjbw52ALXZ7pyDt9Y6bOZCIIt88qIfkdlLejbukPgr0RZt4n0PyIjrULW7cxqHSJasL87fPp0tWF1fnR+p2b0iEUqBvLPAeMNv+vGu3RQ0RaSoimc534AxgEZZidBIrXQt8bn8fD1wmIqki0h3oBcyw3XsHROR4O7ruGr9z6pVIyk94sTDWbT0kN30p4QcNeFqgL4oPK3/idg7JRYBMQ5lDCoXOzax35ermmmqjMSmkUKLssrECCNZhucA6i8i1qhrNKLt2wKf2P2gSlhL8RkRmAuNE5EZgA3AxgKouFpFxWJGApcAddoQdwCjgDSAdK7qu3iPswN0bfiRKIqatsRjP9u1VUEO8rkOKJBjHq4qx0VRIjmXkKKZwcVuKwzn+vqH3cW3/qglSY5FQXHZ/A85Q1eUAInIYlsU0KFpCqeoaoH+Q9t1YiV6DnfME8ESQ9llAzFW3bSguOy8yNZRreeyHfXuwfC1e1yHFc9h3KFx11FUkJiT61vOEi9usFc7YXd7vcnq37u2qb68J5TeQ7CgjAFVdgSlDETFxWTHWY5ddvIV9x/scUjgPfK8L9EVTIXVs1pE/Dvmj65cat8rZsS69cDfXFaFYSLNE5DXgLXv7Sqy5JEMEuHHZRVI0z8s1T/HmsnOjMN0Qr3NIkaxp81IhxUgSlypEOofkKPeGQCgKaRRwB/A7rDmkqcCL0RSqMeDG5eRl0byYd9l5XH7Ci4dVvM4hxfPCWC9wm0bJzUtlfVOrQlLVIuDv9sdQR7hxOcW6yy6STA2uctl5lVxVlQQP8hCbOaQKPA/7dmGle4XbAI+4UkgiMk5VLxGRhQRfTHpUkNMMIeLG5RTJvI4XmcUjiegLO9t3PZQwjzZmDqkCYyFVEKnLLlbvKxg1WUi/t3/W79LdOMVVlF0E5Sc8KZfuMrmqW5edl3NIZh2SexrCwth4VEhOVF6s3lcwqpXUyRkH3K6q6/0/wO3eiBe/uHLZeVgx1k1kmdcuO0/nkMw6JNcYCykyIl2HFKv3FYxQJD09SNvZdS1IY8ONyy6SirGuqri6KCvuqi+XLjsv55DMOiT3RJKpwauKsbGskCJdh+QERTQEappDGoVlCfUQEb8UfWQCP0ZbsHinobjswsFtX25cdnGdqcHMIXlqIamqZ25ZN5g5JIt3sdLsPIlVCM/hgKruiapUjYBIXHZeVYx1U1YcPLLGPM5lZ9YhucfVwlgPK8Z6VaLeLUYhAaq6H9gPXA5gl4FIAzJEJENVN3gjYnziKsrOTXLVCBbGunXZuYkejPVs31667OJ1DilWF8a6cSl6SWNah1SrpCIyQkRWAmuBKVhJVmMiQWlDJqKFscZl520uO2MhRUSsL4yN9Qe323VIDTF1UCiSPg4cD6xQ1e5YyU3NHFKENASXnZtQbPDOZRdvc0jg7dyYV8T6HFJDUUiNIXVQKL+BEjvLdoKIJKjqZGBAdMWKfyJx2Xm2WDXM7ASuw75j3GXnVZQdeDs35hVGIUWGmUMKZJ+IZGDlsHtHRHZg1RwyREAk5Se8SHjq5kEQ0XxVjLvsvEgdBN4qWq9w82D00n0Z6w9usw4pkPOBAuAu4BtgNTAimkI1Bty47FytQ6oHl52bHH2uctl56LLzCi8VrVe4mfsE7xY/x/qDO9J1SLF6X8EIJblqvt9mVEuXNyYagsvOs0wNbhbGehn27WHizXicQ3IbxZYgCZ5UjHXzoucljSl1UE0LYw8QmFRV7G0BVFWbRVm2uKYhVIz1KlNDuZaHPfHqZaYGL4MazBxSBcZCsmhMYd81rUPK9FKQxkasl59wm/AUvHPZeRr27dHbs5lDqiBREj1dGBurD+6Io+waUOqgkH4DIjJURK63v7cWke7RFSv+iaT8hBeTw5G47DzJZRenYd9xPYfkIj2UsZAaVz2kUBbGPgzcC9xnN6UAb0dTqMZAQ6gY61WmBte57LwM+zbrkFzj1gIxCskiUgspVufGghHKb+BXwEggH0BVt2AlWDVEQKy77LzM1OAqb57HBfrMOiT3mDmkyIgk7DtW76k6QpG2WK2nkwKISNPoitQ4iPWKsW7+mN1mavCy9pIbvEodBGYOyR+jkCxcR9lpWczeU3WEIu04EXkZaC4iNwPfAa9GV6z4J5LyE14sjPXSZecmE4KXiUjNHFJkGIUUGZGsQ2pIAQ1QyzoksZ4SHwB9gFygN/CQqk70QLa4JqKFscZlF6j8oqwrzDqkyGgoC2PjsfxErCrZ6qhRIamqishnqjoIMEqoDol1l52XyVUjctl5ZCF5RTzOIUW0MNaDirHxXH4iVu+pOkKR9mcROTbqkjQyGkLFWC+Tq3ql/NzgZTVRM4dUgXHZWTQmCykUaU8BpovIahFZICILK5U0j3lE5CwRWS4iq0RkdO1nRJ9Iyk+EtQ4pgoWx4RKJNebmYQXeBDWYOaTIcL0wNsGbhbGxrpCc/6uw6yGVN7yghlDmkG4D1nsjTt0jIonAC8DpwCZgpoiMV9Ul9SmXG5edq+Sq9eCyc1Wgz6M0RW4w65AiI6KFsRiFBO6sxYZoIYUyh/QPew6poTIYWKWqawBE5H2sDOb1qpBEJGz/uKcuO5fpfMBE2UVCPM4hGZdd5LhJo+QmR2R9E0o9pJ9F5FhVnRl1aaJDR2Cj3/Ym4Dj/A0TkFuAWgDZt2pCTkxN1ofbv209peWlYfS3fshyA6dOn0zKlZUjnOGb+mrVryCkPva+tW7eCEpZ88/fNB2DO3DnoutAVRV5+HrvLd4fV19qNawGYMnUK6YnpIZ/nhj179lBeXu7J30VJcQlbtm3xpC+35OXlhSXfgl2Wh3/O7DnkrcgL+bziwmK2bt0a9bFYn285gJYuXUrO7vD6CncsXKOwdv3asPratHkTZSVlMf23VJlQFNIpwG0isg4rW4OT7fuoaApWhwR7tQ14WqrqK8ArAL1799bs7OyoC9VyQ0sKSwsJp68lM5fASjhxyIm0y2gX0jnlWg5ToWvXrmH19fre10nYnxDWOQnrE2A+9B/Qn+zuoZ+XviSdtq3bhtXXrJ9mwRoYOnQomanRTRzSfENzinYXhSWfW9LmpdGuXTtP+nJLTk5OWPLtW7YPFsPgYwcz4JABIZ/XZGET2rRrE/WxWLxjMcyCfn37kd03vL7CHQu3JP2YRKdOncLq670D75F6IDWm/5YqE4pCOjvqUkSXTUBnv+1OwJZ6ksWHVxVjvczA7TbyzY3Lzuuwb5OpwT2x7rKL9Wzf0HjmkGqVVlXXA82xqsSOAJrbbQ2FmUAvEekuIinAZcD4epbJu4qxkWRP8CpTg5uFsR6HfZtcdu5pKAtjY/nh7SbiMC5TB4nI74F3gLb2520R+W20BasrVLUU+A0wAVgKjFPVxfUrlXcVY53jvYiyc2u1RBJlF29h3/EYZRfrC2MbgkJyUz23IVpIobjsbgSOc0qZi8hfgenAv6MpWF2iql8BX9W3HP54VTEW3LmBXCmJenDZeRX27dU/tlmHVIGxkCpw67JraLnsQvkNCOCvmsuIevaw+CeS8hNu8r554bJzHfYdgcsu3lIHmTmkCryqGNsQFJLbsO9YvqdghGIh/Q/4RUQ+tbcvAF6LmkSNhIgWxnrksguXSEpdxHr5iXDTKLklnueQjIXknsYS1FCrQlLVv4tIDjAUyzK6XlXnRluweMdLl52IuzRFXlktrhbGepipwcsCffE4h9RQSpjHarZvcDefFlcKyU6o2lpVv1bVOcAcu32kiCSo6myvhIxHvKoYC5FZY+H2A9647LwM+/YydVA8ziGZEuaR42Ys4i3K7hmsqLTKLLH3GSLAq/ITEEGUnUf55bwMoHCDWYcUGbHusov18hNgh32HmdevIaYOquk30EpV11VuVNVVQKuoSdRIcPMm7PYf263Lzqv8cpG47DwrYW7WIbkm1hVSvFpIDdFlV5O0NSUIa1rXgjQ2Yt1lF0lyVVflJ9zWXorHTA3xOodkFsa6prHMIdUk7Xci8oRUejUUkUeASdEVK/6JdZedl4tV3QQNeJqpwaxDioiIFsaGuRjUDQ1FITUGC6mmKLu7gf8Cq0Rknt3WH5gF3BRlueIeryrGOn154UaLqDptjBfo8wozh1SBsZAqcLMOKa4K9NmZGS4XkR5AX7t5sVNXyBAZXlWMdY73wmXn1mqJ+QJ9Zh1SRERSMba4rDgaIgXQEBSSsZBsbAVklFAd41XFWHAZZefC8ogkuWrMF+gz65Bc01AsJK9+x25wm8suHlMHGaJAzLvsPFwbFOsuOy8VRDzOIcX6wlhTfiJ2aFjSxhGRuOxcJVd1E2hgXHa+Prxy2cXjHJJZGBs5bspPxKVCEpG3QmkzhEfMl59wYRVEkqkhlgv0KepZOmEzh1SBUUgVGAupgr7+GyKSCAyKjjiNh0gWxnqSy87DTA2R5M3zLOzbSwvJzCH5jjcKycLNOqS4Sh0kIveJyAHgKBHJFZED9vYO4HPPJIxT3Lrs3CzQdLvmyavkqqZAXwVxPYdkFsa6xnU9pHhJHaSqT6pqJvCMqjZT1Uz700pV7/NQxrjEdSi2i0ggtwtjw6U+XHZeTXp7GWUXrwrJVIx1j6mHVMH9InIhVvkJBaap6mdRlaoR4Lb8hJs39Xh22cVb6iA3lnOsE8n6OVN+wsLMIVXwAnAbsBBYBNwmIi9EVapGgNtcdm7+wNy67FwXzfPAZed12LexkNzjemGsRxVjG0K2b7frkGL5noIRioV0MtBP7d+aiIzFUk6GCHAdiu3WZRdm6vpIFqu6KnUR6wX6PJxDMkEN+I43c0gWbsK+G2LqoFCkXQ508dvuDCyIjjiNB7eh2K5ddl6sQ3KbqSGShbEehX17GWUXrxZSrC6MbQgKqbG47EKxkFoBS0Vkhr19LDBdRMYDqOrIaAkXz7ie13FhIblZbBnrLjuvC/R5uQ4p7uaQIlgYa7J9W7iOsmtgqYNCUUgPRV2KRohXodgQQcXYBuCy82oOyVhI7nEbNJCamGqSq9o0lnpIoSRXnQIgIs38j1fVPVGUK+7xqkYRuHPZRWQhxZnLzhToiwxn/MJ96UhNSqWwtDBKUlXQEBSSCfu2EZFbgMeAAqAcy3mhQI/oihbfxLrLzsv8crHusvO0hHmcLox182BMS0ozCsnGzCFVcA/QV1V3RVuYxoRXodjgvcvOC0XrdYE+Ty2kOJtDchsdmpaURlFpURQkCqShlJ8IO8ounlIH+bEaOBhtQRobbpWEqzkkly67cPHSZedpgT4P1yHFY3JVt3OfaUlplJSXRD1bQ0MpP9EY1iGFIu19wE8i8rKIPOd8oiWQiIwRkc0iMs/+nOO37z4RWSUiy0XkTL/2QSKy0N73nNhPDxFJFZEP7PZfRKRbtOQOFzcuO7dvmq6i7FyEOrvO1BBBdVozhxT7ROKyAygqi66V1BBcdsmJyWEHeDTEXHahuOxeBiZhLYb16tXtH6r6rH+DiBwBXIaVfbwD8J2IHKaqZcBLwC3Az8BXwFnA18CNwF5VPVRELgP+Clzq0T3USKy77NyEjLpREpHUePI/P5p4WsLczCH5cBRSYWkhTZKb1LVYPhqCQspKzSK3KDescxqihRSKQipV1T9EXZLaOR94X1WLgLUisgoYLCLrgGaqOh1ARN4ELsBSSOcDY+zzPwKeFxHRGHgF9WpeB7x32YVzX27dJV5navBqHVLcziG5GEB/hRRNGoJCap7WnH2F+8I6x8vCknVFKAppsh1p93+Az3aOctj3b0TkGmAWcLeq7gU6YllADpvsthL7e+V27J8bbXlLRWQ/1kLfgAAN+/5uAWjTpg05OTl1fT9V2LRpE6VlpWH1tWnzJkpLwjsHoOBgATt27gjrvNwDuWQlZoV1Tn5pPgCrVq0ipyi08xy/+Lp168jR0PtasNdKFjJn7hzK1kZ3jqGkpMTVuLth185dHDh4wJO+3JKXlxeWfBs2bkDLNex7WrttLQA5P+TQIb1DWOeGw/LNywGY/tN0spKzwjo33LFwy96tezlYcpCJkyaSnJAc0jkFhQVs37Y9pv+WKhOKQrrC/ulfciKisG8R+Q44JMiuB7Dcb4/ZfTwG/A24geDvqFpDO7Xsq2hQfQV4BaB3796anZ1d8w3UAV8Uf0HCjgTC6Wtc/jhS96WGdQ5AxtIMWrVsFdZ5GcszSC5ODuucvOI8+BF69OxB9pDQzispK4Gp0LN7T7KHhd6XrlVYAP0H9Ce7W+jnuSHx50RSk8Mfdze029mOnTt2etKXW3JycsKS77PCz0jeFd7fEsCOxTtgOQw4ZgBHtDkiPCHDYMEvC2AVnDT0JFqmtwzr3HDHwi2LZiyCdTDguAG0adompHOSZiXRsUPHmP5bqkwoC2O713Wnqjo8lONE5FXgC3tzE1YePYdOwBa7vVOQdv9zNolIEpAFxMSCXtcLY71y2XmUqSGSPGfgXdi3V5g5pAqCueymrJvCYa0Oo31m+4BjZ2yeQedmnau0hyofxHb5ieZpzQHYV7gvZIXUEIMaav0rEZFkEfmdiHxkf34jIqHZjC4QEf+/qF9hlbwAGA9cZkfOdQd6ATNUdStwQESOt6PrrqGiou144Fr7+0XApFiYPwKXC2MjqRgbo1VcHbm8WoTrBrdhy26I1zmkulBIU9dPJXtsNr/9+re+Y3Yf3M1Vn1zFcf89jqNfPpo9BXu45MNL2HUw9GWTDaH8hL9CCpV4DWp4CUgGXrS3r7bbboqSTE+LyAAs19o64FYAVV0sIuOAJUApcIcdYQcwCngDSMcKZvjabn8NeMsOgNiDFaUXE8R6xVivkqu6fRjEa9h3PK5DimRhLMD+wv3sLdjL63NfB2BT7ib2FuwlMzWTv0//O+8sfAeA7fnbeXnWy3y45EN6tujJk8OfDFk+MAopFghFIR2rqv39tieJyPxoCaSqV9ew7wngiSDts4B+QdoLgYvrVMA6wq2S8GxhrHHZ+fC6hHmMGPF1htu/29TEVABGvDeCMi3jvMPOAyyF1P5v7Tm8zeEM7x7o/U9OtJw3BaUFIfcTbwppT8EeHp3yKPkl+TF9T8EIRSGViUhPVV0NICI9gOjnhI9zXC+M9chl51Vy1YbgsvO6QF+8WEhj541lb+HeiF12TiTmFyus6eTNBzYDMG/bvCpZHJxUQwUlNSukOVvnsOXAFs4+9OwGr5AeyXmEXQd3cULnExjSeQhP/fAUL89+GYjtewpGKArpj1ih32uwota6AtdHVapGQKIkhp0SxUuXnVfJVd267Dwt0Ody7s4N8TSHdN3n1wFw09E3RaSQamLhjsDi1Q9OfhCAXQU1zyGd+PqJFJYW8tUVXzUohVR5bqyotIgxU8YA8PzM52mW2owTOp3g25+SmOKViHVCjb8BEUkE+mMFEPzO/vRW1ckeyBbXJCcmo2hYSslNih1w77ILtys38zpuXXZeF+gzuezc4zbJZzCFdPQhR/u++z94K7Nh/wbf93GLx3HFx1f4trflbfMFSmzYv6FBKKSmyU3p17YfT//0NDvzd/rat+dvDzgutyiXnQcr9h/a8lDPZKwLavwN2EEDI1W1SFUXqOp8O1OCIUKcxW0l5SUhn+PWFx/PLrt4Sx0Uj3NIewr2RJSpwZ8BhwzwfX/slMcC9v3m2N/4vq/YvYIxOWPYV7iPSz+6lPcWvcezPz3Lsa8eyweLPvAdty1vG58s+wSI7WzfIsJ/R/yXfYX7mLhmoq99W962KsfO2TrH9/3w1od7Il9dEYrL7icReR74AMh3GlV1TvWnGGrDmXwtKSsJyTUBEaxDcptZ3IPkqg3BZefpOqQ4tJA25m6sMwspK7Uik8Kp3U/loWEPsW7/OsrKy/jtcb/l+ZnPA5al8MiUR5i6fqrv+Hsm3gPArC2zAMtt/uaCN1mzdw0Q2xYSwDEdjqF5WnMmr53MFUdewe+//n1Ql9wFfS7gs2WfAXB4m/hTSEPsn4/6tSlwat2L03hw/pDCspA8dNm5zd8mhBesEesuO6/XqMTTHJLDhv0byEzJDPu8YAopMzWTNy94kxmbZyAiPHLKI759wf4WJq8LPrvQJasLzVKbsWjHIl9bLC+MBUhMSGRY12FMWT+FgpICnptRtejCut+vo2vzrrR6uhV7CvaEnXmivglFIV1sivPVPY7LLpyU8m7r8njlsoPwo8Tcuuy8Cvt2K59bEiQh6vV/okFecR6T105mRO8RnDr21ABX0q6DuwIsm1Dxf/t3XnQyUzK5uv/VXN2/6uqQBElgxk0zyFmXw5+++1ON1z6y7ZEUlhayCD+FFMMuO4fjOh7H+OXjWbVnVdD9h2RYGdkWjVoU1uLgWKHa1z4RGSEiO4EFIrJJRIZUd6whfPxddqHi2kJym1ncZV9hzSG5XRjrUdi32/IYbklPTvekbHddc+UnVzLy/ZEs2bmEyesms3TX0oD9blNeOTgP2szUmi2tYzsey1HtjqrSPuKwEUDFi2DL9Ja+azYkjulwDABXfXpV0P2pSdbarfaZ7Tmy3ZGeyVVX1PQUeAI4SVU7AL8GQlv2bAgJL4Ma3Jaf8MIai9RlF233ltd5zpokN+FgifsCzXsKvE/VWFJWwvjl4wH4YcMPQY9x6/L87NLPOLz14T4lE0oYc6smraq09W3TF8D3kB7YfiBds7o2uLDoQe0HAbBg+wJf2yV9L+GBkx5geI+QUoTGNDW57EpVdRmAqv4iIuE7gQ3V4sZCiqRirBfrkMB7l13ULSSPXXZNkptQUl5CSVmJ728kVOZsncOgVwbx/q/f59J+3tWh3JG/w/c9Z11O0GPcKqTz+5zP+X3O56bxVqay0vLSWs9p3aR1lTYnIel5vc7jqdOe4rQep7G/cD8X972YjJQMpm+c7ko+r2nVpBVPnvYk931vFV9Y8ZsV9GrVq56lqjtqUkhtReQP1W2r6t+jJ1b847yZhTWH1ABcduGGLUfqsov2HJJbC84tTmXUgtKCsBXSwu3WItEvVn4RdYW0Zu8a/jPrPzw1/KmA7AHfrv424LikhCRKy0sjDgpxPApuFNIZPc/g1kG3sm7fOu48/k5apLcAoEV6C9/3hrRe53fH/c6nkELN/N1QqEkhvQpk1rBtiAC3LjsvK8Z6ofzcPvDdKPRQ2Ve4j2apzQKUq5cWEsDBkoM0S20W1rnO/IEXc1CXfHgJs7fOpk2TNkzbMA2w3GKLdy4OOO6odkcxZ+ucsKudVmbUsaMYO3+sL59dTTRNbur7fuC+A6QkppCSmMJzZ1eNSmuI+JdzdxMsEstUq5BU9ZHq9hkix21Qg5s3zaSEJPLL82s/sFJfrpVfONm+XbrEMlIyAMgvCe++amN/4X46/6Mzz57+LLd9eRsvn/eyK/nckp6UDhAwj3TPt/dwUteTGNl7ZI3nOtZDKAppR/4OZm6eybmHnetrO/fdczmk6SG8dv5rtZ7vKBj/aLaB7QdWUUjHtD/GlzcuEo5qdxQHHwhtbk1E6JDZgcv6Xub7O4lXGkJkYDjE9kqwOMaNheR2Xic1MZWisvASbLjtKyUxJexQdgjfZec8aPKK88I6rzaW7lpKXnEe7y9+H4BnfnoG8N5l56+Qnp3+LOe/f36t5+YW5QIVCUb9mb5xOmXlZYxbPI4vV3zJGW+dwXnvnceWA1uYsXkGAF+t/IrX571OQUlBtUpt+a7ljF03Nujf08D2A6u0Des6rFa5o8HmP2zmb2f+rV769oLRJ47mV31+Vd9i1DmhrEMyRAFXc0guXXapSalBH1K19uVCIWWkZISlJNy67By3TF0rpGW7lgEVk/POeo/k6NWkDKCyQgrH/eYopMrn5KzL4ZSxp3DFkVfw7sJ3A/YNf3M4S3ctZekdFWHaw98azuwts3n69Kc5rNVhnHXoWYBlgfV5oU+1/QdTSN2adwtZfkPohFrrqaFhLKR6wst1SG4sJDfJVSF8heTWZZeYkEh6UnrECqnyJPnyXcurHNMxsyOntzs9on5CpbJCCiWMW1X5eMnH7D64G4ADxQd8+7Ye2MrcrXMBqigjwLde6JEpFR76nzb+RFFZEb//5vdc+MGFvnZHWVfHwPYDGdh+IOMuGufLENAkuQkD2w+kd6vetd6HwVCrhSQi7YC/AB1U9WwROQI4QVVrdzQbqsXLdUipid5ZSJkpmeEppAhS84Sr/CrzxNQneHDygxy474DPBbh8d1WFdOHhF9IsObwAA7dUVkiOkqmJKeuncNGHF/m2nWzQi3cspt9LVepWBuX9Re8HbB/f6Xg25W5ic+5m8ovzaZrStFaFlJGSwexbZgPw2NTH2FOwB0WZdfOsuJvrMESHUJ4CbwATgA729grgzijJ02jwch1SSmKKqzkkNxmuM1IyAt7QQ+kH3M3RRKKQyrXcVztn4/6NvvZgCqlP6+rdVHVNFYVUUKGQnAJ1ldlbsDdge3v+dkrLS9mYu7HKsdUp/h4tejCkc0Uylgt6X8BL576Eor7s0bUpJH/GXTyOS/peQt82fY0yMoRMKE+c1qo6DigHUNVSTMXYiHGVy86tyy4pNezwaK9ddnVpIb0+93USHkmoMeOBvxJy8q6VlZcFzRHWvXn3sGVzS00W0oj3RgQNqa9cE6e0vJRHpzzKsz89W+XY3w7+bZW2p057itW/W80P11dkWWjTtA3HdTwOQXwJSpftWkbnZp1Duo8+rfvwwUUf+ELRDYZQCOUpkC8irbAyfCMixwP7oypVI8BVtm+3QQ0euuxcBzXUYV9jcsagKJPXVs30PHbeWN5d+G5AEbNtedtYtWcVk9ZOClDcjmXUr21obq+6oCYLCWBz7uYq5/hnSnB4bOpjfL/2e9/2ayNf48LDL+T3x/3e1/btVd8ypPMQX+i3/99W26ZtadO0DSd0PoHPln1GSVkJOetyOLp9RYE8g6GuCUUh/QEYD/QUkR+BN4Gqr1mGsPA0qCHJCmoIt3Cel3NIdemyc1bqf7nyS1/b5tzN9Hm+D9d9fh1XfnJlQCbkiWsm0uvfvTjj7TOAirIHj2Y/Su7oXDpnhWYV1AW1zSGt3rsagEdyHuGE106gsLSQ7XmBFlJlvrziS244+gY+vuRj2mW087UP7zGcH2/4MajCbdu0LWC57uZum8vzM55n84HN3DLwFt8xiZIIwPo717P292vDvVWDoQq1BjWo6hwRORnojeXEWa6qoT9FDUHxOqjB6SvUZJJurbGMlAwOFIU+hxSpy65yxUxV9T20J62dxNsL3ubKI6/kwckPBswPXfvZtb7v/5v3v4Br9GzRk8U7F9OmaZtas0vXNY5Cuvvbu3l1zqtsPbA1YP+yXcvo0aIHY6aMASD9iXRaN2lNn9Z9fHM8LdNbBkTnndPrHN93Z+EtBH8JSE9Kp6C0wKeQnHVEf/j2D/Rq2Yuze53N24Pf5oTjT6BVupXENCstvrIFGOqPWp8CInIxkK6qi4ELgA9EpOqCA0NYeBnU4Pjxw3HbuV0Ym5GSQX5Jfsjpg+raZbflwBbfepzlu5dz9adX8+xPzzJt/bSA4xw3l5Oep1OzTpx96NmMu2gcHZt19F3fa/zz1y3btYz9RYHe8VFfjqLrP7sGtO06uItDMg7h/V+/z883/syWP2xhye1Lgl6/tr+f24+9HaiwkPxddHcefycJkkDH9I70aNGDrLQso4wMdUoor6V/VtUDIjIUOBMYC7wUXbHiHy+TqzoWUjiRdq5ddrZFUV1Awf7C/dz2xW0+N1OkLrsDxQf4ZtU3FJcVU67lrNu3DrAqgjp8uORDX3tlDm9tlXg+vtPxfHXlV1zc92JeH/k6Y04eE3Shp5d0zepa+0E27Zq249J+l3Jcp+NITUqtdUFqsJpBAE+f/jR7793rs9RSElM4p9c59Gndh1sG3RL0HIOhrghFITkRdecCL6nq50DDKiISg3iZXNWNhRRJUANUn0FhwuoJvDz7ZUa+b+Vli9Rlt+vgLs5+52yemPoEo78bzdD/DQXgiDZH+I6buWUmZVoRGPrnYX/2fb+s32UAtGlSkTW5Y7OOPJz9sGdlyyvz0cUfsfj2xVxx5BVAhZtt1DGjeOGcF3zHOX9DAB0yOwRcIz05neoofKCQWTfPCrovQRJontY8oG38ZeNZcNsCkhJMYhdDdAnlP26ziLwMXAJ8JSKpIZ5nqAEvk6vWZI1NWTeFSz+6tEq6GbfJVR2FVN08khNu7eRPi8Rl5x+O/fWqr31556CiIFsw/Pf9ZvBvGHPyGP50Ys0lr73k10f8miPaHMG5vazoN6fwWlpSWoDiPPjAQZ/1Gywc+8nTnuSDiz6o0p6alBpWaYvEhMSwS2EYDG4I5ZXnEuAs4FlV3Sci7YF7oitW/ON1clWo6rIrLisme2w2AA8Ne4i+bSse1G77ykyxXHbBLKTv1nzHHyf+0bedX5wfkcvu5kE3k1ecx3uL3mPmlpkB+4IpJKcaq39F0aSEJB7Ofjjsvr3gxC4nUvBAAVPXT+X/VvwfJ3U5yVe/ByzZnd9psEjA0UNHeyarwVAX1Pq6raoHVfUTYL+IdAGSgdCXbAdBRC4WkcUiUi4ix1Tad5+IrBKR5SJypl/7IBFZaO97TuwnmIikisgHdvsvItLN75xrRWSl/bmWGEJESJREisuK2X1wNwNfHsjSnUtrPKeuXXb+K/wr16tx67JzggT2F+3nXz//i+FvDqdcyykrL+P0twLzwW3P3x6Ryy4pIYl7TryHu46/q8q+yi4sqFCWLdNbsvSOpSz/TdWsDLFGWlIaZ/Q8g/V3rudXh//KF2xQmVAXrBoMsUwoUXYjRWQlsBaYYv/8OsJ+FwEXAlMr9XUEcBnQF8sqe1HEXuxgBVLcAvSyP2fZ7TcCe1X1UOAfwF/ta7UEHgaOAwYDD4tIxetlDJCSmEJJWQmfLP2Eudvm8tcf/1rj8XUd1OBEo0EQhRRGTSN/nDf4vQV7uXPCnXy/9nvOeeccmv+1eRXZd+TviMhl5+AfwOBwfKfj6da8G0+d9hRgJUh1lF6LtBb0ad2Hw1od5rpPr3Hu0d9l54+Xa6UMhmgRymvpY8DxwApV7Q4MB36MpFNVXaqqwV5PzwfeV9UiVV0LrAIG227CZqo6XS0fz5tYIejOOWPt7x8Bp9nW05nARFXdo6p7gYlUKLGYIDkxmZLyEvYWWpZKi7QKfTl361ye/vHpgONdr0OqxkLyV0iODGCl3iksLXTVl5Pl+S8//MXXNmH1BPKK81CU5IRk/nKqtW973vaIXHYOwRRSVloWa3+/liuPuhKAO469g6uOugogwGXX0HDG18GJpmvXtF2Qow2GhkUoT5wSVd0NJIhIgqpOBgZESZ6OgH9GyE12W0f7e+X2gHPsPHv7gVY1XCtmSE5IpqSsxOc6c0Kmc4tyGfjKQO797l7feplyLedA8QHXqYMAXpj5AjePv5n9hdbaFv81Lv4W0o3jbwTcWS2OUp21JXgU18eXfMzV/a8GInfZOTjrhoLRqVkntt69ldFDR/PkaU+y655dYZcGjyUSExIDtn+4/ge+v+b7Ku0GQ0MklKCGfSKSgeVee0dEdgCltZyDiHwHHBJk1wN26HjQ04K0aQ3tbs8J7FTkFix3IG3atCEnJ6ca8eoWLVPWb1pPsVrRb8vWLCNHcliVV5Hg8/2J73NU86N4dc2rzNk6hyMyjwhbvqW51tzUB4utiCvdq7y27jVOaHmC75i5S+eSczDwuiUlJWH3VVt6ot2rdrN0syXPz4t+pmyzFY69cOFCMrbU3ULUynIvi2zak7y8PM/+Lmrj6SOfpl1aO588CSSQsz7Hs/5jaSzqGzMWdUsoCul8oBC4C7gSyAIere0kVR3uQp5NgL8zvBOwxW7vFKTd/5xNIpJky7fHbs+udE5ONbK+ArwC0Lt3b83Ozg52WJ2TMS+DrDZZ/LLpFwCatWlGdnY2yRuSwSorQ5MuTcgemM2Fv1iF0oqSighXvubbmsPciu0NCRsAmL5nuq/t9XWv0/ewvgGWkiZq2H0BATOD9w29j2M6HMOvx/0agF+d9iuy0rJoMbMFTdo0YTGLAeh/VH+ye7noy2Z06WjaNm1Lp2adaJ7WnOye7q8VjJycHHdjEQWyA/6svSeWxqK+MWNRt4SSyy7fb3NstQfWDeOBd0Xk71j1l3oBM1S1TEQO2JnGfwGuAf7td861wHTgImCSqqqITAD+4hfIcAZwX5TlD4vkhOSAKp6OC82/npBTwdRxyQTL7FwbjsvOYer6qUGPu/vbuwO2c0tzgx4XDkO7DA2YiHfcZe0y2rE9fzsfLfkIiMxlB/Fb0tlgaEyEUjH2QqzItbZYbjABVFVdO+JF5FdYCqUN8KWIzFPVM1V1sYiMA5ZguQXvUPUtsR+FVSwwHSvKz4n0ew14S0RWYVlGl2EJuEdEHgOcBSqPqmrt9aA9pFOzTqzeu5oeLXrQpkkb39yOs4ZHED5b/hmHZFR4PsMpfudQuSZNqCmE9pdEVmXkvV+/xzm9zglI2+PMgbVt2pYF2xf42isXmTMYDI2PUFx2TwMjVLXmRTJhoKqfAp9Ws+8J4Ikg7bOAKnnyVbUQuLiaa70OvB6RsFFkUPtBTFk/haMPOZq84jxfpJujkE7pfgqT1k4KWEzqhsoWkj9pSWlVsjQ4RKqQzu99PhA8VLld03YBltrhbQ6PqC+DwdDwCcVPsr0ulZGhgl6tegHWAs+stCx25O9AVX1pd4Z3dzMNV5WaqnY2S21WJRHn0jusX3ekCsnJp+Yk6vTHP0x5xW9WMOCQARH1ZTAYGj7VWki2qw5gloh8AHwG+Hw9dvYGQwScdai1LOr2Y2/nrflvsW7fOpr+pSkFpQWAlcPs/kn3R9yP//qmREkMSDTaLLUZc2+dS2l5KS3+ah3nuAgLygpc9Tfluiks3rHYty0iPD38aQZ3HOxr8y8UV1tmaoPB0DioyWU3wu/7QaygAAcFjEKKkG7Nu6EPW2HSD0x6AMCnjACO6XAMC0ctZOr6qdzx1R2u+0lMSGRI5yH8tPEnerTowco9K337miQ38SVEXff7dRwsOUhWahb3nngvPQp6uOpvWNdhvsJuDvecGJj+0LGQ2jVtZxJ3GgwGoAaFpKrXeylIY+f+offzr1/+xQV9LmDUl6MAy7Lo17Yfm3M3A9A0uSnv/fo9V9f/6oqv+HLll4xbPI6Ve1bSq2UvVu5ZyYMnPeg7pmvzivo7Tw1/KqrrKxwlNKjDoKj1YTAYGhah5LLrISL/JyI7RWSHiHwuIt1rO88QHmf3OptvrvqGPq37VNl3es/T+ddZ/2LjXRsZ0XtEkLNrJystiyuOvMKXGeGWQbew4c4NXNw3aDxI1Dmpy0lAYG0ig8HQuAklyu5d4AXgV/b2ZcD7WElLDXVM+4z2VdoSJIHfHfe7Orl+abmVZKNlest6TcjZs2VPn7vSYDAYILQoO1HVt1S11P68TTUpeAyR0z6zqkKqSxyFVLkqqMFgMNQ3oVhIk0VkNJZVpMClWItZW4K1ADWK8jU6nJo90cJRSNHux2AwGMIlFIV0qf3z1krtN2ApKHehWIagRFKGIRQchWQi2wwGQ6wRSi47E8DgMROvnhiwdqgucSqOOqHeBoPBECuEYiEhIkOAbv7Hq+qbUZKp0TO8R91kaAjGy+e9zGndT2NQexNubTAYYotQkqu+BfQE5gHOEn+naquhgdEyvSW3HXNbfYthMBgMVQjFQjoGOEJrq7xmMBgMBkMEhBL2vYjglV8NBoPBYKgzQrGQWgNLRGQGgclVR0ZNKoPBYDA0OkJRSGOiLYTBYDAYDKGEfU/xQhCDwWAwNG5qqod0gOApgiIuYW4wGAwGQ2VqKj9hcssYDAaDwTNCibIzGAwGgyHqGIVkMBgMhpjAKCSDwWAwxARGIRkMBoMhJjAKyWAwGAwxgVFIBoPBYIgJjEIyGAwGQ0xgFJLBYDAYYgKjkAwGg8EQE9SLQhKRi0VksYiUi8gxfu3dRKRARObZn//47RskIgtFZJWIPCciYrenisgHdvsvItLN75xrRWSl/bnW05s0GAwGQ1jUl4W0CLgQmBpk32pVHWB//EubvgTcAvSyP2fZ7TcCe1X1UOAfwF8BRKQl8DBwHDAYeFhEWkTjZgwGg8EQOfWikFR1qaouD/V4EWkPNFPV6Xbl2jeBC+zd5wNj7e8fAafZ1tOZwERV3aOqe4GJVCgxg8FgMMQYodRD8pruIjIXyAUeVNVpQEdgk98xm+w27J8bAVS1VET2A63824OcE4CI3IJlfQEUiciiOrqXhk5rYFd9CxEjmLGowIxFBWYsKugd6QWippBE5DuClz5/QFU/r+a0rUAXVd0tIoOAz0SkL1bJi8o4pTGq21fTOYGNqq8Ar9hyz1LVY4Id19gwY1GBGYsKzFhUYMaiAhGZFek1oqaQVHW4i3OKsMukq+psEVkNHIZl3XTyO7QTsMX+vgnoDGwSkSQgC9hjt2dXOicnXJkMBoPB4A0xFfYtIm1EJNH+3gMreGGNqm4FDojI8fb80DWAY2WNB5wIuouASfY80wTgDBFpYQcznGG3GQwGgyEGqZc5JBH5FfBvoA3wpYjMU9UzgWHAoyJSCpQBt6nqHvu0UcAbQDrwtf0BeA14S0RWYVlGlwGo6h4ReQyYaR/3qN+1auKVSO8vjjBjUYEZiwrMWFRgxqKCiMdCLGPCYDAYDIb6JaZcdgaDwWBovBiFZDAYDIaYwCgkP0TkLBFZbqchGl3f8kQbEXldRHb4r7sSkZYiMtFOtzTRP7uFiNxnj81yETmzfqSODiLSWUQmi8hSO63V7+32RjceIpImIjNEZL49Fo/Y7Y1uLABEJFFE5orIF/Z2oxwHABFZZ6dwm+eEedfpeKiq+VjzaInAaqAHkALMB46ob7mifM/DgIHAIr+2p4HR9vfRwF/t70fYY5IKdLfHKrG+76EOx6I9MND+ngmssO+50Y0H1hq+DPt7MvALcHxjHAv7/v4AvAt8YW83ynGw73Ed0LpSW52Nh7GQKhgMrFLVNapaDLyPlZYoblHVqViRif74p2IaS2CKpvdVtUhV1wKrsMYsLlDVrao6x/5+AFiKldmj0Y2HWuTZm8n2R2mEYyEinYBzgf/6NTe6caiFOhsPo5AqCDnVUJzTTq11X9g/29rtjWZ87IzxR2NZBo1yPGw31TxgB1ZOyMY6Fv8E/gSU+7U1xnFwUOBbEZltp1yDOhyPWMxlV1+EnGqokdIoxkdEMoCPgTtVNdeuchL00CBtcTMeqloGDBCR5sCnItKvhsPjcixE5Dxgh1pZY7JDOSVIW4Mfh0qcqKpbRKQtMFFEltVwbNjjYSykCpwURA7+6YkaE9vt7OpOlvUddnvcj4+IJGMpo3dU9RO7udGOB4Cq7sNKuXUWjW8sTgRGisg6LBf+qSLyNo1vHHyo6hb75w7gUywXXJ2Nh1FIFcwEeolIdxFJwcr4ML6eZaoP/FMxXUtgiqbLxCqI2B0rrdOMepAvKtgpqV4Dlqrq3/12NbrxsFN4Nbe/pwPDgWU0srFQ1ftUtZOqdsN6HkxS1atoZOPgICJNRSTT+Y6Vjm0RdTke9R21EUsf4Bys6KrVWFnJ612mKN/ve1gZ1kuw3mZuxCrd8T2w0v7Z0u/4B+yxWQ6cXd/y1/FYDMVyJywA5tmfcxrjeABHAXPtsVgEPGS3N7qx8Lu/bCqi7BrlOGBFIM+3P4udZ2RdjodJHWQwGAyGmMC47AwGg8EQExiFZDAYDIaYwCgkg8FgMMQERiEZDAaDISYwCslgMBgMMYFRSAZDHSEirewsyPNEZJuIbLa/54nIi1Hq804RuaYOrvO+iPSqC5kMBreYsG+DIQqIyBggT1WfjWIfScAcrCzlpRFe62TgKlW9uU6EMxhcYCwkgyHKiEi2Xy2dMSIyVkS+tWvLXCgiT9s1Zr6x0xchIoNEZIqdxHKCk5qlEqcCcxxlJCI5IvIPEZkqVl2nY0XkE7tOzeP2MU1F5Euxah0tEpFL7WtNA4bbSs5gqBeMQjIYvKcnVkmD84G3gcmqeiRQAJxrK6V/Axep6iDgdeCJINc5EZhdqa1YVYcB/8FK4XIH0A+4TkRaYeWk26Kq/VW1H/ANgKqWY5UH6F+nd2owhIFRSAaD93ytqiXAQqzCkN/Y7QuBbkBvLCUy0S4B8SBWYsrKtAd2Vmpz8i8uBBarVeepCFiDlehyIZYl9FcROUlV9/uduwPoEOG9GQyuMea5weA9RWBZJSJSohUTueVY/5OCpUxOqOU6BUBasGvb1yryay8HklR1hYgMwsrT96SIfKuqj9rHpNnXNBjqBWMhGQyxx3KgjYicAFZZDBHpG+S4pcCh4VxYRDoAB1X1beBZrBL2DodhJc00GOoFYyEZDDGGqhaLyEXAcyKShfV/+k+qKouvgbfCvPyRwDMiUo6V5X0UgIi0AwrUrvxpMNQHJuzbYGjAiMinwJ9UdWWE17kLyFXV1+pGMoMhfIzLzmBo2IzGCm6IlH3A2Dq4jsHgGmMhGQwGgyEmMBaSwWAwGGICo5AMBoPBEBMYhWQwGAyGmMAoJIPBYDDEBEYhGQwGgyEm+H86knTQIxjTgwAAAABJRU5ErkJggg==;imageBorder=default;" vertex="1" parent="1">
          <mxGeometry x="40" y="180" width="420" height="278" as="geometry" />
        </mxCell>
        <mxCell id="MIplbjMhPZChMv7-PSJD-2" value="" style="shape=image;verticalLabelPosition=bottom;labelBackgroundColor=default;verticalAlign=top;aspect=fixed;imageAspect=0;image=data:image/png,iVBORw0KGgoAAAANSUhEUgAAAaQAAAEWCAYAAAApTuNLAAAAOXRFWHRTb2Z0d2FyZQBNYXRwbG90bGliIHZlcnNpb24zLjUuMSwgaHR0cHM6Ly9tYXRwbG90bGliLm9yZy/YYfK9AAAACXBIWXMAAAsTAAALEwEAmpwYAABhyklEQVR4nO2dd3gcRfKw31K2JTlLcs4BnAAbG5tkcyaYZMKRj4PjiD7uyBm+M8lHOo4fGQyGI4NJByYZG5BJBuecs2XLcpAsK8f+/piZ1a60kjbOzq76fZ59tNszPVPTu5qaqq6uEqUUGo1Go9FEmrhIC6DRaDQaDWiFpNFoNBqHoBWSRqPRaByBVkgajUajcQRaIWk0Go3GEWiFpNFoNBpHoBWSJqYQkT+JyLdhOnZPESkWkfhwHN/piMgqERkfaTk0sYtWSBrbEZGtIpInIqlubVeJSHawx1ZKvaOUOjnY44BLzhPdjr1dKZWmlKoJxfHrnUuJSImp8PaLyHcicqEf/ceLSE4Q5+9tylBsvvJE5AURSbT2UUoNUUplm/vfLyJvB3iu+0WkyjzPARH5VUTGmtv+IiI15raDIrJMRM7wIueX9Y75tojcb74fIyKzRSRfRPaKyIci0iUQWTX2ohWSJlIkADdGWgiHcZhSKg0YBPwXeE5EptgsQztThmHAWOD6MJ3nA/M8GcDPwCciIua2eea2dsALwPsi0q5e/zEickwjx24PTAN6A72AIuD1kEqvCQtaIWkixRPAbV5uNACIyNMissN8Sl4kIseZ7V1FpExEOrjte4SI7BORRPMJ+2e3bSeLyDoRKTSf+OeKyFXmtn4i8r1pkewTkXcseUTkLaAnMNN8Wr/D7ek8wU2Wz80n8Y0icrXbee8XkRki8qaIFJnuriN9GRil1D6l1FvAZOBuEeloHvMKEVljHm+ziFxrtqcCXwNd3SycriIyWkTmmVZIrog8JyJJPsqwB5gNDHa7pq0icqKITATuAS40z7XM3P4XU64iEdkiIn/y4TxVwBtAZ6BjvW21wFtAKjCgXtfHgYcbOebXSqkPlVIHlVKlwHNAY8pL4yC0QtJEioVANnBbI9sXAIcDHYB3gQ9FJEUptQuYB/zRbd9LgI/Mm5sLEekEfATcjXGzWwcc7b4L8AjQFTgU6AHcD6CU+jOwHTjTdNM97kXG94Acs/95wL9EZILb9knA+xhP+p9j3Bj94TMMS3K0+XkPcAbQBrgCeEpERiilSoBTgV2mrGnmONUANwOdMKydCcDffDmxiHQFTgF+q79NKfUN8C9MK0cpdZipFJ8BTlVKpWOM81IfzpMM/AXIUUrtq7ct3rzOKmBbva7PAwPFzaXaBMcDq3zYTxNhtELSRJJ/Av8QkYz6G5RSbyul9iulqpVSTwLJGK4sMBTUxQCmm+cis60+pwGrlFKfKKWqMW6Yu93OsVEpNVspVaGU2gv8Bxjni+Ai0gM4FrhTKVWulFoKvAr82W23n5VSX5lzTm8Bh/lybDf5qoB9GEoZpdSXSqlNymAu8C1wXBP9FymlfjPHcCvwsg/Xt09EDgA7gRIMhe4rtcBQEWmllMpVSjWlBC4wz7MDGAmc7bZtjLmtHPg3cKlpsblTDkylESvJQkSGY/zObvfjOjQRQiskTcRQSq0EvgDuqr9NRG413VOF5s2pLcaTPhg3ybHmU/zxgAJ+8nKKrhg3POt8CsOisc6RKSLvi8hOETkIvO12juboCuQrpYrc2rYB3dw+73Z7XwqkWO4+XxAjoCADyDc/nyoiv5kuwgMYCrdReUVkoIh8ISK7zev7V1P7m3RSSrUDWgO/AN/4IqtppV0IXAfkisiXInJIE11mKKXaKaUylVJ/UEotctv2mylDewzLsjGl+wqQJSJnetsoIv0xXJk3KqW8/T40DkMrJE2kmQJcjduN3JwvuhO4AGhv3pwKMVxsKKUOYFgHF2C4695T3tPW5wLd3Y4r7p8x3HUKGK6UagNcap3DpKlU+LuADiKS7tbWE8OyCBVnAdXAfNO19TGGxZBljslXbvJ6k/VFYC0wwLy+e/C8vkZRSpVhBFaMNV2fDXbx0meWUuokoIt53ld8OVcTMhRjuBj/LCJHeNleBTwAPES96xKRXsAc4CFzPk4TBWiFpIkoSqmNwAfADW7N6Rg34r1Agoj8E2PexJ13gcsw5pK8uesAvgSGicjZpmVyPcbkuft5ioEDItKNhm6dPKBvI3LvAH4FHhGRFNM1dCXwThOX6xMi0sEMCHgeeEwptR9IwnBb7gWqReRUwD28PQ/oKCJt613fQaDYtFYm+yFDMob7cTew38sueUBvEYkz988SkUnmXFIFxrgGHR5vXvurGG43b7yFMS4T3WTvBnwPPK+UeilYGTT2oRWSxgk8iBFJZTELw9WyHsMNVo6b683kc4zIqzyl1DJvBzUnyc/HiMjajxExthDjhgnG0/UIDOvrS+CTeod4BLjPjFLzFnxxMUZo8S7gU2CKUmp2M9faFMtEpBjYCFwF3KyU+qd5LUUYSnsGUIBhGX7udq1rMYIsNpvydsUIGLkEI+z5FQzF3xwHTBnyMAIhJjVifX5o/t0vIosx7iW3YoxFPsZclU8BFD7wf8BpptL3wJyfm4I5z2ZyFcaDxBS3qMPiEMmiCSOiC/RpWgrm03wO8Cel1A+Rlkej0XiiLSRNTCMip4hIO9MFZc2hNAhl1mg0kSeiCklEXhORPSKy0q3tfjPqaan5Os1t293mAsR1InKKW/tIEVlhbnvGnLxGRJJF5AOz/XcR6W3rBWqcwFhgE0b49JnA2eaEvUajcRgRddmJyPEYk59vKqWGmm33A8VKqX/X23cwho98NEbI7RxgoFKqRkTmY6Sh+Q0j8ugZpdTXIvI3jAiq60TkIuAcpZTP+cE0Go1GYx8RtZCUUj9irrHwgbOA981FjFswJn5Hi5E0sY1Sap45+fomdYvszsJISwLG2pUJlvWk0Wg0Gmfh8yI9m/m7iFyGERF1q1KqAGOdirvvP8dsq8JtsaNbO+bfHQBKqWoRKcRIIVM/Rck1wDUAKSkpI3v27BnyC4pGamtriYvT04ygx8IdPRZ16LGoY/369fuUUg2yrviDExXSixgL3ZT590ngr3hf0KeaaKeZbXUNSk3DyA7MoEGD1Lp16/yXOgbJzs5m/PjxkRbDEeixqEOPRR16LOoQkfr5Bv3GcapdKZWnlKoxM/2+Ql1iyRyM5JcW3THWPOTgufreavfoYy6MbIvvLkKNRqPR2IjjFJJ4FtI6B7Ai8D4HLjIj5/pgLIqcr5TKBYrEKMolGKv3P3Prc7n5/jzg+0YW+Wk0Go0mwkTUZSci7wHjgU5iVLucAowXkcMxXGtbgWsBlFKrRGQGsBojrcz1bpU7J2Pk3WqFscL/a7N9OvCWiGzEsIwuCvtFaTQajSYgIqqQlFIXe2me3sT+UzFSztdvXwgM9dJejpE6RqPRaDQOx3EuO41Go9G0TLRCiiBKKd5b8R4V1RXN76zRaDQxjlZIEWRZ3jIu+eQSPllTP8m0RqPRtDy0QoogecV5AGwq2BRhSTQajSbyaIUUQfaVGgkjth7YGllBNBqNxgFohRRB9pcZhTi3HNgSYUk0Go0m8miFZAMllSVUVFeglOL9le9TVVMF+GchVVRXsClfu/Y0Gk3sohVSmFmSu4S0R9K4edbNzFw/k4s/vpipP01le+F2Xln8CgDbC7dTU1vT5HGu+eIa+j/bn5LKEjvE1mg0GtvRCinElFSWkHOwLvn4SwtfAuDVxa+yv9Rw0W0q2MSp75zK7uLdAFTXVjNm+hg2F2xu9LjfbPwGgMKKwnCJ7jiUUuhMTxpNy0ErpBBz0lsn0eOpuhyw6/PXA1BVW+WKpquqqWL13tUe/RbuWsht397W6HET4oykGoXlhkIqriyO+Zv1zbNuJu5B/RPVaFoKzf63i8hAEfnOKjMuIsNF5L7wixadzMuZB+BywW3Yv4EjOh8BwJcbvgSgqLLIa19366egrIDthdvZU7IHgKT4JNc+Owp3kP5IOs8veD48F+EQnv79aQBqVW2EJdFoNHbgy+PnK8DdGIXwUEotRycpbZYD5QcoqSxhZ9FOJg2aRFJ8Ekt3LwUMawjgpL4nMfPima4+q/as4orPruDfv/6bDo93oNf/9eKamdcAkBiXCBgW0rr9Rr2m/639n0+y1NTWcOusW1mzd02Iri78uFt/ZVVlEZREo9HYhS/JVVsrpebXq/xdHSZ5YoaC8gJXAMLgjMEMzhjsUkiW1fPA+AcY22Osq09eSR7/Xfpfj+Mszl0MuLnsKgppldAKgJSEFJ9k+XXHr/znt/+wYs8Kvv3ztwFfk51sL9zuel9SVUJqUmoEpdFoNHbgi4W0T0T6YVZaFZHzgNywShUDHCg/wIb8DQAM6DCAw7IOa7BPZmomAF9c/AWPnfiYqz0rNcv1fsfBHRSWF5IYX2chlVUbFoOvCmnBrgUAdG/TvZk9I8/92fczbdE0D4VUWlUaQYk0Go1d+KKQrgdeBg4RkZ3ATRj1hzRNUFBWwIb9pkLqOIATep/QYJ+MVKP8/OkDT+e6I69zte+6dZfHfqv2rnK57CxXIECrxFbNylFdW82naz8FoF1KO49tlTWV/OGNP3DLrFv4cNWHPl5ZeHlg7gNc+8W1zNo0y9VWUlnC9sLtyAPCvB3zIiidRqMJJ80qJKXUZqXUiUAGcIhS6lil1NawSxaFuM97vLvyXe75/h46p3UmLSmNcw89t8H+6UnprvdtktsAhjUVJ3HES7xr28o9K7FcpoUVhRSUFwC4XHdN8cHKD/h5+8+AocxOfutkvt1kuO3m75zPD1t/4KnfnuKCjy6IeNRedW2dJ3j+zvmu96VVpa6wd2vtlkajiT0anUMSkVsaaQdAKfWfMMkUtZRU1S1ateaCrLVG6cnpfPOnb9hWuI1rv7gWqBtLi7237yU5PhmAtKQ0CisKSYhLYOWela6J/cLyQgSjnxV51xQb8jcgCL3a9WL9/vX8suMX5myew85bdnLc68d57LuzaGdE3XrWOi2AjfkbXe9Lqkoory4H4P2V73PBkAuY2H+i7fJpNJrw0pSFlG6+jsRw0XUzX9cBg8MvWvRRUFbQoO2qI65yvT+l/ymcMfCMRvt3at2J9GTDappz2RxuOuomRnQZwco9K13Kzt1C8qWOUm5RLp1ad6J9SntXiiKF4j/zGj5PzN85n7ziPKb8MKXZzBHhYG/pXtd79/x+pVWlrnmksuoyTn3nVNtl02g04adRhaSUekAp9QDQCRihlLpVKXUrMBJw/ux4BMgvy/f4fGLfE3npjJc82jqndfbpWEd2PZKnJj7FsMxhrNyz0nVDfm/le65ovfKacqprq8ktajzGJLc4ly7pXUhPTmdn0U5X+/Ql0xnXaxy5t+by6pmv0j6lPQ/OfZDjXj+OB398sMHC3XDyyZpPuHbmtewt2et1e0lliYf1BHWlOzQaTezgS1BDT6DS7XMl0Dss0kQ5z85/1uVOA+jfvj/xcfEe+8RJHOlJ6Zw3+Dyfjjk0cyh7S/eyp2QPR3Q+guraan7Z8QtgrM+5/dvb6fqfrhwoP+DqU1FdwaT3JvF7zu+GQkrrQlpSmsdxC8oLuHrE1XRO68yVI67k5TNeZlneMldkoPt8TjhRSvHHGX9k2uJp7Di4w+s+szbNYlexZ6CHtQBZo9HEDr6sQ3oLmC8in2KEfp8DvBlWqaKMG76+gcM7H87by9/m6hFXs27/OuZum0vX9K5e9z9490Gfjz00c6jr/ekDTmdv6V5Xrrzy6nLeXfkuYFhnVhTd4tzFzFw/k4W7FhIncQzNHOo1dHrSoEmu92cdcpbHNmvOJty4W2JWIMPAjgNZv389WalZ5JXkMX3J9Ab99GJZjSb2aFYhKaWmisjXgDUDfoVSakl4xYounp3/rOv92B5jqVE1zN02l9aJrYM+trtCap3Yms5pnT0UkjWPVFBWAO2N/SyXXm5xLglxCXRJ6+JajBsv8Tx32nMUVxa75qvACJC4/ejbeWXxKxwoP0B5dbmHtRcurPkwgN93/g7AoI6DWL9/Pd3adCOvxLtrrrKm0mu7RqOJXnzJZdcT2Ad8ar72m20aGj6pD80cyqn9jUn3Hm17eOviF1mpWS7FkJqU6lqPlJ6UTn5Zviv/3cb8jcxYNQOARbmLXP2ra6vp066Py2XXsXVHrjvyOm47umEi18dPepyvLvkKgIqa5gMmQoF7qPnCXQvp3qa7a56tW3q3RvtV1VaFXTaNRmMvvrjsvsTM0gC0AvoA64Ah4RIqmrCqvloc2ulQjux6JEuuXeI1O4O/iAhje4zl1x2/UlNbw/RJ03lv5Xssyl3EVxu+cu130cdGesFhmcNYnreccb3GkZyQTFVNFZcddhkP/fgQABmtM5o8n5X9oby6nBR8ywQRDArPtU9H9ziawzsfDhiW0kxmeumlLSSNJhbxZWHsMKXUcPM1ABgN/Bx+0aIDq+rrFYdfwS1jbnHlXDu88+EN1hkFyozzZjChzwQm9J3AoRmH8uAJDzbqDvxp+09syN/AkIwhfPOnb/jusu9ITkh2LaLt1a5Xk+eyFJIvIeWhwMrkHSfGT/GIzkfwt1F/o+DOAh4/6XHXfs+e+qxHP6vqrkajiR38LjajlFoMjAqDLFGJpZD+cvhfePKUJ8Nyjm5tujHnsjkMzxruamssj93Haz7mQPkBBnQcgIi4lOKuIiNK7axBZ3ntZ5GcYCzMtSuowXLZvX7W65zc72QuHnoxYKQ5clfofx/9dwZn1C1/0y47jSb2aNZlVy9jQxwwAvC+YKQFYq2P6dS6k63nbSzNj5UWaECHAR7tt4y9hfi4eC4/7PImj+vusrMDy2XXq20vZl06q8H2e469h/4d+gPw3WXfsXDXQs5870ztstNoYhBfLKR0t1cyxpxS04/ZPiIir4nIHqv4n9nWQURmi8gG8297t213i8hGEVknIqe4tY8UkRXmtmfEfLQWkWQR+cBs/11EeodCbncsC8luhWQV+bv3uHtdbU9PfNr1fkBHT4XUr0M/njn1GZcF1Bgul53NQQ2NuTenTpjKFUdcARiLiq2AkZbqslNK8dWGr1yJezWaWMKXoIbVSimPVNAicj4QivTQ/wWew3Nd013Ad0qpR0XkLvPznSIyGKMw4BCgKzBHRAYqpWqAF4FrgN+Ar4CJwNfAlUCBUqq/iFwEPAZcGAK5XVgKqUOrDqE8bLMUVRgK6ahuR7naJh85mYzWGazcs9JlVfiLlUvPbgvJmkNqjvi4eOIkrsW67B768SGmZE+hXUo7ll23jJ5tdcCrJnbw5S5wt49tfqOU+hHIr9d8FvCG+f4N4Gy39veVUhVKqS3ARmC0iHQB2iil5injcfvNen2sY30ETJDGHsUDJL8snzbJbVwF9OziYIWxuDYjNYNRXUcxNHMoifGJXDzsYqZOmOrzDb4+lgVld1CDP2uekuKTYtJlV1FdwdO/Pe01S8bMdTO58KMLefTnRxmWOYySyhL++cM/IyClRhM+msr2fSpwGtBNRJ5x29SG8FaMzVJK5QIopXJFJNNs74ZhAVnkmG1V5vv67VafHeaxqkWkEOiIsa4qJFTVVvmUdTvUWAqpXUo7fr/q9wbh04GSEJdAvMQbFlJ88/sHS3MuO28kxiXGpMvuxYUvcvOsm3lz+ZukJKTw1jlv8fP2n7lk2CVMer8uq8a7f3yX5+c/z2tLX+PVSa/a/jDkTkV1BSv2rODIrkdGTAZN7NDUL3kXsBCYBCxyay8Cbg6nUI3g7Y6lmmhvqo/ngUWuwXD5kZGRQXZ2ts9C7dy5k5qqGr/6hIJxbcexIX8Dm5duZnfC7pAeO1ES2bB1A2Ozxob9upblLwNgyeIlVG7yzeqRWmHLji22jnlxcXHYz7cxxyi5YZWt7/dMPwB2bNhBoiRSpQwlvHfVXtKL0qmsqWTGrBl0beU9RVW4cB+Lr3d/zRPrnuDDMR/SMbmjrXI4ATt+Fy2JRhWSUmoZsExE3lFK2ZNp0yBPRLqY1lEXYI/ZngO4pz7ojqE0c/DMPm61u/fJEZEEoC0NXYQopaYB0wAGDRqkxo8f77Ow7xW9R9LBJPzpEwrGqXG8UPuCq7R5KEmdn0pml0zSWqeF/brKNpTBChg5ciRjuo/xqU/rRa3J7Jxp65hnZ2eH/Xw7lu3g+U3PN2hP6ZpCwroEqqqruH/c/Zww/gQStyfyxPonaN+/PeMHhFeu+riPxbyf5qHWKboM7sLRPY62VQ4nYMfvoiXR6ESDiMww3y4RkeX1X2GU6XPAik2+HPjMrf0iM3KuDzAAmG+694pEZIw5P3RZvT7Wsc4DvlchLouqUCFbAOsPIhIWZQTGPJJdQQ31F8b6QmJcYkwGNdQvMW9xx5w7KKsu46XTX2LK+CmAkYAWYP3+9XaJ56JG1XD5/y5ned5yV5b57YXbbZdDE3s05bK70fzbeEW5IBGR94DxQCcRyQGmAI8CM0TkSmA7cD6AUmqVqSRXY8xhXW9G2IFRQPC/GKmNvjZfANOBt0RkI4ZldFGor0EpZUsSUjtJSUixPcpOBzV4KuURXUawKX8TaUlprjpWI7uOdG3PaJ1Bu5R2ZG/L5oajbrDtoWjaommUHCjhzeVvsnDXQo7raeRc3lHovXRIpPhu83f0btebfh36hfU85/56Ln3X92XhNQvDep6WQlMuOyuwYFu4Tq6UuriRTRMa2X8qMNVL+0JgqJf2ckyFFi5qVW3AEW1OJSUhxTHrkLyRGB+bQQ2WtQjw2qTXGJ41nBHTRrCzaCcLrl7gETggItww+gYe/PFB5uXMs8VdtqtoF9d+ca3rc2lVqSu5b2O1rCLF+R+ez6kDTuWdc98J63kKqgpYlLuIz9d9TkpCCif3Ozms54t1mnLZFYnIQbdXkftfO4V0MpFy2YWT5Hj7XHaBWEix6rJzj5TsnNYZEeHjCz7m6z997TWK7dxDzwUiVz23praGwnLnKaSiiiIKygtYkbcipMd9+renyfp3lseDg8VZ75/FKW+f4qWXxh+aspDSG9umqUMRmy67SCVX9YVYddm53+iszB992/elb/u+Xve3Pc1TvenXgxUHXXNIOwp38OSvT1KjarjjmDtskacxLBfn2n1rqaqpCtlc602zbgIMhdc2pW2j6bs0gePTAgYRGQEcixEy/bMu0FeHUirmXHZ2BjVol10d7je4+LjmF4G1SjQyuJdV21M9t75lUFhRyIo9hhWyOHexqw5XJBVSQVkB4/47DjDWCK7fv54hmcFXyrFyVoKRtqttSltKqkoa7FdUUeRR+FLjH74U6PsnRraDjkAn4L8icl+4BYsWalVtzLnsdFBDZLBu+N9d9p1P+9ttIbkrpMlHTgaguLIY8HQ3Wum0IsHM9TNd1ZEBl8IMlkd/ftT1ftWeVUxbNM2o0lyPzQWbQ3K+loovj/YXA6OUUlOUUlOAMcCfwitW9BCLLrvk+GRnBzXE+BxSZmpmM3saWDWu6lctDheWfHcOupMXTn+Bcb0MS6R+HseMJzLYlL/JFpnqY40JQLzEs3LPyib2bpr9pftdv8/P13/uap/4zkSu/eJar8pnU0FkrjtW8EUhbQWP0qHJgB51k1h02cVJnNeJ23Dgb3JViF2Xnb95/SwLKVIuuzMHnglAamJqg33fWfFORDKSW1F/YKzVCtRCWrVnFZ2e6MTrS18HDKtvSIan62/NvjUN+ll1xzSB4ctdoAJYJSL/FZHXgZVAsVnm4Zlm+sY8seiyExHbJmx1ctU6rDH3VTknxifW5R20gfryTew/EcBVct6dKdlTGPjcQOZunWuLbBZW1F/OzTkMzRwasIW0eu9qAL7c8CXVtdUUlBXQp30fj33W7G2okHYX7+bJX58k52CObQ91sYQvv/xPgXuAH4Bs4F6MhaeL8Mxx1yKJRZddnMSFLFlrc2iXXR0u5ezHWKQkpNjmsqv/8DAkcwjzr5rPW+e8xdE9jmbqHxosEeThnx62RTaLgxUHEYQu6V0YljmMzQWbXfNc/mB9B8t2L2Nx7mIUij7t6ikkLxbS1J+mctvs2+jxVA9OeOOEwC6iBdNslJ1S6o3m9mnJxKLLThDbXXb+Wkix6LILxH3ZKrFVRANQRnUbBcAvf/2F7YXbuff7ez0eGH7L+c3WxeOFFYWkJ6cTJ3EMzTTWyq/IW8HYHmP9Oo5VAmRTwSaOetWoOVZfIVlWVGP8uO1H4h+M58XTX+Sakdf4df6Wii9RdmeIyBIRydcLYxuiXXbBEWjYdyy67AJxX6YkpNg+h9SYcunepjuTj5zMgqsXsO/2fbx8xssUVxazpWCLLfKBYSG1SW4DwLCsYQAc/drRLMld4tdvxnL9uVPfZWetd7LIaJ3RoE+tquX5BQ0T5mq848tjy/9hJCjtqJRqo5RKV0q1Ca9Y0UMsuuwEsc1lp5Or1uHvHBIYUWWRCPv2RpzE8cLpL3BY58Po2LojR3Q+AoBlecvsEA8wLKS2yW0BT4vmsV8eI/nhZO6cfafXuZ+R00Yy+YvJHsepj7fqvIPSB7neW9GG9x13H4d0OsTVvvPgzgb9NN7x5Ze/A1gZ6izZsUJMuuzstJD0OiQXAc8h2WQh+aswD804FMDWaLvC8kKXhRQfF897f3wPgA9WfQDA478+zvCXhjfotzh3MS8tesnjOPXxFo7fs1VPfr/qd/56+F9dUY9HdDmCq0dc7dpnf9l+SiobLqLVNMSXX9YdwFcicreI3GK9wi1YtBCLLruoCGrQc0iAvXNI/roUWye2BuwLSwfDZdc2pa3r80VDL+Kkvid57FO/RLy3hy9vFlLHVnUFCO885k6jL4rR3UYz/azplFaVAtCrba8GymtbYdhyVDdJWVUZ0xdPb3a+yyn48sufCpRirEVKd3tpiF2XneODGmLQZRfwHJLNC2N9lS9O4mxN1AueLjuL0d1GN9nHPQWQUop3V7zrke3h84s+54uLv3ClagK469i7OKH3CVzY40JXmxX+3r1N9wbzSZGoF7Vw10Ja/6s1V828ijtmRza/oK/4ksuug1JK51RvBKViL9t3JNYh+bswNhZddoHOIRWUN0xhEw4C+a7sTEMFhoWUnuT5vHzViKuY+lNdSHrrxNa8vPBl+nXox4l9T/RIAXT77Nt5ct6THv2HZg51BTRcNPQi0pPSaZfSju8v/96jfPn0SdP5x+h/kJWWRcfWhjXVLqUdB8oPsPXA1hBfafMs3FVXoylaphV8kXKOiGiF1AixWA/JzqCGQFx2CXEJDdwusUCgc0hOCWrwRqvEVrZZcABVNVUkJyR7tPVu15t3z32XhVcv5KETHqK0qpTrvryOk94yXHn5ZfmufesrI4CstCzX+/f++B7Tzpzm9dzpyekc18soWGhZSOcdeh4pCSlszN8Y3IUFwNYDW0mMS+QPff7Agl0L+GX7L65tN39zMx0f79hE78jgi4V0PXCHiFQAVYAASkfaGcSky87hQQ3WA0CsWaeBziHZ5rKzLDifnmMNUhJSKK+xz0Jq7AHx4mFGLdD6cyknvnkiCXHeb4ODMwZzw+gbXHNh/tCrXS9+u/I3Du98OPNy5rEhfwO/5/zOsKxhAR0vELYc2EKvdr3olt6N77d8z7GvH4uaYnyH//f7/wHGHJO7KzLSNPvLMsO845RSrXTYd0Ni7aYIzg9qsJSXXTLaRaBzSLYHNTg0kwQ077Homt7V4/N3W75j1qZZXvcd020M1x55rddtvnBU96NITkhmQMcBfLn+S8ZMH8Pdc+4O+Hj+svXAVnq3602XtC6utvrRfk7LTu6Xr0lE+onIvSISeArdGEMRg2HfEQhq8GcM3S2kWCLQOSTbwr4DsGbtXCcFzSukEV1GNLrtjIFneHzunNY5JDL1b9+fGlUDQG5xbkiO6QtbD2yld9veHtnYdxzc4TH/GglXYlP4kqmhi4jcLCLzgVUYbr6Lwy5ZlFCramPPZYezk6taT+ixlrwyWuaQnGrBQfMKqX2r9kw7YxqnDTitwbZpZ3jODYVKIY3sOtL1vrHqv+GgqKKI9q3ac7CiLrHOmr1rSH+kLuhjxZ4V5BblUlVT5Yi1Uo1+cyJytYh8D8zFKM53FZCrlHpAKRXaYvVRTCy67EScHdQQqy67QKzFeImnprYmXCJ5EMh3ZefCXfAtyOjqkVfz5SVf8uiER+nQqoNL8dRXQF3Su3jr7jfnDz6fdintAPuKKULdWEweNZl+7fsBcO6Mcz0spP/3w/9jxLQRnDvjXNIeSbNNtsZo6pt7HogHLlFK3aeUWg4xdgcIAbHqsouWoIZYIhALxM75PlfYtx+efjsX7oJ/Ua93Hnsn++/Yz/abtpNzcw4iwqCOdamAQmUhxcfFs/OWnbRLaWerFVKjaoiTOLq36c6a6+vSJT136nNs+McGBnQYABglM75Y/wVAxBecNxVl1xU4H/iPiGQBM4BEW6SKImLRZReJoAZ/lHqsuuwCHQu7xiEWghq8kRifSLc23QBY+/e1JD6USHVtdcgUEhhrnzJaZ1Bc5X8pjEBxH4vE+ET+duTfGNd7HBcMuQBoWOkXYG/p3gaBH3bS6DenlNqnlHpRKXU8MAEoBPaIyBoR+ZdtEjqcWHXZOfkmF6suu0DGIk7iHG3NOi2owRes6wulQgJITUq11UKqVbXES7zr8/OnP+9SRuBdIeUV59kiW2P49M0ppXKUUv9WSo0EzsaoIqtBu+yCRbvs6ghkDsnOiMhYCGrwhbl/mcstY24hLSm0cyppSWkeaYrCiS/WdvtW7Ru0uadMigS+LIz1QCm1DnggDLJEJbHosnN8UEOMuuycPofk9KAGpVRIHhDH9hjrd0E/X0hNTLUtzZMVZt7UWHRIMSwk94eGvJIosJA0jROTLjuHW0ix6rKLljkkv4IabHTZBWJh2omdLjvru4qPi290Hysr+jmHnOPKTh4VLjtN48Ri6qCIRG7phbFBzafZQTBBDXZ8V4H8luwkLSmN4kp7ghp8GQtrfmlAhwHsvnU3rRJaRYeFJCLdRORoETneeoVbMBHZKiIrRGSpiCw02zqIyGwR2WD+be+2/90islFE1onIKW7tI83jbBSRZyTE5kxMJle18albu+zqcHrWikCs2ZSEFBTKlnIhTldIqYmpts0hWWvTfB0LESEzNTPiCqnZOSQReQy4EFgNWCvwFPBjGOWyOEEptc/t813Ad0qpR0XkLvPznSIyGLgIGIIRrj5HRAYqpWqAF4FrgN+Ar4CJwNehElC77IJDu+zqCDZrhXtEVTgIRD4rcWd5dTlJ8UlhkcsiKhSSzS47f8YiKy0rKoIazgYGKaWcEFl3FjDefP8GkA3caba/b8q4RUQ2AqNFZCvQRik1D0BE3sS4ntAppBh02Tk9qMH6J4s5CymAOSSXhWTD9xVoUAMYWaWt0uLhwukKKS0pjbLqMmpqa5qc2wkFrjmkJh5S/jbqb/y4/Ucmj5oMQFZqVkQKCbrji0LajLEg1m6FpIBvRUQBLyulpgFZSqlcAKVUrohYdYK7YVhAFjlmW5X5vn67ByJyDYYVRUZGhkfRreYoLCykMr7Srz5OZ2fOTqqrqykuLg77dW3cYSR3/OXnX2gV71sa/I07jT4///wz7ZLahUs0D+wYi03bNgHw448/+mztbN22FYAfsn8gMS6869aX7l8KQHlZuc9jsTV3KwA//PwDnVNCu66nPmU1RjTfls1byK7KDuu5LPz5XezesRuAWd/PonVCeEtQFFUVAbBp0yayK7Ib3W9KrymsXbiWtayl9mAtOwp2RPRe5otCKgWWish3uCklpdQNYZPK4Bil1C5T6cwWkbVN7OvtkU010e7ZYCi7aQCDBg1S48eP91nItI1ptE1piz99nM7MipnIHiEtLS3s1zX/l/mwGY4/7nhSk1J96rN6wWrYCEcfc7QrOijcZGdnh30sfpz7I2yFE8af4PNT/ryf5sFWOP744xsUpgs1xeuLYSWktk71eSy2L9sO62HU6FH069AvrPIdrDgIP8OA/gMYP9Y3+YLFn9/F6gWrYTOMGDMi5Itu67OvdB/8CoMGDGL8Ub7JN7tmNt/88g3Hjzs+YlamLwrpc/NlK0qpXebfPSLyKTAayBORLqZ11AWwHJ45QA+37t2BXWZ7dy/toZNTu+yCIpjkqrHmsnN65vNA10mBPS5Fp7vsLKvXzu/KH9dgVloWNaqG/LJ8OrXuFC7RmsSXAn1vAO8Bi8zXu2Zb2BCRVBFJt94DJwMrMRTj5eZulwOfme8/By4SkWQR6QMMAOab7r0iERljRtdd5tYnJCilMzUEQ0BBDeZNONbCvp2e+TwYhWTnTdip/492RkQGFNSQapRqj+RaJF+i7MZjBBBsxXCB9RCRy5VS4YyyywI+Nf8xEzCU4DcisgCYISJXAtsxkr+ilFolIjMwIgGrgevNCDuAycB/gVYYwQwhC2gAM1NDrEXZRcBCcupEvp0EkvXD1rBvh1uz0aKQ7BgLf8O+ATJSMwAjfdAQhoRFrubwxWX3JHCymTIIERmIYTGNbLJXECilNgOHeWnfj5Ho1VufqcBUL+0LgaGhltF1/Bh02dmZsDOYxaCx5rJT+L+EIGpcdg61CuzE6daiFRFpx5qxxvBF2kRLGQEopdajy1C4iFWXnd0lzLXLLrBF1raGfQexcNepN2E7icRY+LM2zQnLKXyxkBaKyHTgLfPznzDmkjRol12wBLMOKdZcdkr5b21HwiXm9KALrZCCS8nldIU0GbgeuAFjDulH4IVwChVNxKLLzvFBDTHqsgvKQrLRJaaj7ALD1jkkH7J91ycqFJKZ/eA/5ktTj5h02dloIQVyE4lVl53T55CcnlVDK6Q6Agn7tuSzAiIiQaMKSURmKKUuEJEVeF9MOjyskkUJseiys7UKqXbZuQjEQnJ62LeOsqvD6e5Lp1tIN5p/z7BDkGglZl12ds0hBXCeWHXZBTKHFIls307NRu50heT0sG8nKKRGpbVyxgF/U0ptc38Bf7NHPOcTk9m+bXSJBTSRH8MuO78tpAg8dfuD060CO3H6fJqdmSQawxdpT/LSdmqoBYlWYrIeko1uoEBuwk54kgsHgbh/I5Ht25+KsZGYN3Gqx0KHfTdPU3NIkzEsob4istxtUzrwS7gFixZi0mUn9s5L+D2RH6P1kAIJkIlI2LdD5/uixUJyqrXoaIUEvIuRZucRjEJ4FkVKqfywShVFxKLLzs5/aKfPm9iJ01MH6aCG4NBh383TqEJSShUChcDFAGYZiBQgTUTSlFKRreTkEAJxOTkdO28iTg91thOnzyHpoIbgiJawb0fPIYnImSKyAdgCzMVIshrSBKXRTCBPtU7HTpddMG6qWHPZOd19GciNyuluKjtx+lhEhUICHgbGAOuVUn0wkpvqOSSTWHTZ2algne6mspNAlHMksn37E9Sgo+zq0GHfPsjgwz5VZpbtOBGJU0r9ABweXrGih5h02dkZ9q1ddi4CUc4RyfatgxoCwunzaU5QSL7ksjsgImkYOezeEZE9GDWHNMSmy87uUOJAE4rGmssumBB4p2ZqsPMmF0htLTuJxHxatIV9+/LNnQWUATcD3wCbgDPDKVQ0EcsuO7vWIQW89ibGXHbBzCE5NajB6VaBneg5pObxJblqidvHsJYuj0YUyi+fejRgp8suoPxtMeqyc/ocUjBBDTrKTod9+0JTC2OL8EyqKuZnAZRSqk2YZYsKYjG5qq0WknbZuajF2XNI0ZKpQSuk6A37bmodUrqdgkQrgdxQnY6tYd/aZefC6SHwAZWb11F2LpyunJ2gkHySVkSOFZErzPedRKRPeMWKHmIxys7pmRpi1WUXVC47G7N96wJ9gaHDvn2QobkdRGQKcCdwt9mUBLwdTqGiiVh22dk1Ue7kyDI7cXqmhoCKKeqgBhfRYiFZ80+RwBdpzwEmASUASqldGAlWNWiXXbA4PbLMToJaJOzwTA06qCEyDw+xGPZdqYxfkwIQkdTwihRdBDIH4nTsVLC6HlIdTs/2rYMagsPpYxEtCmmGiLwMtBORq4E5wCvhFSt6COQm4nScnqkhVl12Tp9D0kENwWHn7zaQsG8rIs+RUXYAYvyaPgAOAQ4Cg4B/KqVm2yBbVKAzNQSH060CO3H6HJIOaggOHfbdPE0qJKWUEpH/KaVGAloJeSGWXXa2zSFplx0Q4FhEIOzbqW4grZDqcPp31agMPuzzm4iMCrskUYp22QWHdtnVEYuZGnSUXR067NsHGXzY5wRgnohsEpHlIrKiXklzxyMiE0VknYhsFJG7mu/hO7HosouWTA2x5rILKOIwSjI16Cg751tITvi/8mUO6Tpgmz3ihB4RiQeeB04CcoAFIvK5Ump1KI4fky47h2dqiFWXndPXZAVTfsKpN2E7icgckh9h3yKCIM5VSOYc0lPmHFK0MhrYqJTaDCAi72NkMA+NQopBl52d1xNIctVYddkFM4dkW7l5B2fV0AqpjkDHIk7inKuQTH4TkVFKqQVhlyY8dAN2uH3OAY5y30FErgGuAcjIyCA7O9vng1fXVJOzI8evPk5nXe46AIpKisJ+Xbm7c6kor/DrPCsKVwCwZOkSErb78hMOnuLi4rCPxb59+yitKPVvLPKNsVi0aBHlG8vDJJnBlq1bEMSvsdhZthOA1WtWk53vW59AWb7XmElYtHARBWkFYT2XhT9jsb10OwArV60ke59vfQJlda7xvP37b7+zJWWLz/0EYcvWLRG7n/ny33wCcJ2IbMXI1mBl+x4eTsFCiLdHOo9Ha6XUNGAawKBBg9T48eN9P/gvQs+ePfGnj9PZvGQzrIfWrVuH/bpeK3iNVhWt/DpP0o4kWArDhw9nfH/f+wVDdnZ22Mei/a72lBeX+3Weyk2VsAIOP+Jwjul5TPiEA2bXzCYuJ460tDSfZdyUvwnmw6BDBjH+MN/6BMreVXthNRw1+iiGZA4J67ks/PldbNi/ARbAoYceyvjhvvUJlPWL1sN6OPaYY+ma3tXnfvE/x9OjZ4+I3c98UUinhl2K8JID9HD73B3YFaqDx6LLztZMDQG4gZwQDRQOAlqHZHPYd6DuVSe7qewiGsYi0i67ZqVVSm0D2mFUiT0TaGe2RQsLgAEi0kdEkoCLgM9DdfCYjLKzM+zb4SUX7CSYXHZ23eQCzrWno+wcH/Zt7e9ohSQiNwLvAJnm620R+Ue4BQsVSqlq4O/ALGANMEMptSpkx4/BKDu7I7ecnC7HTgJSzjavGXNyJgmtkOqIVgvJF5fdlcBRVilzEXkMmAc8G07BQolS6ivgqzAdO/YsJDvXITk8cstOglLOTn94cGgmCTtxetg3RF4h+fLNCeBeIKMG74ECLZJA/OpOx26XXaDlJ2LNZRfMHJJdC2P1HFLgRMNYRFoh+WIhvQ78LiKfmp/PBqaHTaIoIxZddnZbSE5Ol2Mn0TBH42SFqRVSHYFk+7b2d7RCUkr9R0SygWMxLKMrlFJLwi1YNBFzLju7C/Rplx0Q3BySDmrQCsmdQLJ9gyGjFRARCRpVSGZC1U5Kqa+VUouBxWb7JBGJU0otsktIp+LK7eXQf4BAsfN6tMuujmCq5zrdmtUWUnQEeETaQmpK2icwotLqs9rc1uIJJLdXNOD0dDSx6rKLhhu+k5O/Ol0h2VqgL8Cw7/i4eMcqpI5Kqa31G5VSG4GOYZMoigikYFk0YGty1UAspBh12Tm9NlRQ5TF0lF1UWItOtpBaNbEtNdSCRCOx6rKzU8EGM1Eeay67aLjhO33hrvs5nUbUhH3jTIU0R0SmSr3HVxF5APg+vGJFBzHrsrO7QJ922QHBzSHZ5V7VUXaBEwmFFMi6MadG2d0KvApsFJGlZtthwELgqjDLFRXEqsvOzqdu7bKrw+kh8EGVCtFRdraHfQcyDo5VSGZmhotFpC9gpc5dZdUV0sS+y86xmRpi1GXn9BB4HdQQHHZbSP6668DBCsnCVEBaCXlBu+yCx+mr/+3E6XNITpdPK6Q6As0gE2mF5MxvLkqIVZed3SUNdAlzA6fPIdWigxqCwc7vqqY2Ol12zvzmooSYddnZGfYdTFBDjLnsgsmm7VRrVgc11KEtJB/O39wOIvKWL20tkVh12UVLpoZYc9kFlZrH4QX6dFCD/WPhb9ogiAKFRF1AAwAiEg+MDI840UWsu+wcG0ocoy67aLBAAi0/oS0kbSH5dP7GNojI3SJSBAwXkYMiUmR+3gN8ZpuEDsa6IcaaheT05Kqx6rJzerFCXaAvOOwci2gN+25UYqXUI0qpdOAJpVQbpVS6+eqolLrbRhkdi3VDdOo/QKDYafFpl10d0XDDd3KIvtMVEth3w4/ZsG/gHhE5F6P8hAJ+Ukr9L6xSRQmuOaRYc9k5PFNDrLrsnG4tBloeQxBHZyewEzsVUkxZSG48D1wHrABWAteJyPNhlSpKiFWXncvXbUNOK6evbbGTWJxDAuP/w8k3YTvRCqlpfLGQxgFDlXn3FZE3MJRTi0e77ILH6Wtv7MTpa7ICcSmC8f/h1NRGdmPXDT+YdUiRLNDni8TrgJ5un3sAy8MjTnShXXbBo112dQSVy86hYd/gfKvATmxzXxKdYd++WEgdgTUiMt/8PAqYJyKfAyilJoVLOKcTqy47W3PZKUVcnHNvwnYSTNCAU4MawMabcBQopDiJs+V3W11bHVBQQ7xEtkCfLwrpn2GXIkqJVZedrRPlQSRXjTWXXVDzaQ7N1AD23YSjRSHZ8bstqyqjVWJTJe2843gLSSk1F0BE2rjvr5TKD6NcUYF22QWP02/CdhIN2bR1UENw2KaQqstolRCYQqqurQ6DRL7RrEISkWuAh4AyoBYQjPDvvuEVzflol13wOP0mbCdOn0PSQQ3BY5dCKq8uJyUhxe9+jreQgNuBIUqpfeEWJtqIVZed05Or6npIddg9h6SDGoLDTpddalKq3/0irZB8+fY2AaXhFiQaiVmXncMzNcSqyy7QhadW33CjgxqCR1tIzZzfh33uBn4VkZdF5BnrFS6BROR+EdkpIkvN12lu2+4WkY0isk5ETnFrHykiK8xtz4j5XyoiySLygdn+u4j0DqWsseqy0/nRIkMsZmoAe4ManP5wGA1zSE5XSC8D3wO/AYvcXuHkKaXU4ebrKwARGQxchJF9fCLwgpl5HOBF4BpggPmaaLZfCRQopfoDTwGPNXfijcUbWbp7qU9Cxmy2b+uGb0OmBqfnR7OTgJRzFGRqsOsmV1FTQVJ8UtjPEwyxGGVXWF7I8/NDk7zHlzmkaqXULSE5W3CcBbyvlKoAtojIRmC0iGwF2iil5gGIyJvA2cDXZp/7zf4fAc+JiKgmHv1rVS2VNZU+CRQNyRwDQbvsIkMsZvsG+6LsyqrLaJ3YOuznCQa7xqK8upyUeHtcdlsObOHvX//d73N5wxeF9IMZaTcTqLAawxz2/XcRuQxYCNyqlCoAumFYaRY5ZluV+b5+O+bfHaa81SJSiLHQ1yNAw7y+awDoAgsWLqB0Q/PTZjmlxmnXrl1LdkG2XxfoZFYfXA1AaVkp2dnZYT3XwaKDJFYk+nWe8ppyADZu2kh2le/9gqG4uDjsY1FRUcHu3N1+naewqhCAdRvWkV3qe79A2J+/n6raKr/Hoqaqhp07d4Z9/Hbk7qC2sjbs53HH37GoqqxiV+6usMtYXF7M/rz9fp8nf38+B8sP+tVvYf5C/4RrAl8U0iXmX/eSE0GFfYvIHKCzl033YrjfHjLP8RDwJPBX8PrYrppop5ltdQ1KTQOmAUhXUYcdcRjH9jy2mauA9fvXwwIYfOhgxg8f3+z+0UKrnFawBFJSUhg/fnxYz5W2Lo2MNhl+naesqgx+hj59+zD+WN/7BUN2dnbYxyJhQQLdunbz6zz5ZfnwK/Tv35/xR/neLxDabWtHdW01aWlpfsmYvCiZzl06h338Unem0impU9jP446/v4tWS1uR1TkrLDLWqlrm75zPmO5jqPq5iv69+/t9nsy8TA7mH/Sr387lO0OW3dSXhbF9QnMqj2Oe6Mt+IvIK8IX5MQcjj55Fd2CX2d7dS7t7nxwRSQDaAs1adr4mF7TcJLHmsrM7P5qT3VR2Eg1zSAG57GyKsgt03sROwjmH9NWGrzjzvTOZ/efZVNZU2hbUsLd0r9/nafT8ze0gIokicoOIfGS+/i4iiSGToOH5urh9PAej5AXA58BFZuRcH4zghflKqVygSETGmNF1l1FX0fZz4HLz/XnA903NH1n4ulI5GuqvBEK0JFeNySg7B2f7DiaowY6Hm0Ajy+wk1AqpprbG8BgAa/etBeC1Ja8B2BbUsLdkb8geyn05yovASOAF8zXSbAsXj5sh3MuBE4CbAZRSq4AZwGrgG+B6pZRlykwGXgU2Yqyb+tpsnw50NAMgbgHu8kWAGuWjhRSrUXY2J1cNtPxEzEXZObw2VHVtNQlxvnj5PbFrIr+0qrTFWUg3fnMjA54dwKb8TWzK3wTAeyvfA7BtHdLe0r1ktM7w+1ze8OXXNUopdZjb5+9FZFlIzu4FpdSfm9g2FZjqpX0hMNRLezlwvr8ytHSXndMzNbgKCMaiheTgTA2lVaVkpPp/47E11LkFWEgV1RUkxicSJ3Gs3beWnUU76f9sfwAS4hJcHp5wuewmfzGZIZlDmNBnAm2S2xgKKTWDPPL8v5j65/dhnxoR6Wd9EJG+QOQqONmArxZSzLrsbA77dnJ2AjuprKn0ex2NnfNpgYZVB+uy21uylw37NzS7XzSEfQerkJRSpExN4e9fGWHWeSV5DMsc5trubqmEw0KqrKlk+pLpPDv/WQa/MJi+z/Rlb0noLCRf7gS3YYR+Z4vIXIxFsreG5OwOxdc5pFh12Tk9qCFWXXYVNRUkJyT71cfO+bTSqlJaJ/h/ww82qGHAswMY+NzABu05B3NYsHOB63M0WEjBjkVplbEc5cWFxqzJnpI9jO0+lsK7jPD/SYMmueogBTqH1NQD+ao9q6iqrTIijDEUVF5JHpmpmX6fyxtNuuzMTAiHYQQQDMIIo15rLk6NWbTLzr6bnA5qMKipraFW1ZIc759CsvPhIdA5mmCzfRdWFHpt7/9MfypqKlBTjGOXVUdHlF0wY1FUWeR6f8TLR7CnZA+ZqZm0SW5D7q25tE9pzzcbv2Fb4baALKT4uKYL9C3ZvaRB26b8TZx7yLl+n8sbTd5JzaCBSUqpCqXUcqXUslhXRqBddk7P1ACGjLHksquoMf6t/HXZ2T2HFKjLLhTy1T+GNWZg/I7Kq8sdbyEFOxbFlcWu91aKs6y0LAA6p3UmOSGZbm2MvACBpFGKo06+Pk/34a+f/dVj+8o9K2md2JrubepW2igUvdr18vtc3s/fPL+KyHMicpyIjLBeITm7Q/HZQopRl53dQQ1OTthpF1a6qkBdduFWzrWqlvLq8oAUUqii7BbnLub7Ld83aK+ureaNZW8Agbmp7MSbQtqYv5Gqmiqf+hdVFDVoq+8u65ZuKKR9pf5XDIqTOHIO5vD+yvfZemArry99HYBdRbuYtXEWG/M30q99Pyb2m+jRr3e73n6fy+v5fdjnaIyEpg9iZE14Evh3SM7uUHyeQ4pVlx32BQ0EXNLAplBiu6ioDsxCsstlV15tpGuKRFCDxahXRjHhzQkuWSyKK4u54rMrgMAiy+ykvkIqqihiwLMDuGrmVT71tyyk2X+ezfG9jgcaXvODJzzI8KzhnNLvlAb9m8P6ni7++GJXW2VNJbfPvp2J70xk5vqZ9O/QnwdPeJAvL/nStY+dCul8pdQJ9V5/CMnZHUpLd9nZXdJAu+zq3E/+ziHZ5bKzJtOdUNJg7ta5Hp93Fe1yvY+2KLudRTsBeHPZm432qa6tdv3WdxzcAUB6UjqPTHiEdintGN1ttMf+h3Q6hGXXLaNj645+y+c+lhb3fX8fB8oPuD73a9+PLuldOG2AqzIQvdqGxmXXaFCDiJwJvAZUiUgtcIFS6teQnNXhaJeds9chgXbZWdgV9m0ppNaJraHMv76hTh30+K+PeyzQdQ8JjzaXnbsC8Bb2X11bTeJDidx73L2M6T6GP33yJwDSktIYkjmEgjsLQirf5oLNDdqe+PUJjzkj92CJlZNX8sPWHwKqTuuNpiykqcBxSqmuwB+BR0JyxijAX5ddrFlIdrrsAi36pl12BnZFHFrpaQJ22QX4W/JWCub7Ld9z4lt16TA35NcpJH8tTLupr5Byi3Jd7z9d82mD/fOKjcWmT8570mN7enJ6WOTbcmCLx+dnT30WMELsT+p7EsOzhvOn4X9ybR+SOYS/jw5N6QloWiFVK6XWAiilfgfCMwIOxN/UQTE3h2SjhRRofrRYc9m5LKQAbqiChP27crnsbMqPZlF/Ev/ioRc32GdK9hTXe3fXkhNpoJCKDYWUmZrJtMXTGuxvbReE2Ztnu9rTktLCIl+n1p08Po/pPoahmUYSnKN7HM2y65ZxSKdDwnJuaFohZYrILdbLy+eYxVeXnWsOKdZcdnaGfWuXHRB42DfYYy16uOz8JBj5DlYc9Pg8sf9E5v7Fcw7Jki1Q+eyk/ljkFuXSKqEVZww4g9V7VzfY33LplVWXueaPIHwK6ecrfmbmxTNJjDPyZ3do1YE/HvpHAHq06dFU15DQlEJ6BcMqsl71P8csPltIMeqyi4qghhh12fk7hwT2WIvBKKRgHh7qK6QuaV1cT+z1+ej8j7h4WEMLyklYY1FSWUJxZTG7infRJb0Lfdv3ZXfxbg/lCp4uPXfCVaq9T/s+nDHwDAZ1GgRAx1YduWTYJXRs1ZEjux4ZlnO602hQg1LqgbCf3aH4mzooVl12Ts3UANpl544d1mJZdd0c0kEONrO3J4EENcxcN5PDOx/eQCEd0eUIOrTqwDmHnMPILiO574f7AMPl9cfBf/TrHJEgTuJYnrecQc8NQqHo2Kojfdr1oU97o+zc1gNbGZwxGDDWJ934zY2uvr3b9Wbrga22yDkkYwhr9q6hTXIb2qa0Zd8d/q9pCoTYupOGCO2yc3ZyVbAvg7RdRIvLLtCwb38eHqprq5n0/iSOfu1oCsqNKLK7jrmLNdevcc1xfHLhJ9x6dF1Kzd237vZbrkjwy/Zf2Fe6j51FO9lVtIsVe1Ywsf9E+rQzFNKWgi0opdh6YCtDXxjqkY3ipL4n2Sbnn4f/mclHTrbd+6MVkhdausvO9qCGABfG2jmH9PSGp7nwowvDdvxAw74h+PxozVFYXsgX643CzXakDtpbYlQgzTmY47IIbhl7S4PJdHdrMlr+B2886sYGbWcMPIO+7fsCsCxvGR+v+Zg+T/fxUEZgKCT3zN7h5PSBp/Psac/aci53/K+21QLw1UKyFJeVXTdWsDPsu7Km0pE34fr8b9f/YBd8cN4HYTm+aw4pwCi7cFlIv+X8xq3f3sqvO4wliIGsNxERsrdmM+qVUcz58xzaprRtcv/dxXXWzuaCzaQlpTWI/rKOC3DhkPA9KISaJ095kn9N+Bfzd87nnRXvcGzPYzmk0yEopTih9wnc+/29rn3Tk9LJvTWX9fvX8+CPDzKx/0TOPuTsmPIM1KdZhSQiWcC/gK5KqVNFZDAwVik1PezSRQhf55Cs/FOJ8WGr6B4R7AxqKK8uDygrcThvwk0RaBBGcwTjsrPmkFbtWUX7Vu3pmt41aHlqamtYnrecsdPHAnBk1yO5esTVXhVDcwhCRU0FC3ct5NcdvyIiTOw/sdH96yukvu37NjrmlfdVEh8XXQ+EyQnJHNfrOI7rdZyrTUR4ddKr9HvGKD3XsVVHVkxeQWpSKkd0OYJPL2y4RikW8cVl919gFmD9ytcDN4VJHkfgq8uuqtZUSHGxpZDsdNkFrJBsdtlZuKf/DyXBuOysOaShLw6lz9N9Ajr/vtJ9fLneyE22vXA7CQ8lcMknl7i2//P4f3LNyGsCOrb7mJ0741xOfedUfsv5rcF+M1bN4IlfnvBQSGv2rXG5s7xhVU6NBfq278vnF30OGNkQuqR3ibBE9uPLN9lJKTUDqAVQSlUTwxVjRcRnl51lScWahWSXy666tpoaVRNwZUu7XHbuobiNheEGS6CZGsAz4tBbZgNfOOeDczjjvTMoLC/ko9UfAbB231rX9qN7HB3QccGYg7KwEqPmFedRWVPJlZ9dyXPzn+PbTd9y4UcXcsecOzwU0sb8jQzqOCjgc0cb1jif2v/UCEsSGXyZQyoRkY5gPI6KyBjAe8WsGMFnC8l02bnn1YoF7LKQrJuTU112SinKqsvYU7LH1ZZbnOtaoxFKgg37rr9+xV+sRZkHyg/w2brPXO1vn/M2E/pOCChRp4W37Al5JXk8/OPDvLb0NVjqOQ+7vXA7AIdlHUaf9n247ejbAj53tNGxdUfWXr82ZPWFog1f7qS3AJ8D/UTkFyADOC+sUkUYn+eQYtVlZ1PYd1AKyQaX3dvL3+ay/13Gm2fXZWIOm4VUE8TCWBH2l+1vdr/3VrxHZmomE/pOYHfxbjqndXZts9xee0v3snDXQvq060PblLacfcjZQSfOtFx2wzKHsWLPCgBmbZrFZ2vrFJ/7Q+Ci3EUM7DiQpdctDeq80Uo4HniihWZddkqpxcA4jLpI1wJDlFLLwy1YpBB8d9npoIbgCEYh2eGye+RnI5+w++LE5xc8HxbLzLKQAnm4iZM49pbubXa/e7+/lwd/fJDNBZvp8mQXnvjlCdc26yHk95zfKa0qZcq4KSy5dknIsjgDHoEMn6z5hBpVw4guRq3P60ddT5vkNgAs2LWgyXkjTezSrEISkfOBVkqpVcDZwAcxXzFWBzUA4c/U4GSX3YHyA6zZtwbAtTjznEPO4Zcdv3jMrYSKiuoKkuKTAk40614dtDFFvbd0LyvyVrA4dzEAd8y5A4Cftv3kUmjfbfkOMDIihJr6kXVJ8UlcecSVAPzl8L/w8xU/u7b1bacVUkvEl6CG/6eUKhKRY4FTgDeAF8MrVuTQFpJ22QFsO7AN8JzM/8fofwAw+cvJPPzjwz7/TnyhoqYi4PxkcRLnWkwKhsvLmvdauGshU3+cSnl1OcWVxRSUF/Dtpm9d++YczOH4/x7v+vzjth9JiEvg0E6HBngljTO622iuH3U9/Tv0B6Bn255MPnIym27YxJFdj6Rbm26ufbWF1DLxRSFZ/3WnAy8qpT4DwpPZzwmInkOKhqCGcKcOsjIrnzXoLACS4pLISssCjJv2//vh//HLjl88+kxfPN1rgTNfqKypDLiWj4inhTTqlVFk/TuLlxa+xKhXRnHfD/exbt861/b3V77vev/z9p89jrW/bD992/cNy0NWamIqz532HNePuh7AZRFayqd9SnvXvlohtUx8UUg7ReRl4ALgKxFJ9rFfVCKI31F2sWohhXuOJliXXTgUZq2q5aG5D7nKZE8aNAmAc7qe4xEEADBn8xzX+8qaSq6aeRXHvnas3+fcV7qPbzZ+Q/tW7Zvf2QuNJVed/OVk1/sftv7gel9UWcQp/U4hJSGFu+bc1aBfuMKsrQedo7odBeARvWht/8/J/wFgWJY9KXI0zsKXKLsLgInAv5VSB0SkC3B7eMWKLC19DikaghpEwpPte+Welfwz+5+A8b0O7DiQvNvyWDF/hccTfOvE1ny35TsePOFBAEoqS4C6gmr+8OGqD9lUsIlvL/22+Z294IuL9cPVH3p8PqbHMXRL72aEXddjYMeBAcnhK9b81BWHX9Fg281jb+Yvh/8lYOWsiW58ibIrVUp9AhSKSE8gEQhqVldEzheRVSJSKyJH1tt2t4hsFJF1InKKW/tIEVlhbntGzMctEUkWkQ/M9t9FpLdbn8tFZIP5utwn2ZAWnzqoJbvslufVBZB2b9OdOIkjMzWTeIn3CDi4aMhFLMldwq6iXWw7sI2SqhKP4/yW8xv/W/s/wLjO91a851Kgn639zKOMwHdbvqNn256c2PdEAsFSguccco6rbXjWcI99rFx0FmN7jGX6Wd6zfw3JGBKQHI3xxtlv8PiJj7s+pySkcPCugzwy4RGv+2tl1HLxJcpukohsALYAc82/Xwd53pXAucCP9c41GLgIGIJhlb0g4lox9yJwDTDAfFkhO1cCBUqp/sBTwGPmsToAU4CjgNHAFBHx6Zfub6YGnVw1MJzksjtYcRB5QPjbl39ztVk1arwxrvc4yqrL6PafbvR+urfLQrJ4/JfHueHrGwC44esbuOSTS/hp+0/UqlrO/uBs+jzdhwHPDmDEyyP4eM3H/KHPH4LOkXfPcffUyd6uTnb3DNPjeo0DYFTXUQD8+tdf6d2ut2v7lHFTuHT4pUHJUZ/LDruM24/xdKqkJ6dHXQ46TfjxxWX3EDAGmKOUOkJETgCCKsuolFoDXlPGnwW8r5SqALaIyEZgtIhsBdoopeaZ/d7ECEH/2uxzv9n/I+A503o6BZitlMo3+8zGUGLvNSWbX3NItVUkxiVGTep7X7Hrepy0DskKRnDPu2bdtN1JT0qnqLKIIzp7hkXXt5Dyy/LZVbSLmtoaXl/6OmBYTQ//+LBrn435G13vB3caHPQ1WGt6wFMhPXTCQ2SlZvHiwheZefFMNhdsdmXcHttjLBv+sYEpP0zhH0f9o8E8mUZjJ74opCql1H4RiROROKXUDyLyWJjk6Qa4Z13MMduqzPf1260+O8DIsycihUBH93YvfRpHfLeQqmqqYs5dB24WUphcdj9t+4kFuxa4FkIGOocUSpede5SahbeSzdtu2kZ1bTXtW7UnMS7RNY9ohYlbFJQXUKNq2JC/wWVJ3znnTo99Dss6jGV5ywCCShVz4ZAL6de+n0eSUXfrLi0pjbuPu5u7j7vbOG/nwzz6J8QlMHXC1IDPr9GECl8U0gERScNwr70jInuAZidZRGQO4O1x614zdNxrNy9tqon2QPt4nlTkGgx3IAldEsjbm0d2dnYjItaxZfsWpFZ82jeaKKsxylVXVFSE5dpOmHsCADf0N1xai35fxMbEjU11aUBZaRl5exp+T2U1ZcRLPElx/q1MmLN7ToO22u21ZO8xjl9cXNzgXJ2SOpFbbszffDH/C1d798e7s7NsJwDTvp3W6Dl7xPVgGYZC2rdpH9l7sxvdtymu63QdgId8JTl1FtvcuXMDOm5jeBuLlooei9Dii0I6CygHbgb+BLQFHmyuk1IqkBnaHKCH2+fuwC6zvbuXdvc+OSKSYMqXb7aPr9cnuxFZpwHTAFJ6pKh2Hdoxfvx4b7t68GHJh6Tkp/i0bzRRWlUKP0NiUiIZgzO4eubVvHPuO03OqfiKUsqYiQS69+4OG2HCuAmkJaX5dZy0VWl0yujUYOzlAeHQToey+vrVfh1v3k/zwFyqc99x93Hb0bd5FJLLzs5ucK6MtRkuhVSaVpfc1FJGAHkpeY2ec8whY/gi11Bk5/7h3NC4y8yxnXTcJO5Zacwphfr36W0sWip6LEKLL1F2JUqpGqVUtVLqDaXUM0qp5jM5BsbnwEVm5FwfjOCF+UqpXKBIRMaY80OXAZ+59bEi6M4DvlfG5MIs4GQRaW8GM5xstjWJX5kaamPbZTdtyzQ+WfMJ83LmedTGCYZthXWuLSshaCAuuzbJbTzKGgDM2zEPMGrovLbkNT5e/XGDfs/Nf45XF7/q0bZu3zru+b4uICArLavZqqbgWc7bfbGpO9Z6Jm+ZD1oltnK9z0zNbPZ8/tCzbc+QHk+jsQNfouzONcOmC0XkoIgUicjBYE4qIueISA4wFvhSRGYBmPnyZgCrgW+A65VyRRhMBl4FNgKbqIv0mw50NAMgbgHuMo+VjxGQscB8PWgFODSHv0ENsYZ7UMOM1TMA2FG4o7HdfWJ74XZOeusksrdmu9r2luwlTuICKt+RmZrpsbDyl+2/cPRrdWl+rvz8Ss77sGFS+n98/Q+unnm1R9v9c+/3+JyVmuWTDFbgQFM3/51FO2mX0o7vLvuOlZNXemwbnjWcRyc8yqn9Tw1ZkbkJfSYA+G1xajROwJc7wePAmVZkXChQSn0KeK3Jq5SaCjSYYVVKLQSGemkvB85v5FivAQ1X/jWBv+uQYtlCAliz1/jaiyuLgzrmTd/cxJzNczwKyO0p3ROQdQSG0liwawFgRLRd+fmVXvfbUbiDHm17NGivrq3mxq9v5MYxN7Js9zKPbb5aK8+f9jxHdD6CE/qcwKhXGkbkWfRt35cu6V08KoCumLyCoZlDObHvidx57J2N9vWXzy/+nLzivJiL/NS0DHx5LMsLpTJyPP5E2cWoheT+tG5Zi4UVhUElE7UWZuYV182pbC/c7oq085estCz2luylVtXy1LynWLd/ndf9ev5fT9caoS/W1wUe/PvXf/PCwhc46/2zWLNvDY+f+DiHZRnRZ+nJ6T7J0L5Ve24/5na6pnd1tRXdXeSyUizc87LdP+5+JvafyNDMBs9WIaF1YmvXXN83f/qGJdcuCct5NJpw0KiFJCLnmm8XisgHwP+ACmu7mb0h5vA3l11MWkiNPF0frDgY0Cr6iuoK8koMReSuOJbnLeeYHscEJGNmaiY1qob8snxW7l1JnMSx7u/rePTnR5m+xDMDwbbCbdTU1nDme2e62u7+zgiBttYCDc4YzG1H38afP/2z34k93S2qtKQ019xQ+5T2FJQX0K99P9f2KeOn+HehQXBK/1Oa30mjcRBNWUhnmq82QClGUIDVdkb4RYsc2kLy/FlYmSjql6K+Y/YdHPf6cQ36v7P8Hab8UHfjbap+UL8O/Rrd1hTWPM+ekj2s2buGswadRf8O/V31ddw5+/2zG6TOsbDcs33a9+HS4ZeipijapbTzS5b6c2AXDrkQwJUKSGeu1mh8o1ELSSnVMPNhC8CfOaTq2uqYtJDiJI4dN+/gtVmvMWX1FE4dcCpfrP+CgvIC+lAX+v3Er0bFUaUUIkJheSG/5fzGpZ8aqWe6pHdhd/HuBjfkXm17uaLt+rfvH5CMllUy5AUj75qVx21AxwEkxScx9Q9TKSwv5OGfHmZD/gau+/K6Jo/nnj4nWC4dfimTBk1ixqoZfLj6Q62QNBofaTaoQUT6Ak9jpA9SwDzgJqXUljDLFjH8ctnFoIUERmLR4zOOp/aftczdNpcv1n/hYSG5p+15Y9kbFJYX8vyC59mQv8HVbpU/uHT4paQkpJCZmsn2wu0M6jSoTiF1CEwh1e9nZR/o1LoTpfeUEh8XT01tDQ//9LC37h5kpWZ5hHCHgjbJbTix74mcMfAMRncbHdJjazSxii9Rdu8CzwNWKuGLgPcxkpbGHHodkici4iq7UFBW4Gq35oQArvisoTE9pvsYfssxskC9vfxtDu10qEvRj+g8wlW1dHBGYDncerTtwZ7b9tCxdUdW7VnlcRwraaevyTtDseB3zp/nuMqAW/Ru15uZF88M+tgaTUvBlyg7UUq9ZS6MrVZKvU0jKXhiBW0heWLNqbhbSKv3Np0JIfvybOb8eY7LtdajbQ9yDhrpCMf2GOvab0hm4KUOMlIziJM4hmUNa1T5PDrhUR6d8KhHW1pSGjMvnsnFQ40cwcf28L+oXn0m9J3ARUMvCvo4Gk1LxheF9IOI3CUivUWkl4jcgbGYtYNZ4iGmEGk4h1Sravl1x68uN9W6fetI/Vcqa/etjXkLCerq07gXn9teuL3JPskJyUzoO4FDOh0CQPf07kZKIvDIlB3Iolh/uPPYO7nz2DtZft1y7j3uXgRh7+17OWPgGa7M3hP6TmjmKBqNxg58UUgXAtcCP2DkgpsM/BVYBCwMm2QRxHLZrdqzioMVB5m5bibHvHYMzy94HoDXlrxGaVUpBeUFLcJCSktKIzM1kwfnPujKap1bZCine469p8lJeytYoEfbHpzSzwhD7t6mO5cddhnPnfpceAV3Y1jWMB7+w8PUTql1LcZ97MTHuH7U9QEXxtNoNKGl2cdTpVTwDvYoIk7i2Fe6j5raGoa+OJQuaV24f/z9ADz121OM6zWOD1Z94No/3E/4TiBO4vjqkq848pUj6f10bx6Z8Ai7inbRNrktUydMZeqEqWzYv4GM1Ayem/8c43uPd/VNTUwFjEn+Ty/8lOLKYkSEN85+I0JXU8fgjME8d5p9SlGj0TSNT3dTETka6O2+v1LqzTDJFFGS45LZU7GH+TvnA4ab6oetPwCwpWALw1/yLA3dElx2ACO7juTCIRfywaoPuPu7u+nVtpdHKpwBHQcAcN/x93n0syykNsltaJXYyiOhqEaj0bjjS3LVt4B/A8cCo8xXw8plMYJVR+ezdXUlm6yMzd4K1rUEl53Ff8/+L8uvWw4Y2Q+6pHVppgfcNOYmXjz9Rf5y+F/CLJ1Go4l2fLGQjgQGq1DWi3YwlkL639r/udrcJ/Pr05IUUkpCCkMyh5CamEpJVYmHhdQYSfFJXHdk04tSNRqNBnwLaliJ98qvMUmCJNAmuQ3r9q8jPSndlTbHPR+ZOy3FZWcRJ3GuQnI92jTMoq3RaDSB4otC6gSsFpFZIvK59Qq3YJHEKqY2LGuYywoY032M133bJjdfyC3W+PvovzOhzwRuPOrGSIui0WhiCF9cdveHWwincUinQ/h95+8clnUYm/I3AUYxtVmbZrGvdJ/Hvi0xT9lNY27ipjE3RVoMjUYTY/gS9j3XDkGchBWq3KttL1eKnAuGXEBaUhrXf3U9x/Q4hl92/AKEJu2MRqPRaJquh1SE9xRBAiilVGCV1aKAcb3H8cLCFxjbYyyfXvgpC3YuoHe73vxt1N84pd8p9OvQD3nAqBnUEi0kjUajCQdNlZ/wrWxmDHLBkAsY232sq/T12Yec7dpWv35Pz7Y97RRNo9FoYhZfghpaJJYyaozHTnyMw7IOIyk+ySaJNBqNJrbRCilA7jjmDpZetzTSYmg0Gk3MoBWSRqPRaByBVkgajUajcQRaIWk0Go3GEWiFpNFoNBpHoBWSRqPRaByBVkgajUajcQRaIWk0Go3GEUREIYnI+SKySkRqReRIt/beIlImIkvN10tu20aKyAoR2Sgiz4iImO3JIvKB2f67iPR263O5iGwwX5fbepEajUaj8YtIWUgrgXOBH71s26SUOtx8uVd2exG4Bhhgviaa7VcCBUqp/sBTwGMAItIBmAIcBYwGpohI+3BcjEaj0WiCJyIKSSm1Rim1ztf9RaQL0EYpNc+sXPsmcLa5+SzgDfP9R8AE03o6BZitlMpXShUAs6lTYhqNRqNxGL7UQ7KbPiKyBDgI3KeU+gnoBuS47ZNjtmH+3QGglKoWkUKgo3u7lz4eiMg1GNYXQIWIrAzRtUQ7nYB9ze7VMtBjUYceizr0WNQxKNgDhE0hicgcvJc+v1cp9Vkj3XKBnkqp/SIyEvifiAzBKHlRH6s0RmPbmurj2ajUNGCaKfdCpdSR3vZraeixqEOPRR16LOrQY1GHiCwM9hhhU0hKqRMD6FMBVJjvF4nIJmAghnXT3W3X7sAu830O0APIEZEEoC2Qb7aPr9cn21+ZNBqNRmMPjgr7FpEMEYk33/fFCF7YrJTKBYpEZIw5P3QZYFlZnwNWBN15wPfmPNMs4GQRaW8GM5xstmk0Go3GgURkDklEzgGeBTKAL0VkqVLqFOB44EERqQZqgOuUUvlmt8nAf4FWwNfmC2A68JaIbMSwjC4CUErli8hDwAJzvwfdjtUU04K9vhhCj0Udeizq0GNRhx6LOoIeCzGMCY1Go9FoIoujXHYajUajablohaTRaDQaR6AVkhsiMlFE1plpiO6KtDzhRkReE5E97uuuRKSDiMw20y3Nds9uISJ3m2OzTkROiYzU4UFEeojIDyKyxkxrdaPZ3uLGQ0RSRGS+iCwzx+IBs73FjQWAiMSLyBIR+cL83CLHAUBEtpop3JZaYd4hHQ+llH4Z82jxwCagL5AELAMGR1quMF/z8cAIYKVb2+PAXeb7u4DHzPeDzTFJBvqYYxUf6WsI4Vh0AUaY79OB9eY1t7jxwFjDl2a+TwR+B8a0xLEwr+8W4F3gC/NzixwH8xq3Ap3qtYVsPLSFVMdoYKNSarNSqhJ4HyMtUcyilPoRIzLRHfdUTG/gmaLpfaVUhVJqC7ARY8xiAqVUrlJqsfm+CFiDkdmjxY2HMig2PyaaL0ULHAsR6Q6cDrzq1tzixqEZQjYeWiHV4XOqoRgnSxnrvjD/ZprtLWZ8zIzxR2BYBi1yPEw31VJgD0ZOyJY6Fv8H3AHUurW1xHGwUMC3IrLITLkGIRwPJ+ayixQ+pxpqobSI8RGRNOBj4Cal1EGzyonXXb20xcx4KKVqgMNFpB3wqYgMbWL3mBwLETkD2KOMrDHjfenipS3qx6EexyildolIJjBbRNY2sa/f46EtpDqsFEQW7umJWhJ5ZnZ1K8v6HrM95sdHRBIxlNE7SqlPzOYWOx4ASqkDGCm3JtLyxuIYYJKIbMVw4f9BRN6m5Y2DC6XULvPvHuBTDBdcyMZDK6Q6FgADRKSPiCRhZHz4PMIyRQL3VEyX45mi6SIxCiL2wUjrND8C8oUFMyXVdGCNUuo/bpta3HiYKbzame9bAScCa2lhY6GUulsp1V0p1RvjfvC9UupSWtg4WIhIqoikW+8x0rGtJJTjEemoDSe9gNMwoqs2YWQlj7hMYb7e9zAyrFdhPM1ciVG64ztgg/m3g9v+95pjsw44NdLyh3gsjsVwJywHlpqv01rieADDgSXmWKwE/mm2t7ixcLu+8dRF2bXIccCIQF5mvlZZ98hQjodOHaTRaDQaR6BddhqNRqNxBFohaTQajcYRaIWk0Wg0GkegFZJGo9FoHIFWSBqNRqNxBFohaTQhQkQ6mlmQl4rIbhHZab4vFpEXwnTOm0TkshAc530RGRAKmTSaQNFh3xpNGBCR+4FipdS/w3iOBGAxRpby6iCPNQ64VCl1dUiE02gCQFtIGk2YEZHxbrV07heRN0TkW7O2zLki8rhZY+YbM30RIjJSROaaSSxnWalZ6vEHYLGljEQkW0SeEpEfxajrNEpEPjHr1Dxs7pMqIl+KUetopYhcaB7rJ+BEU8lpNBFBKySNxn76YZQ0OAt4G/hBKTUMKANON5XSs8B5SqmRwGvAVC/HOQZYVK+tUil1PPASRgqX64GhwF9EpCNGTrpdSqnDlFJDgW8AlFK1GOUBDgvplWo0fqAVkkZjP18rpaqAFRiFIb8x21cAvYFBGEpktlkC4j6MxJT16QLsrddm5V9cAaxSRp2nCmAzRqLLFRiW0GMicpxSqtCt7x6ga5DXptEEjDbPNRr7qQDDKhGRKlU3kVuL8T8pGMpkbDPHKQNSvB3bPFaFW3stkKCUWi8iIzHy9D0iIt8qpR4090kxj6nRRARtIWk0zmMdkCEiY8EoiyEiQ7zstwbo78+BRaQrUKqUehv4N0YJe4uBGEkzNZqIoC0kjcZhKKUqReQ84BkRaYvxf/p/NFQWXwNv+Xn4YcATIlKLkeV9MoCIZAFlyqz8qdFEAh32rdFEMSLyKXCHUmpDkMe5GTiolJoeGsk0Gv/RLjuNJrq5CyO4IVgOAG+E4DgaTcBoC0mj0Wg0jkBbSBqNRqNxBFohaTQajcYRaIWk0Wg0GkegFZJGo9FoHIFWSBqNRqNxBP8fp6WSeOZzyQMAAAAASUVORK5CYII=;imageBorder=default;" vertex="1" parent="1">
          <mxGeometry x="460" y="180" width="420" height="278" as="geometry" />
        </mxCell>
        <mxCell id="MIplbjMhPZChMv7-PSJD-3" value="" style="shape=image;verticalLabelPosition=bottom;labelBackgroundColor=default;verticalAlign=top;aspect=fixed;imageAspect=0;image=data:image/png,iVBORw0KGgoAAAANSUhEUgAAAaQAAAEWCAYAAAApTuNLAAAAOXRFWHRTb2Z0d2FyZQBNYXRwbG90bGliIHZlcnNpb24zLjUuMSwgaHR0cHM6Ly9tYXRwbG90bGliLm9yZy/YYfK9AAAACXBIWXMAAAsTAAALEwEAmpwYAABm6klEQVR4nO2dd3gc1bXAf0eSrWZJtmXZuPcCNsXYGFNtqoEAJoSaUAIEQgI8IIQEEl4ghZbkBZJASAiEYojpHQyYIqoLYNyNu427bMtWs7rO+2NmdmellbQ7qx2tVvf3fftp987cuXevpDlzyj1HVBWDwWAwGNqblPaegMFgMBgMYASSwWAwGBIEI5AMBoPBkBAYgWQwGAyGhMAIJIPBYDAkBEYgGQwGgyEhMALJkFSIyA9E5N04XXuQiJSLSGo8rp/oiMgyEZna3vMwJC9GIBl8R0Q2iMgOEcl2tf1IRApjvbaqPq2qJ8d6HQjM80TXtb9V1W6qWt8W1280lopIhS3wdovI+yJyfhT9p4rI5hjGH2LPodx+7RCRf4hIF+ccVR2rqoX2+XeIyFMex7pDRGrtcfaKyOcicoR97IciUm8fKxWRRSJyeph5vtnomk+JyB32+wNE5EsR2WO/3hORA7zM1eAvRiAZ2os04Pr2nkSCcbCqdgNGA48DD4jI7T7Pobs9hwOBI4Br4jTOs/Y4BcCnwEsiIvaxOfax7sA/gGdEpHuj/pNF5Khmrr0VOAfoCfQCXgOeadvpG+KBEUiG9uJPwM/D3GgAEJG/isgm+yn5KxE5xm7vJyKVItLTde54EdklIl3sJ+xPXcdOFpGVIlJiP/F/JCI/so8NF5EPbI1kl4g87cxHRGYAg4DX7af1X7ieztNcc3lNRIpFZI2IXOka9w4ReU5EnhSRMtvcNTGShVHVXao6A/gJcKuI5NvXvExEVtjXWyciP7bbs4FZQD+XhtNPRCaJyBxbC9kmIg+ISNcI51AEzAYCmoWjMYrIKcCvgPPtsRbZx39oz6tMRNaLyA8iGKcWeALYD8hvdKwBmAFkAyMbdf0j8IdmrrlXVTeolYZGgHpgRCTf29C+GIFkaC++BAqBnzdz/AvgEKyn3P8Cz4tIhqpuBeYA33Od+33gBfvmFkBEegEvALdi3exWAke6TwHuBvoB+wMDgTsAVPVi4FvgDNtM98cwc5wJbLb7nwPcJSInuI6fifVk3h3rKf2BZr5rc7yKpUlOsj8XAacDucBlwH0icqiqVgCnAlvtuXaz16keuBFLSzgCOAH4aSQDi0g/YBowt/ExVX0buAtby1HVg22h+DfgVFXNwVrnhRGMkw78ENisqrsaHUu1v2ctsLFR1weBUeIyqYa59l6gCvi7PV9DgmMEkqE9+Q1wnYgUND6gqk+p6m5VrVPV/wPSsUxZYAmoCwFsM88FdltjTgOWqepLqlqHdcPc7hpjjarOVtVqVd0J/AWYEsnERWQgcDTwS1WtUtWFwCPAxa7TPlXVt2yf0wzg4Eiu7ZpfLbALSyijqm+q6lq1+Ah4Fzimhf5fqepcew03AP+K4Pvtsm/kW4AKLIEeKQ3AOBHJVNVtqrqshXPPs8fZBEwAznIdm+wSJn8GLrI1NjdVwJ00oyUBqGp3IA+4Fvg6iu9haCeMQDK0G6q6FHgDuKXxMRG5yTZPldg3pzysJ32wbpJH2E/xxwIKfBJmiH5YNzxnPMXSaJwxeovIMyKyRURKgadcY7RGP6BYVctcbRuB/q7P213v9wEZjrkvEsQKKCgAiu3Pp4rIXNtEuBdL4DY7XxEZJSJviMh2+/vd1dL5Nr3sG3kW8BnwdiRztbW084GrgW0i8qaIjGmhy3Oq2l1Ve6vq8ar6levYXHsOPbA0y+aE7r+BPiJyRivz+ifwpIj0juS7GNoPI5AM7c3twJW4buS2v+iXwHlAD/vmVIJlYkNV92JpB+dhmetmavi09duAAa7rivszlrlOgYNUNRe4yBnDpqVU+FuBniKS42obhKVZtBXTgTpgvm3aehFLY+hjr8lbrvmGm+tDwDfASPv7/YrQ79csqlqJFVhxhG36bHJKmD7vqOpJQF973H9HMlYLcyjHMjFeLCLjwxyvBX4L/J6Wv1cKloDt38I5hgTACCRDu6Kqa4Bngf9xNedg3Yh3Amki8hssv4mb/wKXYPmSwpnrAN4EDhSRs2zN5Bos57l7nHJgr4j0B25u1H8HMKyZeW8CPgfuFpEMETkIuAJ4uoWvGxEi0tMOCHgQuFdVdwNdscyWO4E6ETkVcIe37wDyRSSv0fcrBcptbeUnUcwhHcv8uB3YHeaUHcAQEUmxz+8jImfavqRqrHWNOTze/u6PYJl3wzEDa11Occ39JLECXVJFJBfLFLsHWBHrfAzxxQgkQyLwO6xIKod3sKLGVmGZwapwmd5sXsOKvNqhqovCXdR2kp+LFZG1Gyti7EusGyZYT9eHYmlfbwIvNbrE3cBtdpRauOCLC4EhWNrSy8Dtqjq7le/aEotEpBxYA/wIuFFVf2N/lzIsof0c1s31+1hr4HzXb7CCLNbZ8+2HFTDyfaAMS1t5NoI57LXnsAMrEOLMZrTP5+2fu0VkAda95CastSjG8lVFFEARAfcDp9lCPwTbP3c7tp/NpjvWWpQAa7Ei7E5R1ao2mo8hTogp0GfoLNhP85uBH6jqh+09H4PBEIrRkAxJjYhME5HutgnK8aE0CWU2GAztT7sKJBH5j4gUichSV9sddtTTQvt1muvYrfYGxJUiMs3VPkFEltjH/mY7rxGRdBF51m6fJyJDfP2ChkTgCCyzzS7gDOAs22FvMBgSjHY12YnIsVjOzydVdZzddgdQrqp/bnTuAVh24UlYIbfvAaNUtV5E5mOloZmLFXn0N1WdJSI/xYqgulpELgC+q6oR5wczGAwGg3+0q4akqh9j77GIgOnAM/YmxvVYjt9JItIXyFXVObbz9UmCm+ymY6UlAWvvygmO9mQwGAyGxCLiTXo+c62IXIIVEXWTqu7B2kPgtv1vtttqcW12dLVj/9wEoKp1IlKClUKmcYqSq4CrADIyMiYMGjSozb9QR6ShoYGUFONmBLMWbsxaBDFrEWTVqlW7VLVJ1pVoSESB9BDWRje1f/4fcDnhN75pC+20cizYoPow8DDA6NGjdeXKldHPOgkpLCxk6tSp7T2NhMCsRRCzFkHMWgQRkcb5BqMm4US7qu5Q1Xo70++/CSaW3IyV/NJhANaeh82E7r532kP62Bsj84jcRGgwGAwGH0k4gWT7hBy+CzgReK8BF9iRc0OxNkXOV9VtQJmITLb9Q5dgZUl2+lxqvz8H+KCZTX4Gg8FgaGfa1WQnIjOBqUAvsapd3g5MFZFDsExrG4AfA6jqMhF5DliOlVbmGlflzp9g5d3KxNrhP8tufxSYISJrsDSjC+L+pQwGg8HgiXYVSKp6YZjmR1s4/06slPON278ExoVpr8JKHWMwGAyGBCfhTHYGg8Fg6JwYgWQwGAyGhMAIJIPBYDAkBEYgGQwGgyEhMALJYDAYDAmBEUgGg8FgSAiMQDIYDAZDQmAEUgcjHokmVJVb3ruFxTsWt/m1DQaDIVKMQGpn9tXuY/Xu1RGdu6lkEym/S+GpxU+16RxKqku497N7Oe6J49r0ugaDwRANRiB55OONH3P/3Ptjvs70Z6Yz6oFRNGhDq+d+sfULAF5Y/kLM47qprqsGoKa+pk2vazAYDNHQqkASkVEi8r5TZlxEDhKR2+I/tfZn5a6VlFaXhj025fEp3PjOjQC8uepNVu7yVrLivXXvAVBeU97qubv37QYgPzPf01jNsa92H9CyOfCB+Q/wza5v2nRcg8FgcBOJhvRv4FasQnio6mI6QZLSdXvWMebBMfz0zZ+2eJ6qcskrl8SsLZVUlbR6zu5KWyBlxS6QXlz+IjsrdgIugdS0VBQA9Q31XDfrOib9e1LY4waDwdAWRCKQslR1fqO2unhMJpG4b859ABRuKGzxvLKaMoori6mur45pvJLqCASSrSH1yOgR01i79+3mnOfP4bvPfhcICqTmqKitAKzvajAYDPEiEoG0S0SGY1daFZFzgG1xnVUCsLXcqvG3pWwL7697n9r62rDnbSrZBEBtQ/jjkRKJhlRcadUWTE1JjWksxwy5utgKpmhVINVUxDSewWAwREIkAuka4F/AGBHZAtyAVX8oqXH7jk6ccSK///j3Yc/bsHcDAHUN0SuNbkHg1pC2lG4JaENuHJOdl7Hc7K3aG3YezfmQHA0pHEUVRYGgCIPBYIiFVgWSqq5T1ROBAmCMqh6tqhviPrN2prS6lBOHncjL578MwMYSq1x8dV01hz9yeOA8p705DaoltpUFFU1HQ6qqq2LAfQOY9tS0Jufv2rfL81gOTy56kkMfPjSkzRFIlXWVfLzx4yZ9mtOQVJWDHjqI++be53k+BoPB4NBsgT4R+Vkz7QCo6l/iNKeEoLS6lMF5gzlrzFkc2vfQgDB46MuHmL8l6FLbuNcWSB5Mdu7IOkdD+u+S/wLw1bavQs79YssXLNi2AIhNQ7r707ubtLk1tSmPT+HrH3/NIfsdEmhrTkMqqyljR8WOwBoYDAZDLLSkIeXYr4lYJrr+9utq4ID4T619Ka0uJTc9F4BeWb3YvW83e6v2NjHdORqSFyHhjmpzNKSPNn4EwMDcgVz9xtXc9M5NbNi7gUmPTKKyrhKIzV+1p3JPk7bGPqRHFjzS4nGHHeU7ACitCR8abzAYDNHQrIakqr8FEJF3gUNVtcz+fAfwvC+za0dKqkrIS88DLIG0tngts1bPoriymN7ZvSmqKAKCPiQvZjS3z6akuoT6hnoWbl8IwPby7fzrq38B8Je5ocpoLBpSY/8RNBU4n2/6PORzcya7HRWWQIokIMNgMBhaI5KghkGAewt/DTAkLrNJEOob6qmorQhqSJm92LVvF19s/YKMtAyOGxJMsRPwIXnQWtwa0v1z7yft92ks3rGYzLTMsNdbcNUC8tLzPPuQauprQsLTHcHWWCAt2rGIsupgiLfbZFdbX4uq8p3/fod/fvlPgGY3DxsMBkM0RCKQZgDzReQOEbkdmAc8Gd9ptS/OfhtHIOVn5VNSXcKczXMYv994emX1Cpy7vXw74E1rcacLcsxxABcfdHHg/R+O+0Pg/SH7HUKX1C6eNaTG5rqSqhJUNdSHNHgKDdrAnM1zqNd6IFRD6nFvD7aWbeWt1W8FUhhFsofKYDAYWiOSKLs7gcuAPcBe4DJVvSvO82pXnCd+tw8JYN7meRw58EiOHXxskz6xmuwAxhaMpeJXFVx8cFAgnTH6jMB7ESEtJc2zD6lxeqJ6reerbV+FCCQnmGHaU9N4cM2DQKiGVFFbETDpOdrW4h2LA8EYBoPB4JVIctkNAnYBL9uv3XZb0tKcQOqb05dbjr6F88aexzfXfBM4DrGZ7Lp17Ra4flaXLEbljwIgMy2TUfmjyE3PZVJ/K21PlxTvGlK4fHlnP3t2iEA6sPeBgfcvb7VC3hv7kJ5c3FRB/sFLP+CB+Q9w+auXe5pbZ+LAhw7kgfkPtPc0DIaEIxKT3ZvAG/brfWAdMCuek2pvGgukcb3HkZ+Zz9NnPx0QTqN7jaZnZs9AH09RdraGNDhvMAD7ddsPgN7ZvSm7tYx1168jIy2DnTfv5LPLPwNoEw3p/mn3M+eKOWR1yaKkuiREA+qb0zekz7o965r4mGatDv/rv27WdTy28LGwgRMGC1VladFSrpt1XXtPxWBIOCIx2R2oqgfZr5HAJODT+E+t/XBuqI5AOqDgAHbevJOpQ6aGnOcIEPBosrM1pMHdLYGUKsGUQN26dgtcv2tqV9JSrIBIrz6k+oZ6Vu62MpIf1v8wJg+YzHWTrqOytpKK2gp6Z/fmlqNuYdrw4Ibc7NRspj8znb1Ve+nWtRvzfzSffjn9Ar6l5pizaU7U8+ssuH2FBoMhlGbDvptDVReIyGHxmEyi4JSSGNZjWKDN2RDspk92n8B7L1qLE9TghJdHUo8oLSXNk/C7+9O7+d8P/xcImgh7Z/emtqGWVbtXsX+v/bn7RGvT7D+/8082lW4isziT25bdxtKipfTt1pfD+h/GhL4T2Fq2tcWx5m6ey6kjT416jp0BkxfQYGieVgVSo4wNKcChwM64zSgBWFK0hIKsAvp069Pieb2zewfex2KyG9NrDACH9Wtdznv1IX3y7SeB945AKsgqAGD5zuX8aPyPAsd/PPHHAHz44Yf0yrJC3rO7ZgMwoe8EXl/1OgVZBezc1/TPIC89z5jsWqC1RLYGQ2cmEh9SjuuVjuVTmt4Wg4vIf0SkyCn+Z7f1FJHZIrLa/tnDdexWEVkjIitFZJqrfYKILLGP/U1sdUZE0kXkWbt9nogMiWReS4uWcmCfA1s9L7tLduB9LCa7IwYcwaKrF3H95Otb7ePVh+Qu6ufWkBxG9BzRpI+IBLTEvt0s39K0EdPI6ZrDaSNPA+CEoSeE9OmS2iXmzOfJTHNpmF5b+RoPzn/Q59kYDIlFJAJpuar+1n7dqapPA2e02isyHgdOadR2C/C+7a963/6MiByAVRhwrN3nHyIBp8tDwFXASPvlXPMKYI+qjgDuA+6NZFLLdi4LiTZrji6pXQLvPUXZ2RpSiqRwUJ+DSJHWfx1dUrt4En7uAIyAhpRdEGgLJ5AAhnYfCliBHQCTB0ym9NbSwPqcN/Y8Kn8d9It0SfE2v86C22TnmGgXbFvA9Gemc+2sa7ntg9uMFmXotEQikG6NsC1qVPVjoLhR83TgCfv9E8BZrvZnVLVaVdcDa4BJItIXyFXVOWrd4Z9s1Me51gvACRLOGeSitqGWfbX7IhJIXVO7Bt7HsjG2lSmFkJaS5mks92bezLRMIFRDGt5zeNh+znd0zIoO3TO6A5YfLSMtg4P7HMzfT/270ZBawa0hOQl73UUg7/zkTv4+7+9+T8tgSAhayvZ9KnAa0F9E/uY6lEt8K8b2UdVtAKq6TUScu2Z/YK7rvM12W639vnG702eTfa06ESkB8rH2VYWlusHa7BmJye77B36fOz+5k2nDpzXJ/xYJjslOiFwgdUnxdsN3V5l1BGCf7D6Mzh/N6F6jOajPQWH7ZXXJCpzrxtG4nEjAhVcvBKwUSEYghefLrV+yuTT4p7p853Ju++C2QOFFh/V71/s9NYMhIWgpqGEr8CVwJuCuhVAG3BjPSTVDuLu2ttDeUp/QC4tchWXyI6tPFoKw+5vdFK4ubHVSH075kH+u/SfVddUUFrZ+vpuv93wNwKJFi5CNkQmlspIy9tXti3qstVvWBt67+/5znJWP7uOPmtZBKi8v59T0UykdWErPop4h/bIbsvnZyJ9RsbqCwjXB9trqWrZs3xL1/BKd8vLymL7TmvI1XPnVlSFtFz13ETuqrQS1uWm5lNZZ+9/mrZmX0OsX61oAFNcU89ym57hsyGWkp6a3zcTagbZYC0OQlrJ9LwIWicjTqhpPjagxO0Skr60d9QWK7PbNwEDXeQOwhOZm+33jdnefzSKSBuTR1ESIqj4MPAyQOzhXh3QfwqknRB62PLt+Ng1bG5g6dWrEfQAa1jfAYjh0/KFh0xGFo/fW3uwo3xH1WIvmLrKMnBBx38LCQqZOncr0ZmJYTubkJm15K/Lo0bNH1PNLdJy1iBZVJeV34S3jjjACOH3/0wPpl7bVbUvo9fO6Fm5+W/hbnt38LONHj+eXR/+ybSbWCtV11ZTVlIWYr2OlLdbCEKRZH5KIPGe//VpEFjd+xXFOrwGX2u8vBV51tV9gR84NxQpemG+b98pEZLLtH7qkUR/nWucAH2hzdbptahtqGdJ9SFQTdvw6rVy6CQEfUpQmu1hrL8WTWJK/JiNun5HbbOr23wFM7j858L6qrir+E2tn8jKsvXevrHzFtzHPfu5sCv5U0PqJhnajpaAGJwb5dKyousavmBGRmcAcYLSIbBaRK4B7gJNEZDVwkv0ZVV0GPAcsB94GrlENpAz4CfAIlg6wlmBqo0eBfBFZA/wMO2KvJeq0joF5A1s7LQQn2i7aG7EjwKINaoglou+PJ/4x6r7RYKLsQtm9b3fgvZOPEKxoRTdDewzl+sOvZ2zB2E4hkJz0XG6fWrx5a/VbgNkLlsg0K5BcgQUbw73aYnBVvVBV+6pqF1UdoKqPqupuVT1BVUfaP4td59+pqsNVdbSqznK1f6mq4+xj1zpakKpWqeq5qjpCVSep6rrW5lTXUMeg3Ohyx3ZJ8SiQvAQ1eNRAnLGcTa/xwkTZheJE0oGVzd1hZM+RIecNzB3I/afcz/f2/x7V9dVRa9sdDaeoY7hN1Pd+ei8/eOkHcRt7Z0X4ff33z72fvHvykn7tE5mWTHZlIlLqepW5f/o5Sb8ZlBedQHLyzEV7I/asIXnQQLyYB71gNKRQdlcGNaT+uf0D752Nxg4Dci03aEZaBhBZGqmORn1DfeBvw6mhVV5T3uS73vL+LXEtZxIuwwjAje/cSGl1KXuq9oQ9bog/LWlIOaqa63rluH/6OUm/8Wqyi/ZG7GgtkWyIDYzl1YfkQfh5wWhIobg1JCdnIYQm5oVgGL0jkJLRbDfpkUl0/YO1r82tGbnNmm7i5Yssqihq8bjbjFhSVcLEhyeycPtCT2Od+/y5nPf8eZ76dkYiuhOKyKEi8j8icp2IjI/3pNqTVEmNWkPyarLzorV49iF5MA96wWhIobgFUkZaRiDzhVsgXTH+isCDQjILpAXbFgTeu6sMu7VIN82Z1rzgNsNFI5AKNxTy1bavuHn2zZ7GfWH5Czy//HlPfTsjkRTo+w1WtoN8oBfwuIjcFu+JtRfDuw3ngIIDourjp8kuVg0pGm3MC7HUa0pGnKf/Xx71S84dey6Lf7KYHT/fESKQHjnzkcD79DRrT04yCiSHuoY69lbtDew/2rVvF4t3LGb0A6N5evHTgfN2VOxo7hJR49bIWhN0W0q3BN47wjJccUtD2xPJ3elC4DBVvV1VbwcmA/HzOHZAYjXZRa0hxeJD8sNkZzSkALv27aJnZk/uOfEeuqZ2pVvXbvTO7t3EZOfgaEhOefhkpKiiiJKqkkDi3t37dvP2mrdZtXsVF718UeC8HeXeBVJZdRk3vH1DIAuGWysKpyE5QRYQqiGt22PFQe2pDPUrXfbqZdzz6T2e52cITyQCaQOQ4fqcjhVabbDxHGXnQWuJNcrOF5Od0ZAC7K3eG7L/yMHxGfXL6RfSnswmO4dtZdsoqS4J5E/8x5f/YMWuFeR0zQnJSv/KN6/w3LLnmrtMizy//Hn+Ou+v3PqelXbTLYS2V2wPvK+qq6KuoY4tZUGtaFPppsB7RyCtKV7D9nKr3/wt83l84ePc+n7zKT1V1UTreSCSO2E1sExEHheRx4ClQLld5uFvrfTtFHg12XlNrhprZvF4YjSkUOob6gN/H25EhHcueoe5V8wNaU9mgeQk5N1atpW9VXsZ1t3SkD5Y/wFPLHyCw/ofxtKfLuX6w60tkP/86p+c/8L5nsZyBMnsdbOprqsOCKScrjlsKgkKnMw7Mzlz5pkBTUoQ5m2ZF3KdQXmDUJT7594PwDNLnwGC9cTCcckrlzD+X0F3e3MPkZtLNzNj0QzeXfsuH234KOTY0qKlnW7PVCR3p5eBXwEfAoXAr7E2nn5FaI67ToufJjuvPiTfTHZGQwqhQRuafQg4efjJTSI6Hb9KMgokx0x5x0d3UFNfQ//c/txw+A2A9b+wf6/92a/bftw37b6QiEQvOFFx6/eu5+5P7w6Eek/sN5GNJdY2Sse/N2vNrIDJ7pwDzmH5zuUBP9L28u1MGTyFIwYcwZzNcwCrIjJYfiW3FvTg/AeR3wqVtZU8tfgpFu1YFDj24vIXeXvN203meeXrV3LJK5cw7alpTH1iaqC9pKqEAx86kCtfv7JJn2SmVYGkqk+09PJjkomOY7Lzax9SgzYEBEzEY5kou3ahQRui+v0GfEh1yedDctIlOdF2A3IH8OeT/xw4fnj/wwHr/8Gpv+WVpUVL+cGBP+DQvocya80sPlj/AWAJpM2lm6lvqOeLrV8Ezn91pZVt7KwxZwEEhM/uyt3kZ+YztMdQNu7dSHVddWD+lXWVVNQHU0M5Jrzt5dub5Mu74MULOPXpU5v83zYXYLGkaAmApyoCHZlIouxOF5GvRaS4s2yMjRbHJOM1U0O0PiRPY5l9SO2ColH9fpPZZJcqqSEPRANyB5Cakhr4fOKwEwPv3QUlvbCvdh+56bmM7DmS+Vvm8/zy58lLz2N4j+HUNdSxrXxbQNMB+PeCfwPBQpQ7yndQU19DeU05+Vn5DM4bzObSzSzfuZzq+mrOGGVlT9tdbWlZi3cspqymDLA23jbnP5qzaU7I58aZKhxht2i7pV01znmY7ETyn3I/VoLS/M6yMTZavJrsvO5D8jKW0ZDah5ZMduFIZoHUoA0hdbcG5lrmytNHnU52l2z65gSzV7iFU31DPdHSoA0IEpKiqaymLLDH8Pq3r+fdte8GIv0cnM8fbfyIxTusHNI9M3syOG8w9VrPp99+CsAxg44BYFfNLtbvWc/B/zw4cI2iiqJmw8SfX/48f537V7LvymbXvl1NskJMeHgC6/esD5j7Uu2i2LX1tTFl7/hw/Yf8bV5Tl//MJTP5/ovfp6Kmwte8gs3RUj0kh03A0tayZHdm/DTZOTe3aE12voZ9Gw0pgHNjjJRk3ofUoA0hmo8TYfjK+a80+Xu+btJ1fLbpM55b9hzV9dVkpWRFNZajmfbpFiws2aANHNb/MPLS83hpxUsA3D7ldvbvtT8XvHgBANldssnPzOf55c8HNrTmZ+bTI9OKlPxww4cAHD3oaAB+vvjnlHQPhoyDFajQOGw/p2sO2V2z+eu8vwba3lr9VthcflvKtvD++vcBApF94/81nmU7l6G3e7sNH//k8QBcc9g11DXU8dCXD3HNYddw3azr2F25m5lLZwJ4vn5bEcmj2y+At0TkVhH5mfOK98Q6El6FhBetxTk32nISqhp37QiMhtQYVW8mu2Tch9TYn+YI39SU1ICVwUFEOGrgUQBU1lZ6GitFUpjYb2JIe6+sXiz+SbB6znljzwsxi4lIE3OhY7IDK3NDTtccJg+YzA8OtLZjOv4nh7XFTXfFHD3oaEbljwppe3bZs2HvGe+ufZd1e9aRm57L9vLtqCrLdi6L5Gu3ymsrX+OMmWdw4zs38tTip5r8bbZ36ZhI/lPuBPZh7UXKcb0MNs4/WbRKpBcNyfNYaNy1I7A0JEU9mVmSEWOyC+JoLReMu4BD+x7a6vmxrIUj/CYPmEzxL4q5cNyFPHKGlRFjUN4grp5wNfdPu58DCg4I0aKgaWLbnpk9A6a+PVV7GNpjKCLC/538f4DlPzqoz0FU/rqS7C7ZrN3TVCCdMPSEQKDKI2c8wnljzwsbdQcEtLdLDrqEyrrKgG+qLTj7ubOZvW42YJkWd+7byV3H3xXIRN94A7DfRGKy66mqTUuDGgI4N5xotRbn6SiaG5bXsaJ9UveK23zpdlh3VrxG2SWjQHKE88zvzYzo/My0TMCKZosW9997j8we/Pd7odnDHzr9ocD7xoEDjQVAfmY+mV0y6Z3dm6KKIob3sDb09unWh34Z/dhatZV+Of3ISMugT7c+rCleE9L/ruPv4rrDr6O6vpp5W+Zx8vCT2V6+vcmm31k/mMUZM89g2c5lCMJh/Q+DLwjZN+WF5h4OHT/VkQOPZGiPoVz44oXs2reLB794kIn9JnL6qNNjGtcLkdyh3hMRI5BawDGF+Wmy8+JD8sVk5zEKMFmJNsoumfchRfs3GKuGFOm6NzbRNQ5IyM+yskc4odzuwIyxeZZm0T/HKi3St1tflhYtDek/dchUuqZ25Zajb2HLz7YwMG9gyDUcsrtkB/Zq9c7uzcF9rECJcMEI0eD4oQB+f9zvA+9X7l5pzTmnbyBDxs59O7nn03t4YfkLMY3plUh+Y9cAb4tIpQn7Do8x2QUJaEjGjwREb7JLS0kjRVKSViBFsxaZXSwNybPJLkLh13hO5xxwDgDvX/I+Pxr/I7K7ZAPBKrfj9wtmYBiXa4WJOwJpQt8JTawXWV2yAuM4gRxugXTSsJMASwg5x/vn9mdMrzEAPLzg4cC5Xh70nFRIb1z4Br8+5tfs32t/AFbtXgVAn+w+AWG7tGgp1fXVVNRWhL9YnIlkY2yOqqaoaqYJ+w6PZzNaEgY1eE2jlKxEqxWICBlpGUm5MdZrgIeXoIZoNdM/nvhHXjzvRQD+c+Z/2PKzLRw/9Hj+fea/Aw9yzt/2wfsFQ7wdgeT4mI4ceGSTazsCyc2gvEEB09+jZz7Kl1d+yeheoxnSfQhgaVpO0IcbL2vhhHMPyB2AiLD8muV069qN8ppy0lPTyU3PDWiBX279Emi/Mu9RORVEZLiI/FpElrZ+dufBs8nOQ365WDQkX3xIHvdkJStefHfpqelGQyLoQ4olqCFSbj7qZs7e/2zAiv5rnPQW4KXzXuIXR/4iEHEHMKzbMN76/ltceOCFQDAcHIJ7iML5UkWEpT9dymeXf8bAvIFM6DcBgOOHWOHZjh/r1qNDE7h6ERRugeTgpGbq060PIhLQkJzsFQkrkESkr4jcKCLzgWVYgRAXxn1mHQivQsLL3iCvGlK0/6Be8bonK1mJ9iYM1gNKtL/fjoDXAA8vQQ1e1r01xvcdz70n3dvkO5w68tSAFtQ/tz+XH3I5AHdMvQMgJIO5m4y0jCYalbMhOKerFch81wl38ZeT/xI47kVQbCrZRGZaZoivzEl02yfbijDM6pJFRlpGwP+VcAJJRK4UkQ+Aj7CK8/0I2Kaqv1XVJX5NsCPg2YzmwWQXMA968Ff5GdRgNCQLL747EYla2+4I+JlGya+o0nA8Ov1R9v1qH78+5tfU/6aevIzIE8UO7zmc5855LqRo4w2Tb+C+afcBHjWkss0Bc52DMyd3hKEjnAAqatrHh9RS2PeDwBzg+6r6JYCIJN9jWxvgeWNsDEENXiL6jIbkP541pCRMjOI1qMHrxlg/HsCaw5m7lzmcO/bckM8iwoieIwBv2uKmkk1NssrnplthAG4hNKzHsEAm9ITTkIB+wDPAX0RkpYj8HujSwvmdllj8OhClDymGoAbjQ/IfLwJJSE4Nyc9Nwn75TP3CMQl69SG5/UcQLM8xZciUQJs7r1/CCSRV3aWqD6nqscAJQAlQJCIrROQu32bYAYjFr+PuH9FYMfir/EodBEZDcvBiKk1qH1IUa+F1Y6xfxSj9JBaBtKdqTxM/lpMc9twDgtqYW2glnEByo6qbVfXPqjoBOAuriqzBJha/DvgT1OBn6iAwGpKDJw0pWX1IHsO+o9WQ/Eok7CeOcPYiKOob6gMRfw6Pn/U422/aHjAtAiGVjStqK9rFbBz1I4SqrlTV38ZjMh2VWPw64I+G5FdQg1eBmax4iW40PiSLWAWS0ZAswq17VpesJjn8nOKE3x3zXRq0IaZyF15Jnt9YOxKLXwe8lZ/woiH58Q/qNcAjWfGy7oLQQPKtX7QCSUTomto1aoHkxTeb6MQqkCLJKzmu9zj0dmXK4Cmex4qV5PmNtSNeTXZenuRiymXngwnDqwaXrJgouyBe/gZTJdV77a92jLJraxyBFEspjmjHSliBJCL9ReRIETnWecV7YiKyQUSWiMhCEXHCznuKyGwRWW3/7OE6/1YRWWNHBE5ztU+wr7NGRP4mcbgrG5NdEK8aXLLiJZgkaX1IHrTFFEnxJQNKouMICS855rwKpPbIZ9dq+QkRuRc4H1gOOHnMFfg4jvNyOE5Vd7k+3wK8r6r3iMgt9udfisgBwAXAWKxw9fdEZJSq1gMPAVcBc4G3gFOAWW05ST9Ndoke1OBVg0tWvITbJ3OUnR8CKRl9SF1TuwLRBwupatQPAu2pIUVSD+ksYLSqJkJk3XRgqv3+CaAQ+KXd/ow9x/UisgaYJCIbgFxVnQMgIk9ifZ82FUieo+x81JDikUolHMZkF4rZhxSkQRtIidJL4EVbTMYoO69WGC/COburld08UQXSOqwNsX4LJAXetbND/EtVHwb6qOo2AFXdJiJO3ov+WBqQw2a7rdZ+37g9BBG5CkuLoqCggMLCwqgmuqVyCwDLViyjsDjyvqu2WOnfP//8c/K6RJZe5Jsd3wAwd95cNmVGXrhr69at1NbURvXdysvLo16LRXutol9fL/wa2Zg8NwQvawFQVl7G7rrdUfWtrqpm+47tnsbzA69rUVVVxfbt0X2vhvoGNm3eFFWfijrL1LRu7ToKayLv5wWva+EFQVi/YX1U4znlKr7d8C2FGlm/lSVWnaTPv/icmrX+RtpFIpD2AQtF5H1cQklV/ydus7I4SlW32kJntoh808K54e582kJ7aIMl7B4GGD16tE6dOjWqia4tXgvzYcyYMUw9OPK+i+YugjVwzNHHNCkS1hxbFm+Bb2DSpEmMzB8Z8VhPlT5FekU60Xy3wsLCqM4HSN2YCovgoIMPYuqw6PomMl7WAiBrRRa983tH1TdraRYFBQWexvMDr2vR5asu9O/XP6q+Xed3pV+/flH12Vu1Fz6DUSNHMXVy5P284HUtvJDycQoDBw2Marzqumr4BIYPG87UYyLrl7E5AxbCuIPGMXVE5GO1BZEIpNfsl6+o6lb7Z5GIvAxMAnaISF9bO+oLFNmnbwbcyZoGAFvt9gFh2tuUWFMHeTHZeXH0GpOd/3g12RkfkoUX82UyRtmBN9+iF5Nde27diKRA3xPATOAr+/Vfuy1uiEi2iOQ474GTgaVYgvFS+7RLgVft968BF4hIuogMBUYC823zXpmITLaj6y5x9WkzPO8N8jGooQF/UgeZKLtQvETZeXHkdwS8roXX/6tkCmoA/wI8nHPrG+pbObPtiSTKbipWAMEGLBPYQBG5VFXjGWXXB3jZvlGnYQnBt0XkC+A5EbkC+BY4F0BVl4nIc1iRgHXANXaEHcBPgMeBTKxghjYNaIAYCvR5Sa4aS9i3ibLzHS+aqYgkpYZpouxiw8ta1Nu3wWjWwkkz1B7/w5GY7P4POFlVVwKIyCgsjWlCvCalquuAg8O078ZK9Bquz53AnWHavwTGtfUc3cRcoM+PEub4lDrImOxCMAX6gvi1DykZo+zAfw0pIU12QBdHGAGo6ipMGYoQfDXZxaAh+Zk6KBlvqF7wVKAvmcO+fUg0m4ypgyA2gRRJ6iD3OO6+fhKJhvSliDwKzLA//wDLl2SwidVk56libIKWMDcmu1BM6qAgfiWaNSa7IB1NQ4pEIP0EuAb4Hywf0sfAP+I5qY5GLFoL+JPLzpjs2gdTfiKI16wV0SaaTeYou04vkOzsB3+xX4YwxKK1gH8mOz80JGOyC8UU6AviV9i3ibILElOUnSZQlJ2IPKeq54nIEsJvJj0orjPrQPhpsoslqMGXfUjGZBeCSR0UxC/zpQlqCOKEbkcVZZeSmFF219s/T/djIh2ZWE12fmhIfpUwNya7UIwPKYhfe7KMDylIIKhBOkZQQ7O/MSdnHPBTVd3ofgE/9Wd6HYNYtBZ3/7iOZUx27YIX313S+pD8Kj9houwCdDQfUiSzPClM26ltPZGOjOds3x5s3V7/WHwLajAmuxDMPqQgfgV4mKCGIB1NILXkQ/oJliY0TEQWuw7lAJ/Fe2IdiVhTwyfTPiRjsgvF+JCC+CWcjckuSNIIJOC/WGl27sYqhOdQpqrFcZ1VB6MjmOz82odkTHaheDGVJrUPycNamCg7C79TByVULjtVLQFKgAsB7DIQGUA3Eemmqt/6M8XEJ1aTnS8akjHZtQtmH5KFVyERU7ZvE2XX4TSkVmcpImeIyGpgPfARVpLVNk9Q2pHxXBLCi8M7wYMajMkuFONDsvAaaGCCGoJ0htRBkfzG/gBMBlap6lCs5KbGh+TCTzNaLBqSyWXnP14fOpJNQ/Lq1zGpg4IYDcmi1s6ynSIiKar6IXBIfKfVsYjFZOdlXwZ4C6AwJjv/MfuQLLxGvsWU7dtE2XU4gRRJLru9ItINK4fd0yJShFVzyGATk8nOQyZop29UYxmTXbtgfEgWnn1IXrJ9m6CGAB1NIEUyy+lAJXAj8DawFjgjnpPqaMQiJLz8gzp9oxrLp6CG9vxjTkQ8R9klmckzJpOdCfsG/E8dlFC57BxUtcL1Ma6lyzsqfqbz8VP4ecHr/JIVsw/JIhaBZKLsLDpD6qCWNsaWEZpUVezPAqiq5sZ5bh2GmLIn+BTU4Ps+JGOyA7yny0m29fMqJEyUXZDOYLJraR9Sjp8T6cjE5NfxGNSQ6CXMk+0J3yuetOBk9CF5FBKx7EMyAqnjCaSIZikiR4vIZfb7XiIyNL7T6ljE5NfxGNTgxdFrTHb+Y/YhWbRH2HeyRdnFktcvaQSSiNwO/BK41W7qCjwVz0l1NGIp0OdXUIMx2bUPXoIaktmH5EfYt4myC+IldVBCCyTgu8CZQAWAqm7FSrBqsIlFa/EtqMGY7NoFrw8dySbQvWpIfmkFHQHfK8a2Qy67SGZZo9Z/hwKISHZ8p9Tx8NVkl+AlzI3JLhS/agAlOl61lljCvpMxys7rWkSTOsgZK1E1pOdE5F9AdxG5EngP+Hd8p9XxEMSXoIZEL2FuTHZBAslzPfyOk02g+xn2baLsgvi57m1Bi/uQxHrEeBYYA5QCo4HfqOpsH+bWofC0o9zj0zMkfgnzZHvC94KfjvxEx8+w72QNauj0AklVVUReUdUJgBFCLSBEb/ePJbmqpyi7FBNl5yd++k0SHRP2HTudQSBFMsu5InJY3GfSwfFi303GoAZjsgsSKMBoUgf5qi2aKLsgXlIHeR2rLYhklscBc0RkrYgsFpEljUqaJzwicoqIrBSRNSJyS+s9PI2R0Jka/C5hnmxP+F7wrCElcdi3SR3kHb9SBznnJ1wuO9uHdDWw0Z/ptD0ikgo8CJwEbAa+EJHXVHV5m47jwWTnKblqgpcwNya7IMaHFMSrX8eEfQfpDCa7SHxI99k+pI7KJGCNqq4DEJFnsDKYt61Akugjo7ymlYHEz/adbDdUL3iOsktGH1IMYd8mys6i0wskm7kicpiqfhH32cSH/sAm1+fNwOHuE0TkKuAqgIKCAgoLC6MfpQG+/fbbqPpu2baF2traqPqsKlsFwOIli8nZFvn+5JKSEurS6qIaq7y8POq1qKizksOvXrOawuro+iYyXtZiX90+ANavW09hbeR9dxbtZF/lPm9/hz7gZS22VG4BYOXKlRTujbxv8e5iyqrLohpv4e6FACxYsICqNVVRzDJ6vKyFV/YW76W0rjSq8RbvtLwrX335FXu67Ym4X31dPZs2b/L9bzASgXQccLWIbMDK1uBk+z4onhNrQ8I9noY8vqvqw8DDAKNHj9apU6dGPUjq56n0H9CfaPo+Xfo06WXpUfXJ25YHC2DsuLFMHRN5v5w1OfTM7BnVWIWFhVGdD1BWXQafwbDhw5h6ZHR9Exkva1FSVQKfwcgRI5l6ROR9Hyl+hPW166Mezy+8rMXq3athPozdfyxTD4q8b+8dvSnfUx7VeOWrymEpHDbhMA7rH994LC9r4ZVeW3vRUNEQ1XhFy4pgORw+6XDG9h4bcb/0L9Lp26+v73+DkQikU+M+i/iyGRjo+jwA2NrWg3gx2XnZh+Rn7SUvGJNdkJii7JJs/bwGGngJ8DBRdkG8muxSU1ITM8pOVTcC3bGqxJ4BdLfbOgpfACNFZKiIdAUuAF5r60G8ZiVO1hLmyeYD8YLZhxTEq18npmzfJsouptRBCZnLTkSuB54Getuvp0TkunhPrK1Q1TrgWuAdYAXwnKoua+txPD3JeQg0SPSgBhNlF8TP/G2JjkkdFDsmqMHiCuBwp5S5iNwLzAH+Hs+JtSWq+hbwVjzH8GSy81iaABK3hLkx2QXxHOps9iEF8PMmnOj4LpBIQJMdVlCAW3erJ3ygQKfG045yD1pLTLnsjMnOV8w+pCDtsQ/J5LJLTg3pMWCeiLxsfz4LeDRuM+qgeHW+eg1q8MM86AVjsgviZ/62RMdP86UJagjS0VIHtSqQVPUvIlIIHI2lGV2mql/He2IdDc8bY5MsqMGY7ILEkuE62QS6MdnFjt+pgxJKINkJVXup6ixVXQAssNvPFJEUVf3Kr0l2BDylDvI5qMHksvMXE2UXxM+wbxNlF6SjmexamuWfsKLSGrPcPmZw4SkayMegBt/qIRmTXYCYzFRJpmH6mu3bRNkFiGXdEy3sO19VNzRuVNU1QH7cZtRBSfSNsWYfkv+YKLsgsexDMiY7i86uIWW2cCy7rSfS0fFcoM9jlF2iBjWAt7VIRmLSCpJMw2yX8hMmyi5QQiIZBNJ7InKnNHqsFpHfAh/Ed1odD88F+nw02fn1xOhFW0xGPEfZJbMPyQdtMWmj7Eh+DamlKLubgEeANSKy0G47GPgS+FGc59Xh8Fygz6+gBp9MdtB+f8yJRkxRdkmmYfqpLRqTXRCvqYPaK5ddswLJzsxwoYgMA5w0scucukKGUARvmRr8KtBnTHb+YyrGBvGzHlKyRtn5WawwETUkAGwBZIRQK/iWXDXBS5hDcvpAvOD1JpyMJk8/Q+BNlF2QmKLs2qGEeXL9xtoR30x2CV7CHJLTB+IFr36TZDR5xmK+NEENFp09ys4QBV5Ndl7+QcFE2XUEYjHZJdv6tUf5CaMhdbzUQZGUn5gRSVtnx6/kqh0lqCHZTE5e8HPvTaLja/mJZI2yi0E4d5TUQZH8xkLq3opIKjAhPtPpuHh1OPoZ1OBn2Hey3VC94DldjvEhBTCpg4J0apOdiNwqImXAQSJSKiJl9uci4FXfZthB8Mtkl+glzCE5TU5eMKmDgsTiTzNh3xZ+RhwmnEBS1btVNQf4k6rmqmqO/cpX1Vt9nGOHQMSn5KqxZPv2SSAZk52FSR0UxM+wbxNlF8Trhvj2ymUXST2kX4nI2VjlJxT4RFVfieusOiC+ZWqIpYS5ibLzFZM6KIhJHRQ7XlMHeRVICaUhuXgQuBpYAiwFrhaRB+M6qw6IpxQnHvw6nqPsfNyHZEx2FiZ1UBBf9yElcVCDnxpSQm6MBaYA49T+LYvIE1jCyeDCi8nOi18n0ctPQHI+4XshFvs9+BsZGW/8TKNkfEhBGrQh6gg7aL/UQZH8xlYCg1yfBwKL4zOdjosx2QVJxid8L8QSWQbJVVOqPcpPJIswdzAakkU+sEJE5tufDwPmiMhrAKp6Zrwm15HwarJLxqAGY7KziMWRH+ifJPdUP8O+TVBDkGQUSL+J+yySAE9Rdl6SqyZ4CXMwJjsHz1F2riKHqURvbklETLbv2HHWIhrLSkxRdu2Qyy6S5KofAYhIrvt8VS2O47w6HF7/cTz7F0wuu4QnlpswJJfJLpZ9SBCdeTuZo+wgOstKfUPHirJrVSCJyFXA74FKoAHLiKDAsPhOrWPht8nOS+SRMdn5i+coO4+/40QmVvNlNM75ZI6yg+i0ngZtiLoWkjNWQgok4GZgrKruivdkOjJeTXbJGNRgTHYWbRFllyzEEvbt9I/UfJnMJjuI7kHFq8kukXPZrQX2xXsiHR1PqYM8+HViCWowuez8pS1uwslCzMI5ir/3ZI6yA38EUiJvjL0V+FxE/iUif3Ne8ZqQiNwhIltEZKH9Os117FYRWSMiK0Vkmqt9gogssY/9Tey/RBFJF5Fn7fZ5IjIkXvP2XKDPp2zfvueyMxpS7FF2SbSGjoM82j0xXm7Czrolqw8pmQVSJCa7fwEfYG2G9WuG96nqn90NInIAcAFW9vF+wHsiMkpV64GHgKuAucBbwCnALOAKYI+qjhCRC4B7gfPjMWGvO8qjNtnFUsLcT5NdEpmbvBJLLjt3/2SgrLoMgJz0nKj6eVkL5+HLaEhQp3WeNsYmci67OlX9Wdxn0jrTgWdUtRpYLyJrgEkisgHIVdU5ACLyJHAWlkCaDtxh938BeEBERONwt/Rqsosl6iiqsfwMajAmOyC2zaCQXD6kkuoSAPLS86Lq51UrSDZhBN7WoqKmguyu2Z7GSlQN6UM70u51oNppjHPY97UicgnwJXCTqu4B+mNpQA6b7bZa+33jduyfm+z51olICdZG35AADfv7XQVQUFBAYWFh1BMuLyunfl99VH1LSkqoTqmOqk9NQw0Aa9atobAu8n719fVs2bwlqrHKy8s9rUV1VTXbt2/31DdR8bIWC4sXAvD1119Tvba65ZNdrN28FoCPP/mYnC7RaRR+4GUtlqxbQhfpwpxP50TVb/2m9QB8/PHHZKVlRdRnw8YNCOLL35/X/xEvrNu8DrD+LrqldYuoz7fbv0VrNeo5Fu0oorKq0vf/4UgE0vftn+6SEzGFfYvIe8B+YQ79Gsv89nt7jN8D/wdcTvg969pCO60cCzaoPgw8DDB69GidOnVqy18gDHnr8shMyySavjlrc8hNz42qT3VdNXwCQ4cOZeoxUczzMxg0aFBUYxUWFkZ1vkPW4iwK+hR46puoeFmLfav3wRKYOGEik/pPirjf4nmLYS0cdfRR9MzsGeVM44+XtZhZNpMexT2i7vf1nK9hnbUWeRmRaVfv1L1D6pZUX/7+vP6PeMH5uzjyqCMj/rvour4rfVP6Rj3Hp0ufZnHFYt//hyPZGDu0rQdV1RMjOU9E/g28YX/cjJVHz2EAsNVuHxCm3d1ns4ikAXlAXDQ7LyY7P4Ma/DbZJZO5yStegxqS0YdUUl0StbkOvEUc+hnA4ydeTHblNeUMyB3Q+olhxkrIKDsR6SIi/yMiL9iva0WkS7wmJCJ9XR+/i1XyAuA14AI7cm4oMBKYr6rbgDIRmWxH111CsKLta8Cl9vtzgA/i4T8Cb478ZA1qMFF2FjFnakgioV5SXRKxhuPGS8Shn2my/MSLQCqrKaNb18jMe43HimSceZvn8av3fxX19ZsjEpPdQ0AX4B/254vtth+12SxC+aOIHIJlWtsA/BhAVZeJyHPAcqAOuMaOsAP4CfA4kIkVzDDLbn8UmGEHQBRjRenFBU9Rdl4yNcQQ9u1nLrtkerr3SlvksksWSqq8aUgmqCGIVw3Jq0BqnMvuvXXv0T+nP/sX7B9om/zoZAB+O/W3UY8RjkgE0mGqerDr8wcisqhNRg+Dql7cwrE7gTvDtH8JjAvTXgWc26YTbAZPUXYeNqt63aNiTHb+E2vqoGTSMkuqS+ib07f1ExvhNew7GTWkxmuxtngtfXP6ktWl+WCPWASSe82r6qo4acZJZHfJpvxX5UDoQ7ETRRkrkfzW6kVkuPNBRIYB/geoJzieC/R5NNl50sZM6iBfqWuoA4g6l5jXqsCJjJ8akp9ZSfzEvRa19bWM+PsIznv+vGbPb9AGKmoqyOkafaRm4wJ9H234CICK2gqKKoooqy7j25JvA8f3Vu2NeoxwRPJb+zlW6HehiHyEtUn2pjYZPYnwYqby02TndwnzZLqZeqWqrgqAjLSMqPp5/R0nMl6DGrz40zpDUMOm0k0AvLn6zcDxDXs3cPKMkymutOK2KmsrUdS7yc61MfajjZZAGt5jOH3+3IeD/nkQW8q2BI6XVLWNhtSiyU5EUoGDsQIIRmOFUX9jb041uPBqsvOqtfixCdcrxmRnUVlbCUBmWmZU/ZJNQ6pvqKe8pjymoIZoUwclu4a0bs+6JsfvKLyD2etm8/yy5/nxxB9TVmNlx/AikPLS8yirKeOlFS/x6spXSU9NBwhcc8PeDSFakS8akh00cKaqVqvqYlVdZIRReDxl+/b4jxNteQfnXGOy85fKOlsgdYlOICWbD8lZBy83Ri8BHrX1taSlROIe71i4tUW3QHIefJwghOp66xZdXmP5eryse+/s3gA8segJnlz0JFvLrJ00RRVFgXP2VO4JvPfTh/S5iDwgIseIyKHOq01GTyI8F+jzoLWIRKeN+Z1s0pjsLJwbRbQmu2QL+3ZMl85TdjR4CeIpr/XmyE903BrS+j3rA+1r91iZPRyzmXPMEUjR5g+EoED6Ztc3ACza0TSOLR4aUiSPEUfaP3/nalPg+DaZQZLgqUCfR5NdtP4qvwuWGZOdRaw+pGQR6l7XAbyHOnu5CSc6IQJpb1AgOZrKmuI1QFBAtYWGtGr3KgA2l25uco7jqwKffEg255rifK3j1WTnSUOK0mTnd30YY7KzqKyrJD01vdOXn6ius0xI6WneNaSoNoNWe9sMmui412J7+XYy0jKoqqsKmMscIeUIpNLqUsCbQCrILmjS1iOjB3uqgma6DXs3kJ6aTk19Tfx9SCJyhojsBBaLyGYRObK5cw3ebsJeNSRjsusYVNZWetIKki11UCwakpe18Lr3JtFxtg/UNdSxvXw7o/NHA5Z2Ul1XHVjnbWXbANhZsROAgqymwqU1HA3JzUF9Dgr5vGD7AvKz8slJz/HFh3QncIyq9gO+B9zdJiMmKZ5Mdkka1GBMdhZVdVVRBzRA8vmQHCd7TD6kKNYiWQWSs5+orKaMHRU7GJU/CrACChxtKD8znz1Ve6itrw0EIPTp1ifqsbpndG8SGDJ+v/EhnxduX0hWlyy6Z3T3JcquTlW/AVDVeUDyGWXbEM8bY30MavAzdVCymJtiobKuMuqQb0guH1J9Q32b+pCKKoq47q3r2Fe7r9k+ySqQumd0B2BH+Q72Vu0NCKTXV71O7z9bGs3wnlYOg+OfPJ5fvPcLMtMyye7irR5S4zUMF7a/tngtBVkF7KjYEfUYYcdt4VhvEfmZ8wrz2eDCc5SdF5OdVx+SMdn5SmWdN5Nde/iQdlbs5LWVr7XpNStqKkj7fRp3fmJl+/JksmsknM965iwe+OIBPt/0ebN9ymvKPWUnSHQcgeQEGgzOG0yXlC68vebtwDnDe1gC6dNvPwWgZ2ZPz5YRxySYm54LWHuTVlyzgv+c+R9WX7casP5GB3cfzMa9Gz2N0ZiWBNK/sbQi59X4s8GFl5twbX0tXVO7Rj2W1yg7Y7LzF68mu/bwIZ33wnlMf2Y6u/a1XfzSsp3LAHhr9VtA7EENqsqczVaBv8Z/X6rKh+s/RFWTVkPqkdkDCIZi79dtv4CwcHAEkkNLmmRrHDPoGAD6ZFsmv7yMPMb0GsNl4y9jRM8R9Mnuw5WHXsngvMFsLGkbgdRslJ2qtk361k6Cl5twbUMtXVKir+SR6EENxmRnUVnrzWTXHj6kLaVWGpitZVvpldWrTa65aHvo3pVYtUV37jRns63DjMUzuPSVS3ls+mNU11cnpUByNKSFOxYClm8oLyOP3ZW7A+c4JjuHWHw7tx17G6XVpRwz+BgufvniJqmftv98OwB/nfvXmASfm+TbztxOeEkd5FVD8hrUYHLZ+UtH8iE5FUi3lG5pEk3lFWczZdfUrtTU18QU1NCgDSwpWhJodzYdqyofbfyIL7Z8AcDX274GvIU6JzoZaRl0Te3Kgm0LGJg7kHG9xzUREo01pFgeDPMy8vjXGf+itLqUC8ZdwNGDjg573uDugz2P0ZjkS/jUTngp0FdTX+OLhuT3PiRjsrOorK2MLcqujbTMo/5zFD97J9Ttu6dyD4UbCgOf87PyAQJJO6OlvqE+EG7ssGLXCsD6O4fYw76X7AgKJOeJ/PVVr3PcE8fxwBcPAFBa433vTUfAWcubjriJrC5ZTQINhnQfEng/KG8Q9027L+Yxc9Nzmfm9mc1G6w3OMwIp4fBSoK+2wScNyZjs2oWquipvGlIb+pBUlc83fc59c0NvTKf99zSOe+K4wI3dedJ278gvqQqGE7t5e/vbPLnoycDnBm3g2MePpd9f+oWY1Rrv7o/Fh6SqLNqxKCDUHJPdm6veDDl/w94NQPIKJIexvccCNNGQemb25J4T7mHej+ax8YaN3DD5hrjPZWT+SGZ8d0abXCuSEuZ9RORREZllfz5ARK5ok9GTCC8mu5r6Grqkxl9DctLIR1uXxyvGZGcRc5RdCw8d9Q31EaVrcSfDdDN381wguHnSefJ2a0jd7+1OwZ9CN1XW1tdy78p7ufSVSwPzm712diDqbfba2YG5NxZIsaxFvdYzf8t8jh18LBA02c1eNzvEFL1y10qApIyyc+NEwDkBBw5ZXbL45dG/ZFL/Sb7NpVvXblx00EVtcq1INKTHgXeAfvbnVcANbTJ6EhGtyU5VqWuo8yXKLpB12sPTuheMyc7Ca1BDJD6k2wtvp/u93ZuYyRrj5Ddrjp37LIHkaEpvr3k7RNA5gsrhg/UfBN47JrlHv36UgqwCemT04P317wOwp2pPE0e3F4Hk+La+2fUN6/euZ8rgKQC8s/YdrnnzGtbvXc85B5wTOH9bubUe4TINJBP9c/sDMLrX6JD2jl66PRKB1EtVnwMaAFS1DlMxtgnRmuxqG2oBvPmQojTZxbIx0QteihUmIzFnarC14N37djP9mensKA9uPnx37bsA3PPpPS1ey8lr5sZdNsDRoPbV7iNVUtlevp1Xvnkl5Hy3UHt++fOB9/d8eg+ffvspG0s2cmjfQ5k6ZCpfb7eCChztqEdGj8D5XoIaBuYNBODZZc8CcNTAo0iVVGavm80/vvwHABP7TgzpMyp/FBP7hbYlC1dPuJpD9jsk8DfiaErJQiQCqUJE8rEyfCMik4G2SVyURERrsquttwSSJx9SlCa7QKE4DzdHL3gxX3Z0ZiyaESIcyqrL2Fe7r03ytz228DFeW/layPWdbNbLdy0PtH297WtufPvGkCzMa4uDAsl5iDnmsWMCbW6BdORAK13l9vLtIfMZ+feR7Nq3i9r6Wl7+5mVO6H0CXVO7MmPxDI557Bj2VO6hR2YPRvYcyZriNSzfuZxNJZbpz/F1pKWkeTIZ98vpR4qk8MaqN+jWtRuTB0xuYuYuyC7g9Qtf59PLPuV/Jv0PD5z6QIfXFJrjodMf4usffx347NaQnj/3+XBdOhSRhH3/DHgNGC4inwEFwDktd+l8RGuyc0whnnxIHjUkY7KLH5e8cgkAtxx9i/XzvVto0AaOHxp9lZbGPiTHH7K3em/gHEdouHfIH/fEcZRUlzCu9ziuONRy87rLTL+44kWGdh/Kyt0rA21ugTQgdwAZaRlhN8euLV5LSXUJxZXFTB02lQ21GwLa156qPXRP786IniOoa6hj7D/Gcu1h1wJwSJ9D+PTbTz1vOUhLSWO/bvuxtWwrJw07ifS09ED2cIf8zHxOH3U6AEcNOsrTOB0VJ6ruh4f8MMR02VFpVSCp6gIRmUKwhPlKVa2N+8w6GL6a7KLVkOq8FYrzijHZwZo9a5jQbwInDz856r6NfUjOw4vj23n1m1dZvtPSjL4t+ZYGbaC2vjaQcdldTM0tkM59/lwABuYO5IRhJ/Ds0mdDBFJ212wKsgrYVbkroME7rN2zlg/Wf0BO1xwm9ZzEy8UvB47t2reLHpk9GNFzRKDtgS8eYPx+4xmZPzLkO3jBqVZ69v5nA03D4Z2Q9c5IWkoau27e1SRjQ0clkii7c4FMVV0GnAU8ayrGNiVaM5XzD+pH2HdAQzImu2Z5evHTzFgUe+hqRU0FYBUvcxzy0dLEh2TvxN9TtQdV5axnzwKgb7e+VNdXs6N8R0i49d/n/539H9yf3330u8DN3M3eqr1kpmXSO7t3iEDKSsuiV1YvdlbspKK2IqTPip0rePmblzlj9Bl0TelKXUNdyPEeGT0CwsfhtJGnhfiQvOIEKJw15qywx/MzO69AAksge7G0JCKR6NH/q6plInI0MA14AngovtPqeERrpnKeQL38IUUdZVdrouyaY2vZVraVbeOily8KmN2ixf27cKLW9lTu8SyQGvuQHJ/Q2uK1IWliDtnvEAA2lmwMFGdzbt5FFUXcXng7i3csZv9e+4dcv6ymjIy0DPbrth/byrdRVl1GcWUxWV2yKMguYNe+XYFqow5/+OQPFFcWc94B5wE0EUjdM7ozIHcAfz7pz4G2IwceycH7HexpDdx8/MOP+eCSD5rdW+R1nQ2JRyQCyYmo+w7wkKq+CkT/WJ/kRCskHJOdL0ENxmQHwFdbv+Lily8OaDEAl796OZe/dnlU12n83XbvCwoJZ19PcWWxZ+2gscnOEUibSjdx58d3Bs6b0HcCAKc8dUogo/bM783k0TMfZe4VcwPnje8bWscGrL+FAbkD2FSyidx7cqltqCWri60h7dvZRCD1z+nPqSNOZdqIaQAhggeCiT9vOvKm4Lj7jWdswVgPKxDK6F6jOW7occ0ed8Y2dHwiEUhbRORfwHnAWyKSHmG/ToVXk52fYd+d3WQ3c+lMnlr8FD9/9+eBti1lW6JKnX/dW9fR5fddeHPVm4ENx+5aMEUVRTRoA3ur9np+cs/qkgXA4wsf592177K7cjeH9j2UUfmjuH/e/QDce+K9/GbKbwCrQNvHGz8mLSWNKYOncPn4yxmZPzIw/nFDjuPUEaeGjJGRlsHA3IEhAQ5ZXbIoyCpgZ8VOXlj+AmBtvFx17So2/2wzb/3grcBDzakjT6X2f4N+pnDCt29OX182YzcuJGfouETymzwPOAX4s6ruFZG+wM3xnVbHI1oh0R5h335qSH6a7FbtXsWs1bO4fvL1YY8vLVrKY18/Flhrd5LOkqqSkA2cM5fMpK6hjosPvjjstRZsX0CDNnD6zNM5YegJvHfJeyHZEP48588cMfAIFPUskJyb+2MLH+OxhY8BMG34NI4ccGSgFs61k65tYu7tnd07RADM/9F8bp59M8cPPZ4rxl/BlrItDLzP2teTkZYR2OPj0KANFGQVUFZTxv9++L/WenxvZhPfkINbEDiZqAEe+s5DISmHNt6wsUlkXFvwxoVvsG7Puja/rqH9aFXTUdV9qvoSUCIig4AuwDexDCoi54rIMhFpEJGJjY7dKiJrRGSliExztU8QkSX2sb+JbdcQkXQRedZunyciQ1x9LhWR1fbr0ljm3BrR5m+LOew7irHaI+y7OZPduj3rmPL4lLDO9pZ4cP6DvLHqjcDnGYtm8P46KyvAsY8dyw3v3NBsqv0LX7yQv8z9SyBtv/tm6YQyO3z/pe+36EtyZzFwshK4NazCDYWBeXk12YUzQfXM7BkIIR/eY3hAi3KniGlcNmJ4z+G8dP5LDOsxDBGhICuYBsjRkNxs2LuhSeBAaznhBuQOAIL7ogCunng1vzjqF4HPg/IGNSvUYuG0kadx3eHXtfl1De1HJFF2Z4rIamA98JH9c1aM4y4FzgY+bjTWAcAFwFgsrewfIuI88j0EXAWMtF+n2O1XAHtUdQRwH3Cvfa2ewO3A4cAk4HYRiZux2WvYt9fUQdFoIIHUQQlgsrv6jav5eOPHvLfuvaiuee2sazlj5hmApfFd8solnDjjRCBoMmvO9OZkCHCyRTvh0fUN9ZRWl4ad66fffhqSDduhuLKYiw+6OFC8rKa+hvfWv0dBVkFgL8z8LfMB7872cIJsXO9xnDn6TGZ8dwZfXfVVoP3N778ZKBfRWh0j999aRlpGk/Q6E/tNZGzvsTw+/fFAW2sC6d2L3uXyQy5nWI9hLZ4XD5J182tnJhKT3e+BycB7qjpeRI4DLoxlUFVdAWH/oKYDz6hqNbBeRNYAk0RkA5CrqnPsfk9ihaDPsvvcYfd/AXjA1p6mAbNVtdjuMxtLiM2MZe7NEYnJbsPeDQz961A+v/zz2HxIUQq/qroqBPE0lhdaEpiOIHL8L5HQ+FrufGruYxtLNgaium5971b2VO3hgIIDAjdqZ0+Oo+WU1ZQ1O6aTzUBvDx17T9Ue9uu2H1MGT+GTbz/h7GfP5qONH3HWmLP453f+Sbe7u/HFVqs2j1eB5M6K/Z8z/8PhAw5n/177IyJNklj2yurFycNOZvGOxa0KJPf/W0ZaBhP7TWTa8Gn86aQ/0SurV6C8wKWHXMoPX/0h0LpA2r9gfx6d/mg0Xy9mCi8tZGnRUl/HNPhDJAKpVlV3i0iKiKSo6ocicm+c5tMfmOv6vNluq7XfN253+mwCK8+eiJQA+e72MH3anEhMds7N+N8L/s35Y88HYtiHFKUPKbNLpq/1kMIJzAZtaLK3JhwN2oAggfm6BUdZdVkgUzUQsv9m496NPL34aSsF/2fBNDsH9wkNPXaCAKKt41JZW0lVXRU9MnoETFVvrrbKH5wy/BSyu2azX7f9+GjjR4Dl1I+VId2HcEDBAS2e4wi+bl0iL7mQkZZBdtds3r7o7bDHD+9/OPO2zEvIMg5ThkxhypAp7T0NQxyIRCDtFZFuWOa1p0WkCKhrpQ8i8h6wX5hDv7ZDx8N2C9OmLbR77RM6qMhVWOZACgoKKCwsbGZ6zbN121aqa6pb7Lt6+2oAtmzbwle1ltll8cLFVK+NzuFbXVXN9u3bKSwspLyunBWlKzis52HNnr9m4xrSNC3q71VeXu5pLXbt3EX5vnLe//B9ahtqyUjN4JvSb8hIDQZVfP3N1xTWhF77xc0v8vjGx6ltqKVPRh8en/g4IsLWyqC/6el3nmbxjsWBz79/9feB958u/ZTnNj/XZD7uzAUOUx6fwk2jbmrS3ph33n+H9NR0ikuLOf0RyyS3c9NOtpaG+sCyt2dTWFxIQUoB29lOn/Q+bFy4kW/l23CXjZj1y9YjG1t+kCjaagVVOH8TkbB6xWoKdzZ/7q8G/4rF3RezaF7TtfP6d5GMmLVoWyIRSNOBKuBG4AdAHvC71jqp6oke5rMZcHtaBwBb7fYBYdrdfTaLSJo9v2K7fWqjPoXNzPVh4GGA0aNH69SpU8Od1iLPVzxP2p403H2LKoo4ecbJAcfyt4u+hZXQu09vxowZA8tg8mGTo948mLk4k959ejN16lR++uZPeWjJQ3x11Vcc2jeYQKOuoY7Vu1ezf8H+PFX6FDllOUT7vQoLC6PuA9BnZx92Fu3kufLneHjBw1T+upLpf54ekpk4uyC7ybWP+21wr8m3+75lzMQx9M3py7zN88Byy1DRq4Ks2qzAb//9ve+Tl55HQXYBDbnR7X16dVdzz0VBbl51M59d/hkXP3kxHxRZpsLJB09m2vBpXP6ltX/p4D4Hc9bJZwFwXsp5LPlwCVNHTOW445rfO9MqlpLFqVNObVXTWvHFClgN/fv1b/33ZV/3sPGHMXV4y+eeyZlh273+XSQjZi3alkii7CpUtV5V61T1CVX9m6o2b2+JjdeAC+zIuaFYwQvzVXUbUCYik23/0CXAq64+TgTdOcAHajkW3gFOFpEedjDDyXZbXAhnpnpm6TMs2rGIv8z5CwCpdnxGfUN9bKmDXJkQHF/MyyteDjnnF7N/wQH/OIBNJZuorPNWStsrzlo8vOBhAO7+5G5Kq0sDvhUgkMBze/l2jnz0yEB2aDdLi5byzNJnQgIgnln2DHsq9wTSxWzYu4GjBh3F0O5DWb17dUj/gbkDwxYwc2ipVlC/HKv815KiJdz1yV28tyM4hx4ZPcjLyOPl819mx893sPDqhYFjvzrmVzxx1hP838n/1+y1oyGSPG3O3100CUy9lIIwGOJNJFF2Z9th0yUiUioiZSLStK5xFIjId0VkM3AE8KaIvANg58t7DlgOvA1co6qO9/snwCPAGmAtwUi/R4F8OwDiZ8At9rWKsQIyvrBfv3MCHOJBemp6kwSSjbM2O+lW6hrqYk4d5PhisrtmA/D6qtdDznlpxUsALNy+kKq6Kt/2IEHQx+Uk2/zdx6EKdfeM7gEf0iMLHmHO5jn8bd7fmlzn+rev58IXL+S2D28D4IrxV/Dl1i9Zt2ddSFRXv279GJw3uIlpbv6V8zlj1BkhbZEUbtt18y4+vPTDwOd7PruHivpgdgdnz81ZY85qcr0USeGSgy8JFFCLlUgeWC488EKOG3Ictx59a8TX9fPvwWCIlEgeqf4InKmqeaqaq6o5qhpTallVfVlVB6hquqr2UdVprmN3qupwVR2tqrNc7V+q6jj72LW2FoSqVqnquao6QlUnqeo6V5//2O0jVPWxWObcGt26dqOitiJES3JykjnCw9mA2aANsaUOcpUIL6u2HP6LdiwKSWFTXW/5pb7e/rXnyqVeSZEU6hvqQwIO3IzpNSYwV2fTrpMDzqF3du9ARVIHJ3P26uLVgbT7YO3bGdw9NECha2pX+mT3Cex/cdY53K7+xkIlPyufId2HMKbXGKaPnh5ov+kIy+dUkB1a1jsezLliDg99J7KUkT0ze/LBpR80WYOWMALJkIhEIpB2OGHahuZxNgY2LtsMQQ3J2Q9Ur/Uxh30713RHoDnRXaXVpYF6OQu2LWB18Wr26xYuviQ+iAhbyrZQU1/DaSNPA6zKls4cxvQaw659u/jr3L9y16d3AfDEoidCrnHB2AuAoCARhKMGBmvdFGQVBNauZ2bPJhFzeel5iEjA9NbYxOnGHcU247szAuOuuGYFj5/1OKmSypVDr+SPJ/2RldeuDBGG8WLygMlcPfHquF3fCCRDItJsUIOInG2//VJEngVeAQLhYHb2BoONEx5bXlMeeO/WiNyf6xvqA+WoYw37LqspY0TPEawpXsP6PVbGZ3cqmw/Wf0BZTRk3Tr7Ry9fyhCCB7BDXTbqOnx/xcyb1n8SP3/gx7659lzH5Y3h84ePc8M4NIf0uPuhisrtkc1j/wzj3gHPJSMtgRM8RXPXGVRwx8Aj65fSjZ2ZPK3FpZo/AGvTIaKohOb4iR3j0z+3Phr0bAut95aFX8u8F/+aigy4KpLVpHBgClnlu36/38fknn5MiKYzKH9Wma9VeGIFkSERairJzG9/3YQUFOChgBJILRwgNum8Q31z7DcN6DAukqHHMc4556vVVrwd8Pp5SB7k1pOoy+uX0Y8PeDeyu3M2bq97k9JlWeHL3jO6BdDrThk9r7nJtjtu5PiB3AON6jwPgTyf9iesPvz6QKaEx4/cbz41HBAXnvSfdS2l1KR9s+IC7T7gbEeHA3gfy0caP6JHRI7AGPTN7BsZwcATSUQOP4j9n/oeTh5/M8U8ez3+m/4eh3YfSp1sfrppwFQf3OZgb3r4hpE9jvDw0JDpGIBkSkWYFkqpe5udEOjqOQKptqOUPH/+BPtl92F5hmc0cweSY7Nx41ZA2lW7ioS+sJJYD8waSn5nP7n27uXl2MO/tsB7DWLBtAWDlE/ML9wZct3+mb05f+ub0DfF1uRnaY2iTttz0XGZ+L5hcY2K/iXy08SP2Vu0NakiZPeiZ2ZNPL/uUm2ffzJzNcwLCRUS4bLz1p7zy2pUh157Yb2LIHP30s7U3RiAZEpFIouyGicjrIrJTRIpE5FU7JNvgwr2j/bGFj3HPZ/fw+MLHgWDutHD+JS8+pBRJYf6W+fz0rZ+yung1OV1zyM/KZ3fl7hCn/fAewwHI6Zrja0VJJ5gjRVLCVvPMz8pnyuAp3HD4Dbz1/bcC7ZHkQ/vhIT8ECKmP4+R+O2rQUdx5vFUXqDltJxzjeo8jNz23U5TCdrRXI5AMiUgkG2P/CzwIfNf+fAHwDFbSUoNNSylWnNxp4TQkL/Vi3BrIvtp91s00M59d+3aFCB7nBu+3ycm56RVkFTT7/Qp/WNikbWj31p9zxvUeR/1v6kPy5blzxo3pNQawyjNEytn7n813Rn2nU9ykZ35vJnd/endSmiENHZ9IBJKo6gzX56dEJPL/9k5CiwLJ1pAcHxLAaxe8RkVtRXNdWkQaZUVyNKRVu1eR0zVYBsDRkPwokubG0dIi2fMDcNfxd/HXeX8NKWHQEo03gLrLNfTN6dskIWpriEinEEYA5409j/PGntfe0zAYwhJJ2PeHInKLiAwRkcEi8guszaw97RIPBpoKpOwu2YH3q3av4sa3bwypw3PisBO5YNwFnsZqnCQ1Jz2H/Mx8lu9czrwt8wLtTgJQvytqHrLfIUB4E2U4bj3mVrb/fHvU4/x26m8By89kMBg6PpEIpPOBHwMfYuWC+wlwOfAV8GXcZtbBaCyQHF+Hw/3z7uedte/QL6cfz3zvmZhS+YTTkBq3QTDtTKr4qyEdO/hYANbuWRvXcf53yv+it2tUKXMMBkPiEkkuu6EtvPyvypWguAXSjZNv5LZjrXQ3Jww9ge03BZ/+Dyg4gPPHnR/TWI01pO4Z3dlX11QbyUvPA/zXkJyNptdNMtU8DQZD5ER0pxKRI4Eh7vNV9ck4zalD4k5W+ZdpVjLVldeupGdmT3pl9WJw3mA2lmyMKvqrORprBMN7Dufk4SfzxZYvWF0cTDDqpLj5/oHfj3nMaOdXc1uN74LQYDB0bFq9Y4jIDGA4sBBw8q4oYASSi3DF79y7+of1GMbGko1tstelsUAa2XMkfXP6cu+J93L2c1aCjX+c9g96ZvZk1827Qpz+fuFnmLnBYEgOInmEnQgc4CQzNTTPpP6T+M7I74Q9dnCfg/lww4ecPur0mMcZWzCW+VvmBz47OeIcjejw/ofzk8N+AkRWvsBgMBgSgUgE0lKsyq/b4jyXDs+8H81r9tjvjvsdl42/jIP6HBTzOKeMOIXHFgaTlzvambMH57JDTJINg8HQ8YhEIPUClovIfEKTq4YvJ2kIS056TpsII4Dv7f89/njiH6morQhJCdQrqxcNv2kIaz40GAyGRCcSgXRHvCdhiI7UlFRuPurmsMeMMDIYDB2VVgWSqn7kx0QMBoPB0LlpqR5SGRAukEEAjbVqrMFgMBgMbloqPxFZYjGDwWAwGNoAk3PFYDAYDAmBEUgGg8FgSAiMQDIYDAZDQmAEksFgMBgSAiOQDAaDwZAQGIFkMBgMhoTACCSDwWAwJARGIBkMBoMhITACyWAwGAwJQbsIJBE5V0SWiUiDiEx0tQ8RkUoRWWi//uk6NkFElojIGhH5m9hZREUkXUSetdvnicgQV59LRWS1/brU1y9pMBgMhqhoLw1pKXA28HGYY2tV9RD7dbWr/SHgKmCk/TrFbr8C2KOqI4D7gHsBRKQncDtwODAJuF1E/C+dajAYDIaIaBeBpKorVHVlpOeLSF8gV1Xn2JVrnwTOsg9PB56w378AnGBrT9OA2aparKp7gNkEhZjBYDAYEoxI6iH5zVAR+RooBW5T1U+A/sBm1zmb7Tbsn5sAVLVOREqAfHd7mD4hiMhVWNoXQLWILG2j79LR6QXsau9JJAhmLYKYtQhi1iLI6FgvEDeBJCLvYZU+b8yvVfXVZrptAwap6m4RmQC8IiJjsUpeNMYpjdHcsZb6hDaqPgw8bM/7S1WdGO68zoZZiyBmLYKYtQhi1iKIiHwZ6zXiJpBU9UQPfaqxy6Sr6lcishYYhaXdDHCdOgDYar/fDAwENotIGpAHFNvtUxv1KYx2TgaDwWDwh4QK+xaRAhFJtd8PwwpeWKeq24AyEZls+4cuARwt6zXAiaA7B/jA9jO9A5wsIj3sYIaT7TaDwWAwJCDt4kMSke8CfwcKgDdFZKGqTgOOBX4nInVAPXC1qhbb3X4CPA5kArPsF8CjwAwRWYOlGV0AoKrFIvJ74Av7vN+5rtUSD8f6/ZIIsxZBzFoEMWsRxKxFkJjXQixlwmAwGAyG9iWhTHYGg8Fg6LwYgWQwGAyGhMAIJBcicoqIrLTTEN3S3vOJNyLyHxEpcu+7EpGeIjLbTrc0253dQkRutddmpYhMa59ZxwcRGSgiH4rICjut1fV2e6dbDxHJEJH5IrLIXovf2u2dbi0ARCRVRL4WkTfsz51yHQBEZIOdwm2hE+bdpuuhquZl+dFSgbXAMKArsAg4oL3nFefvfCxwKLDU1fZH4Bb7/S3Avfb7A+w1SQeG2muV2t7foQ3Xoi9wqP0+B1hlf+dOtx5Ye/i62e+7APOAyZ1xLezv9zPgv8Ab9udOuQ72d9wA9GrU1mbrYTSkIJOANaq6TlVrgGew0hIlLar6MVZkoht3KqYnCE3R9IyqVqvqemAN1polBaq6TVUX2O/LgBVYmT063XqoRbn9sYv9UjrhWojIAOA7wCOu5k63Dq3QZuthBFKQiFMNJTl91Nr3hf2zt93eadbHzhg/Hksz6JTrYZupFgJFWDkhO+ta3A/8AmhwtXXGdXBQ4F0R+cpOuQZtuB6JmMuuvYg41VAnpVOsj4h0A14EblDVUrvKSdhTw7QlzXqoaj1wiIh0B14WkXEtnJ6UayEipwNFamWNmRpJlzBtHX4dGnGUqm4Vkd7AbBH5poVzo14PoyEFcVIQObjTE3UmdtjZ1Z0s60V2e9Kvj4h0wRJGT6vqS3Zzp10PAFXdi5Vy6xQ631ocBZwpIhuwTPjHi8hTdL51CKCqW+2fRcDLWCa4NlsPI5CCfAGMFJGhItIVK+PDa+08p/bAnYrpUkJTNF0gVkHEoVhpnea3w/zigp2S6lFghar+xXWo062HncKru/0+EzgR+IZOthaqequqDlDVIVj3gw9U9SI62To4iEi2iOQ477HSsS2lLdejvaM2EukFnIYVXbUWKyt5u88pzt93JlaG9Vqsp5krsEp3vA+stn/2dJ3/a3ttVgKntvf823gtjsYyJywGFtqv0zrjegAHAV/ba7EU+I3d3unWwvX9phKMsuuU64AVgbzIfi1z7pFtuR4mdZDBYDAYEgJjsjMYDAZDQmAEksFgMBgSAiOQDAaDwZAQGIFkMBgMhoTACCSDwWAwJARGIBkMbYSI5NtZkBeKyHYR2WK/LxeRf8RpzBtE5JI2uM4zIjKyLeZkMHjFhH0bDHFARO4AylX1z3EcIw1YgJWlvC7Ga00BLlLVK9tkcgaDB4yGZDDEGRGZ6qqlc4eIPCEi79q1Zc4WkT/aNWbettMXISITROQjO4nlO05qlkYcDyxwhJGIFIrIfSLysVh1nQ4TkZfsOjV/sM/JFpE3xap1tFREzrev9Qlwoi3kDIZ2wQgkg8F/hmOVNJgOPAV8qKoHApXAd2yh9HfgHFWdAPwHuDPMdY4CvmrUVqOqxwL/xErhcg0wDvihiORj5aTbqqoHq+o44G0AVW3AKg9wcJt+U4MhCoxAMhj8Z5aq1gJLsApDvm23LwGGAKOxhMhsuwTEbViJKRvTF9jZqM3Jv7gEWKZWnadqYB1WosslWJrQvSJyjKqWuPoWAf1i/G4Gg2eMem4w+E81WFqJiNRq0JHbgPU/KVjC5IhWrlMJZIS7tn2tald7A5CmqqtEZAJWnr67ReRdVf2dfU6GfU2DoV0wGpLBkHisBApE5AiwymKIyNgw560ARkRzYRHpB+xT1aeAP2OVsHcYhZU002BoF4yGZDAkGKpaIyLnAH8TkTys/9P7aSosZgEzorz8gcCfRKQBK8v7TwBEpA9QqXblT4OhPTBh3wZDB0ZEXgZ+oaqrY7zOjUCpqj7aNjMzGKLHmOwMho7NLVjBDbGyF3iiDa5jMHjGaEgGg8FgSAiMhmQwGAyGhMAIJIPBYDAkBEYgGQwGgyEhMALJYDAYDAmBEUgGg8FgSAj+H1DRlZsgBsNAAAAAAElFTkSuQmCC;imageBorder=default;" vertex="1" parent="1">
          <mxGeometry x="40" y="458" width="420" height="278" as="geometry" />
        </mxCell>
        <mxCell id="MIplbjMhPZChMv7-PSJD-4" value="" style="shape=image;verticalLabelPosition=bottom;labelBackgroundColor=default;verticalAlign=top;aspect=fixed;imageAspect=0;image=data:image/png,iVBORw0KGgoAAAANSUhEUgAAAaQAAAEWCAYAAAApTuNLAAAAOXRFWHRTb2Z0d2FyZQBNYXRwbG90bGliIHZlcnNpb24zLjUuMSwgaHR0cHM6Ly9tYXRwbG90bGliLm9yZy/YYfK9AAAACXBIWXMAAAsTAAALEwEAmpwYAABf1UlEQVR4nO2dZ3gc1dWA36MuS+4N9447xQbTTJDpphhw6CQmBEJNILRgEoIpIYROIMAXWmimmN6LKTLFDYxt3I2Ne5O7JdlWPd+PmdmdXe1Ku7Pa1a503+fZR7t35s7cubuaM+fcU0RVMRgMBoOhoUlr6AEYDAaDwQBGIBkMBoMhSTACyWAwGAxJgRFIBoPBYEgKjEAyGAwGQ1JgBJLBYDAYkgIjkAyNChG5QEQ+i9Oxu4tIiYikx+P4yY6ILBCRgoYeh6HxYgSSIeGIyEoR2SQiea62S0SkMNZjq+pEVT0+1uOAb5zHuo69WlXzVbWqPo4fdC4VkVJb4G0VkS9E5Jwo+heIyNoYzt/THkOJ/dokIo+LSKazj6oOVtVCe//bROQlj+e6TUQq7PPsEJGpInKYve13IlJlb9slInNF5JQQ4/ww6JgvichtIc41wd7/2OBthuTDCCRDQ5EBXNPQg0gy9lfVfKA/8BzwHxGZkOAxtLLHMBQ4DLgqTud5zT5Pe+Bb4C0REXvbNHtbK+Bx4FURaRXU/1AROaK2E4hIH+BMYEN9DtwQP4xAMjQU9wE3hLjRACAi/xaRNfZT8iwROdJu7ywie0SkjWvfA0Vki4hk2k/Y37q2HS8iS0Rkp/3EP0VELrG39RGRL22NZIuITHTGIyIvAt2B9+2n9b+4ns4zXGN5T0S2icgyEfmD67y3icgkEXlBRIptc9dBkUyMqm5R1ReBK4CbRaStfcyLRGSRfbxfROQyuz0P+Bjo7NJwOovICBGZZmshG0TkPyKSFeEYioDJwCDXNa0UkWNF5ETgr8A59rnm2tt/Z4+rWERWiMgFEZynAnge2AdoG7StGngRyAP6BXW9F/hHHYf/D3ATUF7XOAzJgRFIhobiB6AQuCHM9u+BA4A2wMvA6yKSo6rrgWnAr137ng+8Yd/cfIhIO+AN4Gasm90S4HD3LsDdQGdgINANuA1AVX8LrAZOtc1094YY4yvAWrv/mcA/ReQY1/YxwKtYT/rvYd0go+FdLE1yhP25CDgFaAFcBDwkIsNUtRQYDay3x5pvz1MVcC3QDkvbOQa4MpITi0hn4ARgevA2Vf0E+Ce2lqOq+9tC8RFgtKo2x5rnORGcJxv4HbBWVbcEbUu3r7MCWBXU9TFg33CmOBE5CyhX1Y/qGoMheTACydCQ3Ar8SUTaB29Q1ZdUdauqVqrqA0A2likLLAF1HoBt5jnXbgvmJGCBqr6lqpVYN8yNrnMsU9XJqlqmqpuBB4GjIhm4iHQDRgI3qepeVZ0DPA381rXbt6r6kb3m9CKwfyTHdo2vAtiCJZRR1Q9VdblaTAE+A46spf8sVZ1uz+FK4L8RXN8WEdkBrANKsQR6pFQDQ0QkV1U3qOqCWvY92z7PGmA4cLpr26H2tr3A/cBvbI3NzV7gLkJoSSKSjyUw/xzF2A1JgBFIhgZDVecDHwDjg7eJyPW2eWqnfXNqifWkD9ZN8jD7Kf5XgALfhDhFZ6wbnnM+xdJonHN0EJFXRWSdiOwCXnKdoy46A9tUtdjVtgro4vq80fV+N5DjmPsiQSyHgvbANvvzaBGZbpsId2AJ3LDjFZF9ReQDEdloX98/a9vfpp2qtgKaAd8Bn0QyVltLOwe4HNggIh+KyIBaukxS1Vaq2kFVj1bVWa5t0+0xtMbSLMMJ3aeAjiJyalD77cCLqroikrEbkgcjkAwNzQTgD7hu5PZ60U3A2UBr++a0E8vEhqruwNIOzsYy172iodPWbwC6uo4r7s9Y5joF9lPVFsBvnHPY1JYKfz3QRkSau9q6Y2kW9cVpQCUw0zZtvYmlMXS05+Qj13hDjfUJYDHQz76+vxJ4fWFR1T1YjhWH2abPGruE6POpqh4HdLLP+1Qk56plDCVYJsbfisiBIbZXYAmfOwm8rmOAq21BvBHLFDtJRG6KZTyG+GMEkqFBUdVlwGvA1a7m5lg34s1AhojcirVu4uZlYBzWWlIocx3Ah8BQETnd1kyuwlo8d5+nBNghIl2AG4P6bwJ6hxn3GmAqcLeI5IjIfsDFwMRaLjciRKSN7RDwGHCPqm4FsrDMlpuBShEZDbjd2zcBbUWkZdD17QJKbG3liijGkI1lftwIbA2xyyagp4ik2ft3FJEx9lpSGda8xuweb1/701jm3VC8iDUvJ7rajgGGYK1BHoD18HAZ1nwakhgjkAzJwB1YnlQOn2J5jS3FMoPtxWV6s3kPy/Nqk6rODXVQe5H8LCyPrK1YHmM/YN0wwXq6HoalfX0IvBV0iLuBW2wvtVDOF+cBPbFueG8DE1R1ch3XWhtzRaQEWAZcAlyrqrfa11KMJbQnAduxNMP3XNe6GMvJ4hd7vJ2xHEbOB4qxtJXXIhjDDnsMm7AcIcaE0T5ft/9uFZEfse4l12PNxTastaqIHCgi4GHgJFvoB2Cvz03AXmez27aq6kbnhSUYt9salyGJEVOgz9BUsJ/m1wIXqOpXDT0eg8EQiNGQDI0aETlBRFrZJihnDaWGK7PBYGh4GlQgicizIlIkIvNdbbfZXk9z7NdJrm032wGIS0TkBFf7cBGZZ297xF68RkSyReQ1u32GiPRM6AUakoHDgOVY7tOnAqfbC/YGgyHJaFCTnYj8Cmvx8wVVHWK33QaUqOr9QfsOwrKRj8Byuf0c2FdVq0RkJlYamulYnkePqOrHInIllgfV5SJyLnCGqkacH8xgMBgMiaNBNSRV/Ro7xiICTgNetYMYV2At/I4QkU5AC1WdZi++voA/yO40rLQkYMWuHONoTwaDwWBILiIO0kswfxSRcVgeUder6nasOBW37X+t3VaBK9jR1Y79dw2AqlaKyE6sFDLBKUouBS4FyMnJGd69e/d6v6BUpLq6mrQ0s8wIZi7cmLnwY+bCz9KlS7eoao2sK9GQjALpCaxAN7X/PgD8ntABfVpLO3Vs8zeoPgk8CdC/f39dsmRJ9KNuhBQWFlJQUNDQw0gKzFz4MXPhx8yFHxEJzjcYNUkn2lV1k6pW2Zl+n8KfWHItVsS1Q1esmIe1BEbfO+0BfezAyJZEbiI0GAwGQwJJOoFkrwk5nAE4HnjvAefannO9sIIiZ6rqBqBYRA6114fGYWVJdvpcaL8/E/gyTJCfwWAwGBqYBjXZicgrQAHQTqxqlxOAAhE5AMu0thIr5QequkBEJgELsdLKXOWq3HkFVt6tXKwI/4/t9meAF0VkGZZmdG7cL8pgMBgMnmhQgaSq54VofqaW/e/CSjkf3P4DVu6q4Pa9WKljDAaDwZDkJJ3JzmAwGAxNEyOQDAaDwZAUGIFkMBgMhqTACCSDwWAwJAVGIBkMBoMhKTACyWAwGAxJgRFIBoPBYEgKjEAyGAwGQ1JgBJLBYDAYkgIjkAwGg8GQFNQpkERkXxH5wikzLiL7icgt8R+awWAwGJoSkWhITwE3YxXCQ1V/wiQpNRgMBkM9E4lAaqaqM4PaKuMxGIPBYDA0XSIRSFtEpA92pVURORPYENdRGQwGg6HJEUn5iauwynsPEJF1wArgN3EdlcFgMBiaHHUKJFX9BThWRPKANFUtjv+wDAaDwdDUCCuQROS6MO0AqOqDcRqTwWAwGJogtWlIze2//YGDgffsz6cCX8dzUAaDwWBoeoQVSKp6O4CIfAYMc0x1InIb8HpCRmcwGAyGJkMkXnbdgXLX53KgZ1xGYzAYDIYmSyRedi8CM0XkbSzX7zOAF+I6KoPBYDA0OSLxsrtLRD4GjrSbLlLV2fEdlsFgMBiaGnUKJBHpDmwB3na3qerqeA7MYDAYDE2LSEx2H2JnaQBygV7AEmBwvAZlMBgMhqZHJCa7oe7PIjIMuCxuIzIYDAZDkyTqekiq+iNWXJLBYDAYDPVGJPWQrnO9bhCRl4HNCRibIUqqtZobPruBX7b/4qn/vE3zmLpmakDbw9MfZtHmRZ6Od//U+znuxeM89TUYDE2PSDSk5q5XNtaa0mn1cXIReVZEipzif3ZbGxGZLCI/239bu7bdLCLLRGSJiJzgah8uIvPsbY+Ind9IRLJF5DW7fYaI9KyPccfC8m3LUdW6d4wAVeWRGY+wudR6Pli0eREPTHuAs14/i8rqSpZvWx7V8fb7v/044tkjfJ8rqyu59tNrOeyZw2rtd8eUOzjhpRNqtN84+UY+/+XzqMZgMBiaLpEIpIWqerv9uktVJ2KlD6oPngNODGobD3yhqv2AL+zPiMggrMKAg+0+j4tIut3nCeBSoJ/9co55MbBdVfsCDwH31NO4o2LMK2O459t7+GbVN/R9tC8HP3UwN02+iZLykpiOO3XNVK755Bqu/uTqgPbdFbu58bMb6ftoXzYUe68Usrd6LwA7y3bWut/3679n1vpZns/TGKisNiXCDIZYiUQg3RxhW9So6tfAtqDm04Dn7ffPA6e72l9V1TJVXQEsA0aISCeghapOU0v1eCGoj3OsN4BjHO0pUagq7y99n/FfjGfOxjkAzNowi3un3stHP38U07FX7lgJQHlVORVVFeyttARIVXUVH/78IQA79u4I279aq0O2n/fmeRzwfwewp2pPROMoKi1iZ9lOz5rf1t1bPfVrKGaum0lxmT/p/cSfJpJ5Z6ZnU6nBYLAIK5BEZLSIPAp0sc1gzus54lsxtqOqbgCw/3aw27sAa1z7rbXbutjvg9sD+qhqJbATaBu3kYegqLTI994RGA7ri9fHdOwNJZb289ait+j9SG+fxlWlVZRXWdmeTn/tdGasnQFYT/GOEHpj4Ruk35HuE2puXp3/KnM3zaWsqiyg/aFpD3HZ+zUdLItKi6isrmRPZWgBVlFVwR8/+iMf//xxjW1fr/qadve144OlH0R41Q1LSXkJhzx9COe8cY6vbeK8iQAs3LywoYZlMDQKanP7Xg/8AIwB3PaYYuDaeA4qDKE0G62lvbY+gQcWuRTL5Ef79u0pLCz0OMSaLNzlv0kt/DnwhjVj4QwK93o/19RlfgeEtbvWMm3WNABKd5dSqdYzw9KtSzn1pVOZdOgkLv7hYlpktODOIXfyzLJnAHjwwwcZ22VsyONvK/Err4WFhVw3xapI0q+iH5vKNnFyp5MB2LhrIwAfffkR2WnZZKdnI66pv+KlK3hm5TNM/XkqufvnAvDQ0ofYv9X+bNhrCdWXvnmJ/PX5nuci3pSUlFBYWMi2cmtOpq6a6vudFG2xHjoWzl+Y1NdQXzhzYTBzUd/Ulu17LjBXRCba2kWi2CQinVR1g22Oc1SMtUA3135dsYTmWvt9cLu7z1oRyQBaUtNEiKo+iVUVl/79+2tBQUHMF/HNqm944ocnaNesna8tq20WrPLvk9k6k6EjhtK2mTel7b719wV8zu+WD/MhIyuDqqoqX0rccsrJ7ZvLL1Msk9Kp353K1SOu5pNNn1CaX8qbu9/0aVtu0rL9CnRBQQFMsd7fOO9G6/zn3UdpeSl7p1ia34ADBzD0iaHBh2FT1iZre9cBOHM7asoo3tvwHncU3AEroFePXtQ171XVVeyp3EN+Vv3d9L9b/R0iwuHdDq91v8LCQgoKCli2bRlMg5ysHN9481fmww446MCDKOhVUG9jS1acuTCYuahvaivQN0lVzwZmi0gNrUJV94vTmN4DLgT+Zf9919X+sog8CHTGcl6YqapVIlIsIocCM4BxwKNBx5oGnAl8qfXl4haGKSun8OWKL5lXNI+3F78dsG3RlkD36alrptLuvnbce+y93HjEjVGfK3jt5bs13wGBJjuwzEwz1s0I2HfNLsv6+VPRT/yw/oeQxy+urLs4sNsk+d3q70Lus7Fko28cEOgA4LxPT0v3tc1YO4MvV3zJzUcGLlVe8v4lPDfnOapvraa+lgJH/m8kADohsp+Fcw0Zaf5/HePQYDDUD7WZ7K6x/54Sr5OLyCtAAdBORNYCE7AE0SQRuRhYDZwFoKoLRGQSsBBrDesqVa2yD3UFlsdeLvCx/QJ4BnhRRJZhaUbnxutaHAqeLwAgNyO3xrbZGwNz0i7fbrll/+Xzv9A6tzWXDLskqnMFOyV8tvwzwNIkKqoqfO1VWsX2PdsD9l1XvA6g1oX4reV1Oxu4BdInyz8JuY9bIOXelcu5Q/xfg+PBt6fCv/506DOHAjB+5PgAwfPcnOd8x2me3ZwvV3zJkd2PJDM9s85xRsr64vWoKl1adAm53XFmyEjLoKyyjMz0TCqqrbl2PwQYDIboqc1k5zgWrAq3T6yo6nlhNh0TZv+7gLtCtP8ADAnRvhdboCWKLs27sK54XcACf3Z6NmVVZQFu3s0ym7G7Yrfv86fLP41aIGnQcti2PZY1MlhDAti+N1Agrd21NqBPKJz1EiCkB11ldWWAQPrily9CHscRSKt2rmJv5V6fYAHYvNuKodq2t+Y4dlfsJi8rj00lm/hp008B1/Ldmu8YPXE09x93P9cffn3Ya4iWLg9agiicxuR8h4qSc1cONxx2g0/4G4FkMMRGbV52xSKyy/Uqdv9N5CBTicEd/Dln+7XpB0D3lt3Jy8wL2G/ftvv63ndt0dWTy7S7j1sjq6iqoMqnPFps37udHi178P557wORefi5NaTVO2smdy8tLw0QSMXloU18jkkrlDbm9A8lGH//3u/ZtmcbN39xM8e/dLyvfduebXyz6htrjHu8u4zXNudV1VU8P+d5NpVY61/l1eWUlpf6rtHR6B6e8bDv+soqLa/E4rJibi+8nUkLJnkem4Px3DM0JcIKJFVtrqotXK/m7r+JHGQq0btVb9/7Qe0HAdA8uzk9WvUI2O+AfQ7wvW+Z3bKGthMJ7j7DOw/3vQ8VcLt652pa57ZmZPeRER9/e7lfq+r57541tr+x8A1u+eqWiI8XCifLxNbdW1m2bRlvLnzTt23Sgkn87Yu/+YRni2zrZ7dtzzYWb10MwN3f3s2EryZ4OndtgclfrfyK3737O85/63wAxs0cR/7d+b4+jgt/ZXWlz2TnuMl/sPQDbptyGxe9e5GncTm8u/hdBj8+mHu/u5eO93fk560/x3Q8gyHZiSi5qogME5GrReRPInJgvAeVyqSJNaUfnf8ReVmWVtQ8qzlV1YEay/4d9w/oE6uGNLDdQH97COG2dOtSWue0pkV2C59L9oB2A2o9/tay2rWPS96/hI0lG8nLzCNd0mvdNxxbdm8BLCEz8LGBnPn6mQHbN+/ezOqdqzljwBl8e9G3vn1nb/Cvx93x9R2ezu02Y7pjtABf0PL8ovlsLNnIpjJLU3LWkNwm2WCT3aZSa9/g7zxaft5mCaCbPr+JotIiHp35KNd8fE1AUK7DO4vf4dRX6iuBisHQMESSXPVWrGwHbYF2wHMiEttjcSOmWqtp36w9o/uNJj/Tck/Oz8r3PUU7uAWSiITNmlDXuRz6t+1f677ri9fTOrc1aZJGq5xWAHTK78SsS2ex+s+hay0uLl4c0ThyMnJ87u3hhFzL7JYh2x2BtGX3lpDearvKdrF8+3L6telH61wrreG6XetCBvRGi9vRo7isOMBsOGWV5eNeVFpEpwc6+dqdfdxjdb7bjSUbub3wdl+6pqz0rJjGF+ze/p+Z/+GRmY9wz3f31MhTeMZrZ/DB0g9qOK8YDKlEJAX6zgMOtB0EEJF/AT8C/4jnwFIVRX2eYY6GlJ+Vz5tnv8lXK77ius+s4NJOzf03OUFiNtn1adOnzv1b51g39Na5rdm+dzt5WXkM6zQs7P7VRCYk91TuoV+bfmwq3cTxvY9n/hXzybgz8KfVtUVXdm6umROvrKqM9s3a+5wbglm0ZRHlVeX0bdOXNrltAJi2dlqN+VLVqF3B3RpSUWkRAx7zC9P5RfNDdWHptqU12hzhdMuXt6Cob70wODNHtASvOzrXPHXNVO765i4eHf0og9sP5rPln9Emtw3b9mxj6dalHNL1kJjOazA0FJGY7FYCOa7P2UB0aaSbEKrqM4k5T7j5WfkcsM8BXHuYP8FFXmYer5/1Ot/93grMjNVk56yv1IZzQ3cEU7QBpq/8+pWQ7bsrdtMhz8rw1CqnVUBMkUO3llZMc+fmnWts++OIPzK4fegCxI434KD2g8jNyCU7PZtvV39bY7+0O9Ki1jLd2oRbGEF4j7lQTgaOyc4RGKUVpVZ7dUWA+320OA80wThzclvhbRz9wtH867t/0TGvIwBLti7xfD6DoaGJRCCVAQtE5DkR+R8wHyhxctvFd3ipR4CGZD/hhlpfycvK48xBZ3J4t8PrRUNyC5d1161j3XXrauzvCCJHMLmfwLPTswP2vXPUnb73j530GOOPGM85g638bb1a9apx7NxMy8vPMQe6TZJgucMDjOo5ipyMnIBt+Vn5HNa19hIXwzsPR0Rok9uGdcXrSJf0GiaxaNdsanN5D0eo2lC1aULh8vtFQrPMZiHbnXG7PQydWKylW2tqcAZDqhCJQHob+CvwFVAI/A0r8HQWgTnuDFjrOo5jg/OEG8qU5BYGXp0a3BpBXmYeRTcUsfnGzXRu3jmkJuJoMc56k9tV3BEoDrf86hZO6HgCo/uO5sqDr+TuY+9GRFh33To+uiAwS/mNh9/oE2iOQLpjVKCjgaPBtchuQdENRTx96tO+bc0ym9XIyhCMI8T2yd8HgL5t+tbQiKIV6o4mE0zzrOZh+wSvBUJ4d3ewXOPrm1Cu7ut2WQ8g4UyNhsi5rfA25HZvVgtDbNQpkFT1+dpeiRhkKuE22QX/BWjfrD0QuODt1akhIA4pM5f2ee0DcucF47ieO+tG60v8sUihMkuMHzC+hvDp3LwzbXP9ufemXTyNe4+71ycwHKEwpv8YVv3ZH1PtHL95VnOaZzfnoM4H+bY1y2xG79a9mX1ZYCYLgLuOvot3znnH99lxlx/YfiAfnv9hwL7R3kBCzfncy+dGtB4XKdv3buebVd/UWgYkHNFcjyOkZq6baW6kMXLHFOthKtTDhyG+ROJld4qIzBaRbSYwtm7cJjvn5uzWkGb+YSZvnv1mQFt9mOwicbvu0dISSEM7WglQ3Z5abvNQsLktGLd50BEQjkBygkMhUNP4/YG/Jz8rn4uHXQwErnk52mIoT7y/HvlXThvgL1C8X8f9fMc+vs/x3H3M3b5t0Qr14Bv3c6c9x34d96tVQ3KPNxQFPQsAOKKbVXl38OOD+dVzv+LaT6NPkO/lIWVDyQZfWiiDN5zfsjudVX1SUl7Ce0vei8uxU51ITHYPYyUobWsCY+tG8WtIzg3PrSH1bNWTsQMDyz3E4tRwUOeDuKPgDrq37F5j+5I/LmHJH/2L3I5jwf4d9+e0/qfx+MmP+7Y5AmnCURP4fFztZcfda0DO+1uPupUT+57IeUPPC7lfnzZ9KL652JehomWOX/g453a3Hd3raP7+q7/XOPeQDlaGKCfo2C0coxXq7v3vO+4+LjzgQsBvaj2s62Hsk7+PT3g6sV4n72uV3XCvuzkPBL1a9aLy75X89ci/BpzrzYVvRp1aKNrrGd7JCo7+ccOPUfUzBJKdYX2vzvrfki1LeGjaQyH3LasqC1hD3F2xm4GPDWTKyilhj3/ZB5dx2qunhVyPjITVO1cz9rWx7CprfHpBJAJpDTA/3lmyGwuq6ltDcqjLHTlN0jxrSH3b9OXvR/095Dn2bbtvQIoiR0BkpmfyzrnvBJRccNaQTux7Yq1mP7CuZ+LYiSz70zJfW9cWXfn4go99a0jg/8cOhVtDcgSSu+2LcV/UWIcCOLb3sXz+28+54fAbgCCB5NFkt/UvW7n+sJr58MYOHMuG6zf45uOOUXew6KpFHNz5YMCax3H7j+OQLof41rY65HUgPS09QIv632n/o7i8OOo0QLVpSKHizhzt0fHCM3jD+T/5etXXXP/p9Zz88slc99l1ISsbn/rdqfT/j/+72FC8gcVbFvPVyq/CHt/JuOEkFo6Wf337L95e/DYv/fSSp/7JTCRxSH8BPhKRKVgedwCo6oNxG1UKU63+0ggXHnAhhasKueVXtccRC94DY93aVyw4azyRminOH3p+nfsEC2Y3GWkZvgSzjkByl3SojWN6+3PvugWSV5NdVnpWgEB34oocr0Rnva9FdgsGtBvgSyKbkZbB86dby6h9HrHWnRzHEbcJ1PFqjNYLsDYBO6j9oBou3n1a9yFd0mOuRNzUcTRfpyqw83CxYscK1hevp1lmM986Y4VWBOR5dBxlVuxY4Wv7bPlnXPXRVfx0+U/kZub6wiK8xql1a2FZOuojODzZiERDugvYjRWL1Nz1MoTAbbJrkd2CN89+0/f0HI5YTHaRBIOuuXZNgINBKMaPHA/4TWKJwFkzChdvEwnuG79Xk12w4PQJJDszRGaa5VLtCD9H83McVMAvtEIJJOf4sZgUg+O03AHNjrmwZU5L9snfx6whxUhwWIKTlX/F9hXs93/70ffRvox6fhTj3h5Xo6/jVbliu18gzVg7g2XblvlSSjnfl9esGk5plJnrZnL5B5fHHICdTETySNpGVY+vezcDeMsYEItTQyQaUtcWXevc58S+J0ZcpC4abh55M0f1OCrktpY5LdlQsiHg5v3luC/D1iKqC68mu+A5dIJZHfOjI2ycG8lRPY7ivCHn8c9j/unr4zxVhxJIzvGj1eDc+98x6g5+PenXvs/uFE2D2g9iXtE88rPy6dKii9GQYiTY1Oz8b7oLbBauLAzYp7S8lLysPJ/wcme2d7KQuGtpgbc4OPD/DqesmsKUVVM4svuRnD347HqtC9ZQRKIhfS4iRiBFiFJzDakuYkmuWl+VU+PFP4/5Jyf0PSHkNkdDct+8R/UaFbDuVRfunHJRayBau4bkPCn3bm1lcHcEU7+2/Xj51y/Ts1VPX5+INKQov2Nn/7+O/Csn9TspYNu+bfflrbPfYvZlszllX6uG5q6yXVY9rl1GQ4qF4CBxh4+XfRyyHfwVmB2T3fri9eyt3Muusl1+gWTHqzkmu+AaZZES/GDz5qI3yfpHFou3+HNPri9eH1BDLFWIREO6CviLiJQBFYAAajztQuNlXcdzHJIH4ZdMOE4MtblR14XjZg3eNZBgod6jVQ9mrJvhE5hPnfoUvap6BZQMCcZ5qnYEktsM6Rw/6jUuW8CeN/S8Gmakvm36+pwY9m27L1XVVYzbfxxLty6tdUHdUDfBc+0wfe30sH3W7lpLfla+z2SnKBO+msDjPzzuM7cGZ2kvKi1ixtoZUeceDH7wenvx24CV1srRnIMLTa7csZJ1u9ZxRPcjojpXoqlTIKmqWS+KgkSa7OrTqaEhcNy8g7NEREOL7Bb8+8R/c80n10SvgThxYkFz+OQpTzJ2wFhfscWWOS0Zvc/oWr9XR0NyPPIcJ5GMtAzPa0jBJsUtN26hcGUhX6z4IkADa5bZjHuOuwew5iMe2SGaErV5h4bjvSXvcdyLxwV4ij72/WOUVpT6vCvvm3ofg9oP8tXUum/qfdw39T5W/3m1LyQjEsI92NT2++/1byvdVzzM8vVJZG5NNiLSBzgXOE9VE7f6nUJEuq7jRkSorvaWqSHZTXa10TK7JTkZOTFreb64r3oy2bXMack5Q86J6ljZ6dm0zmntX29KS+eB4x/guN7H+Uq4e/UCdL7jts3a8utBv+bXg34dtk+aRJ9k1hBIOA0pHO2btefRmY8CBMQGOeY7x1T3xYov6P5w9xqJkGNZW3TjrEm5492279nuKUtIQxFJpoZOInKtiMwEFmAJsfPq6NZkSUanhmTl0K6HhnV4iAavazThTHZeyMvKq+FNed1h1zG041Df+Lya7KIR2F5j2gx+wq0hheMPw/5Qo622EIbggFavD1LBLN6ymIqqioAEu30e6UPvR3qH3D8ZCftLF5E/iMiXwBSs4nyXABtU9XZVnZeoAaYaXp0avOayS2WBdMmwS/jkN5/EfJxY12jqYw7vKLiDZ097NuQ2XyqpevICrA2jIcWO22RXV5A4hA6V6NM6dD7EQ7rUXC+qjxyMAA9Of5Cxk8YGePh5dZxoKGq7cz4GpAPnq+otqvoTmEevuvDq1ODJyy7FnRrqi1hNdvWhIQ1sP5BDux4acptnDSmMSbE2vGqLBj856X6TnZMuqjacNFZu/jTiT1w94uoa7aP7jq7RVl8mO4APln6Q0pk6avuldwZeBR4UkSUicieQ+o7ucSbhTg0pvIZUX8SigSRCw4zZqSGK79ir8DP4cReYvGz4ZYA/T2DfNn3pmNeRiw+0kgRnSmbIuLmrRlzFTSNvqtHuZBk5oY8/FKI+BRLAVR9dFdXxkomwAklVt6jqE6r6K+AYYCdQJCKLROSf4fo1dbw6NXiOQ0phk119EUsmhEQIdK+BsV5MikYgxY77f/HIHkeiE9QnQLq26MrGGzZyxUFXANC9WfeAcixuQlVxPqLbEfxn9H94ZswzvDz2ZcD77yIUY/qPCbstVDb9ZCMiW4CqrlXV+1V1OHA6rpx2hkBCJVeti1iSqxoNKbZMCIkwecYaGOvFZGcEknfc/4tOpWMnrsxJIzW041DG7T+O2wffHvZ/MC8zL2Si5atGXEWXFl08f1e17T+kfXjn51T4TUT936iqS1T19ngMpjHgxYzmNbmq0ZAsvJrsEjV/Xp0ujMmuYXDPnWO+c4K3ne8iKz2L509/ni65lsDqkNfBF6jsICIhtSSH+hRIj5z4CA+f8DBtm9XU1k4fcDptc9umxG/CrIjXM4k02SXqCT/Z8ezUkCCnkFiTqxqTXWIJ9T25A5FDsf669SErHrfIbkHrnNb8eOmPzLp0VsC2+hRIv93/t1xz6DW+zPJu3j7nbX5/4O9T4jcRVWCsoW4SHodkTHYxxSEl9RqSMdk1CM7czb9ivq/NMdmFezhwNKmvLvzKZ9YDSyDlZORwYKcDa/SJ1fvSjaOJhRJIzrlS4TcRkUASkS5AD/f+qvp1vAZln3MlUAxUAZWqepCItAFeA3oCK4GzVXW7vf/NwMX2/ler6qd2+3DgOSAX+Ai4Jp7FBr1oSDElVzUmO+9xSAmav1ifhKMRml6Fn8FPtVbTq1UvX+oo8GtIdX0X7tyKYAmIcL+x+tSQnGM5NbxCbU+F30SdAklE7gHOARZi3ezBikeKq0CyGaWqW1yfxwNfqOq/RGS8/fkmERmEldJoMJa7+ucisq+qVgFPAJcC07EE0olA+LS9MeLFqSGW5KpGQ0ohk1095dqL5FypcPNJVkL9DztaT7QPMP8Z/Z+w/6PxcGoI1pCccTcagYTlVddfVZPBs+40oMB+/zxQCNxkt79qj3GFiCwDRthaVgtVnQYgIi9gXU/cBJJXpwZPJjsPwq8xElMcUiJMdjFocGBMdokm1O/C93AQ5e9laMehYbfF6uzisPnGzb73boH02pmvceA+lqmwMQmkX7ACYhMtkBT4TEQU+K+qPgl0VNUNAKq6QUQ62Pt2wdKAHNbabRX2++D2AETkUiwtivbt21NYWOh50Fu3baW0sjSqY2zdspWSvSVRn7eisoJ1a9fFNN7aKCmJfkwNwZJNVinv6TOmsyZ3TcT91qxZQ3VVdUTXGMtcLCtZBsC8+fNouTHyWJDF6636NtOmTaNNVui1gRrnWmed69vvvqVlZnziTlLld+GVTZs2UbanLOAaf9pi1RbatnVbQHssczF/q7VG9f2s7yn9OfIM7ctXLwcgLz2PS3pdwvyZ/rWu8mp/YtUOmzuwbvM61rGO1atWoyhfffVVUltVIhFIu4E5IvIFLqGkqjXzYtQvR6jqelvoTBaRxbXsG2qGtZb2wAZL2D0J0L9/fy0oKPAwXIvWa1qTUZ5BNMfoUNSBHVt3RNUHIG1aGt26dYu6X6QUFhbG7dj1ybqf1sFiOHjEwVEV93tn7ztkbsmM6BpjmYvWG1vDLBg0eBAFAyM/xsLvF8LPMPKIkb46S3Wx6PtFsAwOO/ywiPtES6r8LrzyxJYnWK/rA65xQMkA/rbgb0wYPYGCvv72WOZi77K9MB+GDRsWNu1UKKZ+MxVWwLabt/myywfwDVx0wEUB4/p6ytewCo4qOCqprSqRCKT37FdCUdX19t8iEXkbGAFsEpFOtnbUCSiyd18LuAuKdAXW2+1dQ7THb9we1iVMHFJsJLvJLuZs5GYNKaGESim1T/4+9V5LKGZnlzC/i71/21ujnLnb2SWZBVKdI1PV54FXgFn262W7LW6ISJ6INHfeA8cD87EE44X2bhcC79rv3wPOFZFsEekF9ANm2ua9YhE5VKw7zzhXn7iQ6OSqyax+J4pYkqsm4p8z1jUkExibWBL1u4hX0t3sjOwa21LldxGJl10BlgPBSiwTWDcRuTDObt8dgbftf8QMLCH4iYh8D0wSkYuB1cBZAKq6QEQmYXkCVgJX2R52AFfgd/v+mDg6NNhjMU4NCSamOKQkdvv2Wg/Jy7kMfhKtOXvVkBpjFvhITHYPAMer6hIAEdkXS2MaHq9BqeovwP4h2rdiJXoN1ecu4K4Q7T8ACatum+hMDcZkF1s9pEQGxsZawjwSjECKnUSHA5iUUn4imfVMRxgBqOpSTBmKsHjRkExy1dhIdpNdrKaZxnjjSWaSXXP2Mr5U+V1EoiH9ICLPAC/any/AWksyhMA4NSSeVDHZeQ2MNSa7xJL0Dyoeq1J7OVeiiUQgXQFcBVyNtYb0NfB4PAeVylRrNemSXveOLoxTQ2wkvcku1mzfUQhNr+cy+El0WZJElE1pNALJzn7woP0y1IFxakg8qWKyS0SJ9VS58SQzqeDU4GVZwMu5Ek1YgSQik1T1bBGZR+hg0v1CdGvyJDK5qnFqsEj2EuaxVow1JrvEkgpODU1RQ7rG/ntKIgbSWDDJVRNPspcwj1cAZH2ey+An6R9UPFal9nKuRBP2qpycccCVqrrK/QKuTMzwUo9EJld1+jZ1kr2EeSwVbcFoSIkm4aZcD5p9kxNILo4L0Ta6vgfSWEhUHJKXm1VjxfMN38N35YWGiDdJ9gDIZCYVnBqanNu3iFyBpQn1FpGfXJuaA9/Fe2Cpiqc4JKKPQ/Jys2qsNFqnBlMPqUFIBacGL8sCXs6VaGpbQ3oZK83O3ViF8ByKVXVbXEeVwnjVkLwueBuTnSlh7sYIpNhJdqeGJhmHpKo7gZ3AeQB2GYgcIF9E8lV1dWKGmFp4cmrAu8nOaEgxxiElcWBsY04Rk8ykRKYGj27fXteqE0Wdd04ROVVEfgZWAFOwkqzGNUFpKuPJqUGid2owGpKfZDfZxSIwwZjsEk2yZ2po6k4N/wAOBZaqai+s5KZmDSkMnkx2MWhIxqkhheohJSAw1qt50OAn2deQmqTbt4sKO8t2moikqepXwAHxHVbq4jW5aiI8sBorMcUhJXG8SWP2pkpmkn0NqTFrSJHkstshIvlYOewmikgRVs0hQwg8JVc1JruYSGSAoRdiWbxurClikhnj9t1wRDLrpwF7gGuBT4DlwKnxHFQq46lirHFqiImUMdl5+I4b65NwMpMKTg2N9XcRSXLVUtfHuJYubwx4Sq5qNKSY8OzUkCDTTCzZvhvrk3AykwrOLk1OIIlIMYFJVcX+LICqaos4jy0lSVRyVePU4Cdl6iElQGCmyo0nmUl2Z5cmqSGpavNEDqSx4LX8hHFq8I7nJ00P35UXYnJqMGtICScVnBoa6+8iolkXkZEicpH9vp2I9IrvsFIX49SQeJLdZBfLGpJXk12yB0AmM6ng1NBYNaRIAmMnADcBN9tNWcBL8RxUKmOcGhJP0tdDMmsFKUWyOzV4euhNkfi0SK7qDGAMUAqgquuxEqwaQuA1DsloSN6JJfA0mQMgG7NpJplJ9nCAxuzsEsmsl6v16KkAIpIX3yGlNolKrursb5waYqvImhBvqhhSGzXWG08yk+yZGmIx2SV7WZJIrmqSiPwXaCUifwA+B56K77BSF5NcNfEku8kuoaaZFCkzkMwku1NDY45PqzUOSaxf92vAAGAX0B+4VVUnJ2BsKYlJrpp4UsVkl4jA3VS58SQzyf6g0pidGmoVSKqqIvKOqg4HjBCKgETHIRkNKXVKmHtySzcmu4STEmtIjfRBJZJZny4iB8d9JI2ERMUhOdqAWUNK/hLmYJtlTWBsSmDcvhuOSK5qFDBNRJaLyE8iMi+opHnSIyInisgSEVkmIuPr7uEdr04NnkuYG5Nd0tdDAu+OK431STiZSfpKwo34QSWSNaTLgVWJGU79IyLpwGPAccBa4HsReU9VF8bjfMapIfEkewlz8FZipDEvXiczye7U0Jg1pEjWkB6y15BSlRHAMlX9BUBEXsXKYB4XgeQpMNY4NcREspcwB28PHY053iSZSXiOQ/O78BFJPaTpInKwqn4f99HEhy7AGtfntcAh7h1E5FLgUoD27dtTWFjo+WRlZWVs3LgxqmOsXrUaVY2qT9HeIgCWLl1KYXHk/aKhpKQkprlIFMtKlgEwb/48Wm9qHXG/7du3A0R0jTHPhcLK1SujOsa6DeuoqKiIqs+a3dZPff6C+RRuibxfNKTK78Ire/bsoWhTUdx/F5XVVlm55b8sp7Aq8mNs2bKF0srSqM47b+c8AGbPmU366vRohplQIhFIo4DLRWQlVrYGJ9v3fvEcWD0S6lEi4JFEVZ8EngTo37+/FhQUeD5Z5qxMOnfqTDTH+Eq/QldrVH1W71wNM2DggIEUHBh5v2goLCyMakwNRZtNbWAWDB48mIJBBRH3a7GiBelp6RFdY6xzkfFdBt26dYvqGBN3TSSnJCeqPsu2LYPvYeDAgRTsF3m/aEiV34VXsmZnRfw/HMtcVFVXwTfQo2cPCo6K/Bit17ZG9kpU581ekw1zYOh+QynoG3m/RBOJQBod91HEl7VAN9fnrsD6eJ0slmDGaDz0jFODn2QvYQ4xODU0UtNMMpMKcUheYh29nCvR1HnnVNVVQCusKrGnAq3stlThe6CfiPQSkSzgXOC9eJ3M04/Fg5eYcWrwk+wlzMFjrJkpYd4gpELhxsbq1BBJtu9rgIlAB/v1koj8Kd4Dqy9UtRL4I/ApsAiYpKoL4ng+7yUDorhhGacGP8lewhy8x5o11qzOyUyye1/GlMsuycuSRGKyuxg4xCllLiL3ANOAR+M5sPpEVT8CPkrIuTw81bqflNKJbMHRaEh+kr0eEnjL6G5Mdg1DojVnE4fkJ5KrEqDK9bmK0I4CBrxpSJ5MdiZTg49kL2EO3taQvJYygeS/8SQzifxdeNWQGuuDSiQa0v+AGSLytv35dOCZuI0oxYnVqSFSjFODn2QvYQ7mSTiVSLTm7EUgZaZlRn0ep28yU6dAUtUHRaQQGImlGV2kqrPjPbBUJZZ0L8apwRupYLIzgbGpQ6Jy2YHHtcVGnMEjrECyE6q2U9WPVfVH4Ee7fYyIpKnqrEQNMpWIxWQXzY/FODX4SfZ6SGBSB6USjdmpIdl/F7Vd1X1YXmnBLLS3GUIQi1NDVF52RkPykez1kCAGpwazhpRwEh4OYH4XPmqb9baqujK4UVWXAW3jNqIUx2tyVYjuhmpKmPtJ9hLm4NGpwWNtLUj+G08yk+yac1PVkHJr2ZZX3wNpLMRi9zdxSN5IFZOdl4zujfXGk8wku1NDY3Z2qe2qPheRuyRINxSR24Ev4zus1CXWOKSIz2NMdj5iqYeUzIGxiXKQMQSSSKeGRLl9p0rAdG1edtcDTwPLRGSO3bY/8ANwSZzHlbIkOg7JaEixxSEl9MaDMdmlAsapoeEIK5DszAzniUhvYLDdvMCpK2QITaKdGswaUorUQxJvRRi9xrQl+40nmUn2TA1NUiA52ALICKEISbRTgzHZpUYJc8+mmUbqTZXMJLtTQyxri9E+FCUa83hdzxinhsSTCslVvbj3GpNdw5DsTg2N+UHFCKR6xjg1JB6v/2yJLmFuAmNTA7OG1HBEUn7ixUjaDBbGqSHxpIrJLhEaXKrceJKZVDDlNlmBhN+hAQARSQeGx2c4qU+ikqsapwY/qWCy8xoYa+ohJRZVTYmA6SYnkETkZhEpBvYTkV0iUmx/LgLeTdgIU4xExY4YpwY/qVDCPFH1kETEk3nQYJFoy4OpkxVIWIGkqneranPgPlVtoarN7VdbVb05gWNMOUxy1cSSCiXMva4heXng8GIGMlgk2vJgTHaBRFIP6a8iMhar/IQC36jqO3EdVYri1dHAJFeNjVQw2SUqRYzXcxksEm15MFngA4nkqh4DLgfmAfOBy0XksbiOKkXxqrUYp4bYSIV6SJ6dGjx8v0YgeSfRlZiN23cgkcz6UcAJqvo/Vf0fcBJQENdRNSC7KnZx9cdXe+rrVd33FIdknBp8mBLmgRiB5J1EZ9FPlMkuVTJ4RHJVS4Durs/dgJ/iM5yGZ+PejTw681FPfb2q+15+LMapwU9MJcyTePHaqwbnJU2RwcL3f5XEmRqqtZq0KENIU0VDimQNqS2wSERm2p8PBqaJyHsAqjomXoNLNYzJrmFIBZOd52zfxmSXUFLBqaExu31HIpBujfsoGgnGqaFhSBWnBi/JVY3JLrGkglNDYy5LEkly1SkAItLCvb+qbovjuBqcquoq0tPSo+rjdUE0Fg3JrCHFWMI8mdeQjJddwkkVp4YmqyGJyKXAncAeoBoQLPfv3vEdWsOyp3IP+Vn5UfXxan/2siifaFt3MpMKJcy93njSJbqHIq/nMlikzBpSUxVIwI3AYFXdEu/BJBO7K3ZHLZBiNdmZ5KreSAWTnSAJy7VnBJJ3Er2GlKiku6mSUiqSq1oO7I73QJKN3RXRX7JxamgYYiphnuRPwmYNKbGkitt3Y00pFcms3wxMFZH/isgjziteAxKR20RknYjMsV8nubbdLCLLRGSJiJzgah8uIvPsbY+I/V8sItki8prdPkNEekY6Dk8CyTg1NAhe45CSPTDWa649I5C80xBODV40+8aqOUdisvsv8CVWpoZEXc1Dqnq/u0FEBgHnYmUf7wx8LiL7qmoV8ARwKTAd+Ag4EfgYuBjYrqp9ReRc4B7gnEgGEIuG5Dkw1jg1eMJrHFLSZ/s2JruE01idGryeK9FEIpAqVfW6uI+kbk4DXlXVMmCFiCwDRojISqCFqk4DEJEXgNOxBNJpwG12/zeA/4iIaASPJF4EktcFUS/2XePU4Cdl6iF5yepsTHYJJRWcGrwUAfV6rnBMXTOVdxe/yz3H3VMvx3OIRCB9ZXvavQ+UOY1xdvv+o4iMA34ArlfV7UAXLA3IYa3dVmG/D27H/rvGHm+liOzECvQNcNCwr+9SADpZbdNnTad6RXRfXnFFMQDLly+nsKww4n4LixYCMGPmDIryiiLqM3frXABmz55N2fKyOvb2RklJCYWFhXE5dn3i/JOtWLGCQi2MuF9FZQXr1q6L6BpjnYudO3aiaFTH2FW8i7S9aVGft6KsgvUb1sftu0uV34UXtpZtBeDnn3+msLSwzv1jnYtdO3cBRHSMDzd8yIGtDqSysjLi320ACitXrQzoN33rdObunMtlvS+L6lDHf308FVpBQVoBuem50Y2jFiIRSOfbf90lJ2Jy+xaRz4F9Qmz6G5b57U77HHcCDwC/h5CPLFpLO3Vs8zeoPgk8CZDWJU0Vpe/AvhQMLKj9QoLYtmcbTIV+fftRcGjkfTcv2AyL4OCDD2ZIhyER9dn9826YD8OHDeeQrodENc5IKSwspKCgIC7Hrk9UFb6GHj17RDXetGlpdOvWLaI+sc5Fm1VtqKiuiOoY+UvzaZffLurz5szJocM+HeL23aXK78IL63atg+kwsP9ACoYX1Ll/ffwuKqsr6zxGeVU5o/4xig55HSANenSP7rcOkD41na7dugb0G3X7KAAmXjSxVmvB3sq9bCrZRI9WPQDImZZDRXkF3Yd2Z3CHwWH7RUskgbG96u1s/mMeG8l+IvIU8IH9cS1WHj2HrsB6u71riHZ3n7UikgG0BGrV7Bz33FicGhKZXNU4NcSWyy6RlUET5ZbuZaHcYJGsmRpKy0sBKCotIjs9u97XkDaXbqZjfseAtqd/fJr+bftzZI8jGfnsSGZtmEX1rdZvslVOK4rLi1m1cxWTf5lMr1b1IyYiCYzNBK4AfmU3FQL/VdWKehlBzfN1UtUN9sczsEpeALwHvCwiD2I5NfQDZqpqlV3N9lBgBjAOeNTV50JgGnAm8GVd60eO7TimNaRExCEZp4YABI83/GRfK/DoZVdZXRl1P0PyOjWUVpT63nv93WakZYT9XUxdM5Xm2c05trelK5SWl/KH9/8AQMnNJczaMAuw7ot5WXm0ymnFml1rWLp1Kdd+em3UYwlHJLP+BDAceNx+Dbfb4sW9tgv3T8Ao4FoAVV0ATAIWAp8AV9kedmAJzKeBZVhxUx/b7c8AbW0HiOuA8XWd3BEOyR6HZJwaAhHxEHjqcXHYC56yfXvU4HIzcymris+6Yn1SXlXOnoo9CTnXC3NfYMbaGXXul+j/q/S0dCqqaz7bPznrSSZ8NcH32dGQwLuXXeuc1mzbs438f+bzu3d+x/yi+b7g/7GTxnLci8dx/afXM2XlFPLv9icFmLZ2mu/91j3WGluzzGYAvL7w9ajHURuRrCEdrKr7uz5/KSJz63UULlT1t7Vsuwu4K0T7D0CNxRdV3QucFc35Y9GQTBxSw+E1eWkyR+R7NdnlZuR6+v3WJ7srdvPZ8s84fcDpYfcZ9t9hLNi8AJ0Qf/Pihe9cCFDruXbs3cH3674HEqch5Wfls3rn6hrtl31gORncPup2oKaG5GV87Zq1Y1PpJkorSnl+7vM8P/d5urboSkl5iW+fB6c/yMR5EwP6Fa4s9L3fsnsL3Vt29/WZumYqAL1a9WIFK6IeUzCRXFWViPRxPohIb6Cqlv0bBYnUkGKJQzIakkUiyzt4wWtgrJcbT7PMZgnRPD5d9ikf//xxyG1XfXQVZ7x2Bj9tCl86bcHmBRGfa1PJJs578zx27t1ZY9v7S95n/OfhjR/B875652pGPT+KO6fciary7epvLceC5wo4+42zgcQ96OVn5QcIBIAX577oe19ZXcmeij0B9yOvmn37vPYs3bo0oC0jraZOsql0U8DnV+e/6nu/uXQzeyr2sKtsV8A+0SaiDkckGtINWK7fv2B5rfUALqqXsycxXv6hvaYd8RKHZDSkQLya7BLp1JAogZmbmcvW3Vuj7hfMlJVTyErP4rBuhwFw9zd3k56WzghGAHDixBOBQK3juTnPcWLfE1lQZAkbt6kpFh6d+Sivzn+Vwe0Hc8uvbgHgnm/v4cOfP+Sb1d8A8K9j/xWyr1u7mL52Ooc9Y11P4cpCmmU244bJN/D6Wa8zd5Pf8JMwDSnTL5DKKstYu2st494Z59s+9rWxvL/0fX6z328C+p3Q5wSipV2zdjW0sZU7Vobd/7jexzH5l8ks376c1jmt2b53O6e/djp7K/fSIrtFwL6hHhS8UOusi0g6sD+WA8HV9qu/qn5VL2dPQpybWnlVefR9E2iyS3TOrWTHawqWZF9D8mqy21NZ+wPVJ8s+oayyjJU7Voadt2s/vZYJhf51jDcXvcmkBZPCHnPL7i1c9O5FnDTxJN+6SCTOFRVVFXyy7BM2lmz0tW3dvZWKKv/aSrtm7QCYvXE2Y18by9bdWxn/xXifMHKOA1BcVsyqHat87dv3bPe9X7NzTcC5nesL1lIS9X+Vl5VHSXkJuyt2k3NXDie9fFLA9veXvg9Y35fD+CPGc0T3I6I+V/tm7UO2j+47mpP7nRzQ9vsDfs+H53/oeyA6sseRgOX+DdTQkII/e6XWWbedBsaoapmq/qSqc+1MCY0eTwLJJFdtMLxmTU5YPSQv44vBZFebyXny8smMnjia37/3e3r9uxf3Tb3Pt23xlsXc+tWtqCobSjYEHKe4vJii0iJKK0tD3oAcgbB061Lf+0huVJt3b2b0xNEc/fzRAEz8aSLt7mvHv2f8mxlrZ5B7l1/je2vRW7y9+G0env5wjePs2LsDgH98/Q8OfeZQn6B12qGmicrRnoI1uUT9LvKz8imvKvdpKsEmNYctu61Y/j8f8mfuGHWHp3M5Qj2YIR2G8P5579doy0zPpFNzK1PA4V0Pr9GvQ14H3/v6cqKJ5Nc+VUT+IyJHisgw51UvZ09CnB9xeXVya0jGZBdIspvsEpXVGWwNqRaT88x1MwH4ccOPAHy2/DPftgvfuZA7v76TRVsWUVRaFKBpFZcVs6l0E2O+G0PLf7X0te+t3Mt/f/gvnR/sDFg3eUdDKi4v5tpPruX8N8/Hjfu37mgzi7Ys4h9f/4Pn5j4HWMLn0GcOZW/lXr5aGWiUWbVzFcFs32tpQuuK17GxZKMVqA6s2eXXisIJyOB1k0Q6NQAs2bIkov1vPOJGMtMzPZ0rnEDKz8pHRHj61Kd93nNDOw4FoFuLbgGf3fRp3adGW6xEMuuHYyU0vQMra8IDwP219khhYjLZNUByVaMhWUQbh5RogR5JYOyTs570CQnwbrIL1pCe+P4JPlj6ge+zE1PiFP/bW7mXW768hQ3FG2ie1RywvKeqtdpnogFLuJRXlVMdlGN5y+4tPDj9wYA25/9nV9kuHp7xMK/Mf4UX577omwO3icy9jvH3r/7O5798DgS6Gweb/kIKJNs052hEy7cv5/NfPufkl/3mqHACKdj5IpFODWC5XYfDEQoAeZl5ns8VzmTnHPPiYRf7vCKdjDHdWlrnHthuIEf3OppRPUf5+rXKaeV5LOGI5M55lqqOCnodXe8jSTK8CKREJldNdCGxZMe9RvPyvJdrxG0E34gSLdAj0ZAu++Ayhj853PfZqwaXmxm4hnTlR1dy6iun+j4v3rIYgLW7rBSQM9bN4K5v7uKCty7wRdx/seILwO/cU63VNdZZHLbs3hJgFoPA9RyHce+M8x3X0Wag9oV1h2ANxr1G5OBoRDvLrAX25duW88iMwEo5znn377h/QLvbtRkSryHVxqhefiGQl+VdIB3a9dA6x3BAxwMY0G4AHfOsrA0D2w2kbW5berTqwRfjvmDybyf79r3usOvISs/i5pE31zimV8LOuoicKiKbgZ9EZK2I1DQiNkJSzanBmOwsHC+2X7b/wgVvXcCbi970bbtp8k20/FfLQNfZBAv02pwaXl/wekiTjVeTXbPMZpRXlVNVXRXwm1q2bRkbijdQXG4JCefG7WgfczfN9ZmDHC3F0ZBq85YLJZDCLX6v2G7Fqrj3X7Gj7viVotLApMPB5wO/sHE8vpZvX870tdMD9tlQvIHs9GyuOvgqX1tWepZvLhxyMnLqHFN9EIlAOrSLJUiy0rNCumlHSsf8jvx46Y9MOnMSv1z9C/3b9gcChdyNR9zIgisX+O4r40eOZ/Zls33/J2737mN7H0vZLWUc1/s4z2MKpraruws4UlUXi8ghwL3AUfV25iSnrDL6RTrj1NBwOCY75yl+c+lm37ZHZlpPyaXlpT4beaIFerBTw5bdW1i6dSmHdDmEs984O0AwVlRV8Nyc56isrvTsZQcwZ+MccjP9mZj7PdoPgJbZLUP227Znm0+zchbRnc+OEAvF5tLNNR7gHIER3G/NrjW8ufDNAEFVm4Z0cr+T+fDnD2s4aYR6YNy6eyt7K/f6zj1742w2794csM+64nU0z25Om9w2vra+bfqycPPCgP1iMY1FQ7BAGt5pOHsr97Jg8wKeGfMMVdVVnDPkHK786Mp6GdOBnQ7kwE4HAtC7dW+WbF1CZlrgmpT7t9gssxnNWjYL2P7DH36gbbO2vs8tc0L/nrxQm0CqVNXFAKo6Q0Sa19tZU4BYNCSTXDXxOE4NzpO52yTkfJduM1ZDmOxUlU0lm9i+dzsPT3+Y/876LzcdcRMQaK59cNqDjP9ivK9ftDhC96CnDgq5PZzpDWrGk+yt3Mt3q79jQ8mGMD0IcNd2qLKzegULhIenP1xDSDlrWqHo2apnyPZQbu1Xf3I1478Y7zMzup01HNbuWkuL7BY0z7ZuZ53yO/kE9H4d9/OtJcViGosGt0B6+tSnuXjYxYx8diQAnZt35sS+VqxXx7yOMWlHoRjSYQgfL/u4hnZYF8M7Dw/43DGvI2cMOIO3eTvmMdV2hR1E5Lpwn1X1wRB9Uh6fl10sa0gJTK5qNCQL54bvCCRnPcGN2/Ms0SY7x6Q44ukRrN65mjH9xwDw/frva+z7U5F/gd1rYGxtVGkVHfI61DCDQaBHGlgCaeT/RtZ6vHCuylBzrSdYGA3tMJR5RfPC9u/esnut5w7GrUk5gnfGJTNYunUpv337t8zeOJsD9jmA4Z2Gc1jXw3j85Md9aXoGtBvgE0iOUI83boF08bCLAb9ZLCs9y7etb5u+NYR7rNx61K0ANYJuo6VLiy68dc5byLmx34tqE0hPAc1r+dyoSfo4JOPUEIBjEqtVILmeqhNtskuXdPZU7vE5Ejg500LdzDeV+BfwY9GQamOf/H1CCqR1u9ZFfb6Z62eG3RbKG87N/53yfxzxbM0gT8cJJC8zj6z0rKj/H9vktvH9Bga2G0hVtT/bWbVW07ZZW6ZebOVhc/Yb0HaAb59Em+wcMyv4v3P3A+oVB11Rq5bq9dz3HndvvR4zVsIKJFW9PZEDSTaMU0NqEWyyc24y7jkN0JASXGbgiG5HBCStdG4ujoBy487x5jUOqS72yd8nZJ45Lzc9t6u6m87NO4dMHOrm4M4Hh2zPTs9mT+UeMtIyyMvMo7yq3Je+JhSvn/U6G0s2MnHeRKavnc4B+xzAlyu+BKB5dnMO6nwQ5ww+h9cWvMb8ovkBfZ2g2/7t+vvaEm2yO6qnf3n+nMHnULiyMCDO54L9LkjIeBoa83gdBi+Rxya5asPhODUECyT3DczRkN5d/C6jnh/l65cIzht6XsTncq/JeI1Dqot98kMVbK6b4H4D2g0IsyeM6DIi4HNmWib/PPqf3Hj4jf62MEGeB+xzAAD7tt3Xdz1O1oBQ9G/bnz+O+CN92/QF4JAuh9ApvxMfX/Cx7zzPjHkGqGkad34j7mtJlMmuVU4rCi8sZNKZ/pRMlw2/jF3jd9Grdb3XRk16jEAKQyKdGkxy1dhJkzRKKkp8AmljyUYufvdivl71tW+f0vJS1u1ax+mvne7LVpCo+WuV04rerXtH3c9rZVA3ocxPnfLD39yDE2e6CY7ODxY6bo7uGRiumCZp3HzkzRzZ/ciA9idPeZIT+pxAuqT7koZeefCV/Hjpj4zqNcqnrXRu3jnsuZxMAiO7Wetd+3Xcj/XXr/c5BYCl9dx19F18cN4HAX2fP/15hnQYEjAniRJIYGlHjpMFWL9J9+emRP26bTQiGsKpISovO6MhBbB592Ze+ukln0BaV7yOZ+c8y7NznvXtc9PnN7Foy6KAfolcgzui+xEs3748qj5evt/sjOyAz/3a9mPOxjkBbcGaTufmnVlfvB6wvKbcbtl5mXm8ftbrPDzjYXq36s13a77zbTu86+G8MPeFkOM4uEtoc1xwCps/DP8DfxhuVSfdVLKJW768hV8P/LXPOcNZ3O/eoqaDw7lDzuWfR//T9/nS4ZfSq3WvsLExfz3yrzXaxu0/jnH7jwtIwmrWZhuGOmddRDqKyDMi8rH9eZCIXBz/oTUsDeHUsHbXWuR24cOlH9Z9LuPUEIDzMOBoPqEIFkaQWIH+7xP/zYSjJnB0L0tzcHtRBXNYV6tEQrg1k9oY2X0kX4z7ggeOfwDAF3XvJlggrS9e73MrdkxFTvqY7IxsRvcbzae/+ZQuLboE9AultYzpP4Zjex/L/h33JyMtg9F9RwP+By8nhiXU3HfM78hTY54K8BR0TJgHda7pxj52wNgA05aIcHyf4z1pvokKhjWEJ5K72XPAp4Dzy1sK/DlO40kK0iQtaoG0eudq3yKqVw1p9sbZgFX7xWHF9hU88X3NivHGqSE0weUF6iKR89cqpxW3FdzmW8ju0bJH2H3PHXIuAFNWTfF0rqN7HU3rnNaAdZMPJtRakBMsOqT9EBZeuZD7jrOygLsF51E9jmJwi8G+zzkZOdx/3P3cfczdvrZ3znmHyb+dTG5mLuW3lPu0EkcAORpSpHPvBOkGx79A/ZrWgjVLQ+KJRCC1U9VJYGVUVNVKGnnF2GaZzSirLGP62ukBEf+qygNTH+C6T6+r0WfEUyO45pNrAO+Bsc4Tmrug2CFPH8KVH11JcVkxVdVV/Hv6v9myewuTFlqLoMZkF0goxxB3mnwHxxOtITTM7HTrxlfbWs1J/ay6OI6W4gUngn6fvJoODG6BtP669Xx70bc+gdQssxkD2w/0rT054wWrLs5/DvyPTxBkZ2Rz/eHXM36kv2KrW9CIiG+unfZWOa3Iy8zjsZMei+p6BrYbCMBFB/jrg9anQDLWhoYnkm+gVETagvWfLiKHAvVTHjBJaZbZjD2VezjsmcMY8oT/hjBt7TRumHwDD01/qEYfd/JHryY7py6NO5LeCYbbWbaTNxa+wZ8//TNnTjrTl2vMaEh1E8oTbHAH6ym/IQS6o3E4pquxA2tmeu6U34nlVy/nrbPf8nweJwNBKA3Jbcbr1LwTbZu19S3qO+ay4DWcUNcQiZnLERrOXKdJGiV/LeHygy6P6DocTbJ5dnN0gvLUqU/5toXL5GBITSIRSNcB7wF9ROQ74AXgT3EdVQPjjuMoKi1i2bZlAPy89Wdfe2l5KZtLN3PT5Jtq5NnyarJzcASSu2Lmzr07+WT5JwHbwTzVRYI74NHXZgupaGso1QeOxjF2wFimXTyNS4ddWmOfZpnN6N26d0x5wlrnWiY7tzY085KZPHD8AyFLBzjamLM+6QidUKYs5xrc2lM46socURc/XPoDy/60zPfZneCzKbpGN2bq9LJT1R9F5CigPyDAElWtqKNbShNsBlizcw375O8TEDR48FMH+xbJ2+S2ITMt01eUzKuG5OAInKlrpvradpbt5If1PwCBwZTGZFc3vVr3Ijs9OyC2bFC7QQB1Bm7Gg3OHnMuzc57liO5HMKTDkIAx3HDYDby1+K160XwP2OcA7j/ufsb0H8OZg87kjYVvMLzz8LDeb45AWrLVyjzuPBDFqiEFm+yipV2zdjU88944642YzJmG5CQSL7uzgFxVXQCcDrzWmCvGQk2B9PK8l2l+d3NffXsI9NiqqK6oEUcQDcFajiOQXpn/iq9t596dPkEUYB40JrsaBGcq6Nmqp+8pfd+2+7Lqz6sY1N4SSMFZnhPBcX2OQyeovwiaqwDbfcffx/Kro3MND0eapHH94deTn5XPS2e8xLrr1tWqUTv59cbtPw7AFzc1/ojxNfZ1tKZIfn++fevx4enXg34dkFnB0DiIJA7p76r6uoiMBE7Aqhb7BHBIXEfWgASbGJ6e/TQQqLG4yUjLCEhLE3VgbBiT3berv6Vvm74s27aMF356IWQNGKMh1aRT8078sv0X3+ceLXuQm5HLDnawX8f96N6yO61yWtGtRTdftu2GJBEPFdkZ2bUGloJl2tMJfhNm69zWAZ/dHN7tcJZtWxZRmqKW2S35zX6/4bLhl0U36AbgnXPe8ZzFwhA7kQgkx6PuZOAJVX1XRG6L35AaHkdD6tO6T41ARnfSRoeKqoqAxJ2xmuwAxrwyhgWbF3DKvqewbNsyXp3/aui+RkOqQXCNGbeG5Gxrkd2C1dcm3lwXjoljJzJ7w+yEnjNN0hjaYainvv895b9cPvxyX4nr2hARXjzjRU/nSTSnDTitoYfQpIlEIK0Tkf8CxwL3iEg2jTzlkPPU17t17xoCaUiHIQHpaKBmeeVYnRoAn3mwd6vAdDNdmndhXbE/I7NxaqiJe13jjoI72Cd/H9932jwrOVOynD/0fM4fen5Cz1l+S7nnB5qcjBwO63ZYQNuX4770lAPSYHCI5G52NlZg7ImqugNoA9xYa48Ux3FO6NGyR40bfqgnyuCKl9FqSO7U+MF0bdE14HOwm6sx2dXEEUitclrx96P+bsXCBGlIBstbrT4faEb1GhWQO85giJY6f42qultV3wJ2ikh3IBNYHMtJReQsEVkgItUiclDQtptFZJmILBGRE1ztw0Vknr3tEbEf7UQkW0Res9tniEhPV58LReRn+3VhpONzTHId8zvW8CIKFffgpPF3AjBDVbOsjeD0MM+O8edfc5cKhpoOF8ZkF0ib3DbkZOSw7S/bWP1nv0muf1trATyRSTMNBkN0ROJlN0ZEfgZWAFPsvx/HeN75wFggwPYlIoOAc4HBwInA4yLiBB08AVwK9LNfzqPYxcB2Ve0LPATcYx+rDTABy/liBDBBRFpHMjgnRmNAuwEBzgpgBSy+d+57TP7tZF/bml1ryEzL9EXXR1vkzImQd7joQH8kettcv0DaOX4nT5z8BP865l++J/1oErI2Bfq16Ufb3La0zm0d4Pno5IZbvCWmZymDwRBHItHX7wQOBZaqai+staTvau9SO6q6SFWXhNh0GvCqqpap6gpgGTBCRDoBLVR1mlp34BewXNCdPs/b798AjrG1pxOAyaq6TVW3A5PxC7FaueaQa3j1169ywdALagROdmreiVP7n1oj7f6wTsM4ptcxQE0BUxfDOg1j7uVzQ25zjtW+WXtaZLegT5s+3DTyJh46wcoWYZ74A3nj7Df494n/rtF+5qAzyUjLCEg7YzAYkotInBoqVHWriKSJSJqqfiUi98RpPF2A6a7Pa+22Cvt9cLvTZw1YefZEZCfQ1t0eok+t5GTkcOKQQNmVLulUaZXPdTZ4cXxElxFcMPQCerTswcjuIyM5TQD7ddwvZHvbZm3ZOX4n6ZIe0H7JsEu4ZNglUZ+nsRO85ubQMb8jFX9v1PHcBkPKE4lA2iEi+VjmtYkiUgRU1tVJRD4HQjn0/01V3w3XLUSb1tLutU/gSUUuxTIHQieYN3cerAzcp3uz7qwoXcGyOcvYmLGxxjEytmcwZYqVmXnKCm8Zmh0KCwtJI41qqlk8ezFFWUUxHc8rJSUlFBYWNsi5vRKv8abiXMQLMxd+zFzUL5EIpNOAvcC1wAVAS+COujqp6rEexrMWcAc2dAXW2+1dQ7S7+6wVkQx7fNvs9oKgPoVhxvok8CSAdBY9aNhBfpdWW7YM6z6MjT9v5ORjTvY5Emw9ZCsd7utAlVZx2uGncVTPozxcsospVuxTQUEBF2y/gBd/epFTjjml1ro58aSwsJCCgoIGOXe05E/LZ2C7gXEbbyrNRbwxc+HHzEX9Ekkuu1LXx+fD7lg/vAe8LCIPYtVf6gfMVNUqESm2M43PAMYBj7r6XAhMA84EvlRVFZFPgX+6HBmOB26OZBDu5I0OY/qPoW1u2wCvtja5bahSy2V7YPuB0V5rDYpvLvYVSXt6zNPcfczdDSaMUo3im4sbeggGgyFG6hRIIjIWy3OtA5YZTABV1fDFXOo+5hlYAqU98KGIzFHVE1R1gYhMAhZimQWvUlUnSOcKrGKBuVhefo6n3zPAiyKyDEszOhdrgNtE5E7ge3u/O1Q1MMVCCNIlPSCD8axLZ7F823LOGnyWL8eXm5P6ncRHP39E+2bto5uEELhjZLLSs2pU5zQYDIbGTCQmu3uBU1W1Zv1nj6jq28DbYbbdBdwVov0HoEZ6X1XdC5wV5ljPAs+G2haOPvl92H+f/X2fh3UaxrBO4XPJvnn2m5SWl5p4IIPBYIiRSATSpvoURo2NnIyciFLwGwwGg6F2wgok21QH8IOIvAa8A/gSVdnZGwwGg8FgqBdq05BOdb3fjeUU4KCAEUgGg8FgqDfCCiRVNSHtBoPBYEgYkeSy6y0i74vIZhEpEpF3RcQUsjcYDAZDvRJJLruXgUlAJ6zYoNeB0NXiDAaDwWDwSCQCSVT1RVWttF8vESYFj8FgMBgMXonE7fsrERmPpRUpcA5WMGsbsAJQ4zg+g8FgMDQRIhFI59h/Lwtq/z2WgOqNwWAwGAwxEkkuO+PAYDAYDIa4E4mGhIgcDvR076+qL8RpTAaDwWBogkSSXPVFoA8wB3ASnTpVWw0Gg8FgqBci0ZAOAgbZpcMNBoPBYIgLkbh9zyd05VeDwWAwGOqNSDSkdsBCEZlJYHLVMXEblcFgMBiaHJEIpNviPQiDwWAwGCJx+56SiIEYDAaDoWlTWz2kYkKnCIq5hLnBYDAYDMHUVn6ieSIHYjAYDIamTSRedgaDwWAwxB0jkAwGg8GQFBiBZDAYDIakwAgkg8FgMCQFRiAZDAaDISkwAslgMBgMSYERSAaDwWBICoxAMhgMBkNSYASSwWAwGJKCBhFIInKWiCwQkWoROcjV3lNE9ojIHPv1f65tw0VknogsE5FHRETs9mwRec1unyEiPV19LhSRn+3XhQm9SIPBYDBERUNpSPOBscDXIbYtV9UD7NflrvYngEuBfvbrRLv9YmC7qvYFHgLuARCRNsAE4BBgBDBBRFrH42IMBoPBEDsNIpBUdZGqLol0fxHpBLRQ1Wl25doXgNPtzacBz9vv3wCOsbWnE4DJqrpNVbcDk/ELMYPBYDAkGZHUQ0o0vURkNrALuEVVvwG6AGtd+6y127D/rgFQ1UoR2Qm0dbeH6BOAiFyKpX0BlInI/Hq6llSnHbCloQeRJJi58GPmwo+ZCz/9Yz1A3ASSiHxO6NLnf1PVd8N02wB0V9WtIjIceEdEBmOVvAjGKY0RblttfQIbVZ8EnrTH/YOqHhRqv6aGmQs/Zi78mLnwY+bCj4j8EOsx4iaQVPVYD33KsMukq+osEVkO7Iul3XR17doVWG+/Xwt0A9aKSAbQEthmtxcE9SmMdkwGg8FgSAxJ5fYtIu1FJN1+3xvLeeEXVd0AFIvIofb60DjA0bLeAxwPujOBL+11pk+B40Wkte3McLzdZjAYDIYkpEHWkETkDOBRoD3woYjMUdUTgF8Bd4hIJVAFXK6q2+xuVwDPAbnAx/YL4BngRRFZhqUZnQugqttE5E7ge3u/O1zHqo0nY72+RoSZCz9mLvyYufBj5sJPzHMhljJhMBgMBkPDklQmO4PBYDA0XYxAMhgMBkNSYASSCxE5UUSW2GmIxjf0eOKNiDwrIkXuuCsRaSMik+10S5Pd2S1E5GZ7bpaIyAkNM+r4ICLdROQrEVlkp7W6xm5vcvMhIjkiMlNE5tpzcbvd3uTmAkBE0kVktoh8YH9ukvMAICIr7RRucxw373qdD1U1L2sdLR1YDvQGsoC5wKCGHlecr/lXwDBgvqvtXmC8/X48cI/9fpA9J9lAL3uu0hv6GupxLjoBw+z3zYGl9jU3ufnAiuHLt99nAjOAQ5viXNjXdx3wMvCB/blJzoN9jSuBdkFt9TYfRkPyMwJYpqq/qGo58CpWWqJGi6p+jeWZ6Madiul5AlM0vaqqZaq6AliGNWeNAlXdoKo/2u+LgUVYmT2a3HyoRYn9MdN+KU1wLkSkK3Ay8LSrucnNQx3U23wYgeQn4lRDjZyOasV9Yf/tYLc3mfmxM8YfiKUZNMn5sM1Uc4AirJyQTXUuHgb+AlS72priPDgo8JmIzLJTrkE9zkcy5rJrKCJONdREaRLzIyL5wJvAn1V1l13lJOSuIdoazXyoahVwgIi0At4WkSG17N4o50JETgGK1MoaUxBJlxBtKT8PQRyhqutFpAMwWUQW17Jv1PNhNCQ/TgoiB3d6oqbEJju7upNlvchub/TzIyKZWMJooqq+ZTc32fkAUNUdWCm3TqTpzcURwBgRWYllwj9aRF6i6c2DD1Vdb/8tAt7GMsHV23wYgeTne6CfiPQSkSysjA/vNfCYGgJ3KqYLCUzRdK5YBRF7YaV1mtkA44sLdkqqZ4BFqvqga1OTmw87hVcr+30ucCywmCY2F6p6s6p2VdWeWPeDL1X1NzSxeXAQkTwRae68x0rHNp/6nI+G9tpIphdwEpZ31XKsrOQNPqY4X+8rWBnWK7CeZi7GKt3xBfCz/beNa/+/2XOzBBjd0OOv57kYiWVO+AmYY79OaorzAewHzLbnYj5wq93e5ObCdX0F+L3smuQ8YHkgz7VfC5x7ZH3Oh0kdZDAYDIakwJjsDAaDwZAUGIFkMBgMhqTACCSDwWAwJAVGIBkMBoMhKTACyWAwGAxJgRFIBkM9ISJt7SzIc0Rko4iss9+XiMjjcTrnn0VkXD0c51UR6VcfYzIYvGLcvg2GOCAitwElqnp/HM+RAfyIlaW8MsZjHQX8RlX/UC+DMxg8YDQkgyHOiEiBq5bObSLyvIh8ZteWGSsi99o1Zj6x0xchIsNFZIqdxPJTJzVLEEcDPzrCSEQKReQhEflarLpOB4vIW3admn/Y++SJyIdi1TqaLyLn2Mf6BjjWFnIGQ4NgBJLBkHj6YJU0OA14CfhKVYcCe4CTbaH0KHCmqg4HngXuCnGcI4BZQW3lqvor4P+wUrhcBQwBficibbFy0q1X1f1VdQjwCYCqVmOVB9i/Xq/UYIgCI5AMhsTzsapWAPOwCkN+YrfPA3oC/bGEyGS7BMQtWIkpg+kEbA5qc/IvzgMWqFXnqQz4BSvR5TwsTegeETlSVXe6+hYBnWO8NoPBM0Y9NxgSTxlYWomIVKh/Ibca639SsITJYXUcZw+QE+rY9rHKXO3VQIaqLhWR4Vh5+u4Wkc9U9Q57nxz7mAZDg2A0JIMh+VgCtBeRw8AqiyEig0PstwjoG82BRaQzsFtVXwLuxyph77AvVtJMg6FBMBqSwZBkqGq5iJwJPCIiLbH+Tx+mprD4GHgxysMPBe4TkWqsLO9XAIhIR2CP2pU/DYaGwLh9GwwpjIi8DfxFVX+O8TjXArtU9Zn6GZnBED3GZGcwpDbjsZwbYmUH8Hw9HMdg8IzRkAwGg8GQFBgNyWAwGAxJgRFIBoPBYEgKjEAyGAwGQ1JgBJLBYDAYkgIjkAwGg8GQFPw/J6t8ORMdijsAAAAASUVORK5CYII=;imageBorder=default;" vertex="1" parent="1">
          <mxGeometry x="460" y="458" width="420" height="278" as="geometry" />
        </mxCell>
      </root>
    </mxGraphModel>
  </diagram>
</mxfile>
